<svg width="1200" height="1908" viewBox="0 0 1200 1908" fill="none" xmlns="http://www.w3.org/2000/svg">
<path d="M0 8H1200V1908H0V8Z" fill="black"/>
<g clip-path="url(#clip0_70_36)">
<path d="M129.231 1692.31C129.231 1691.08 128.745 1689.91 127.879 1689.04C127.013 1688.18 125.839 1687.69 124.615 1687.69C123.391 1687.69 122.217 1688.18 121.352 1689.04C120.486 1689.91 120 1691.08 120 1692.31C120 1693.53 120.486 1694.71 121.352 1695.57C122.217 1696.44 123.391 1696.92 124.615 1696.92C125.839 1696.92 127.013 1696.44 127.879 1695.57C128.745 1694.71 129.231 1693.53 129.231 1692.31ZM129.231 1664.62C129.231 1663.39 128.745 1662.22 127.879 1661.35C127.013 1660.49 125.839 1660 124.615 1660C123.391 1660 122.217 1660.49 121.352 1661.35C120.486 1662.22 120 1663.39 120 1664.62C120 1665.84 120.486 1667.01 121.352 1667.88C122.217 1668.74 123.391 1669.23 124.615 1669.23C125.839 1669.23 127.013 1668.74 127.879 1667.88C128.745 1667.01 129.231 1665.84 129.231 1664.62ZM156.923 1747.69C156.923 1746.47 156.437 1745.29 155.571 1744.43C154.706 1743.56 153.532 1743.08 152.308 1743.08C151.084 1743.08 149.91 1743.56 149.044 1744.43C148.179 1745.29 147.692 1746.47 147.692 1747.69C147.692 1748.92 148.179 1750.09 149.044 1750.96C149.91 1751.82 151.084 1752.31 152.308 1752.31C153.532 1752.31 154.706 1751.82 155.571 1750.96C156.437 1750.09 156.923 1748.92 156.923 1747.69ZM156.923 1720C156.923 1718.78 156.437 1717.6 155.571 1716.74C154.706 1715.87 153.532 1715.38 152.308 1715.38C151.084 1715.38 149.91 1715.87 149.044 1716.74C148.179 1717.6 147.692 1718.78 147.692 1720C147.692 1721.22 148.179 1722.4 149.044 1723.26C149.91 1724.13 151.084 1724.62 152.308 1724.62C153.532 1724.62 154.706 1724.13 155.571 1723.26C156.437 1722.4 156.923 1721.22 156.923 1720ZM156.923 1692.31C156.923 1691.08 156.437 1689.91 155.571 1689.04C154.706 1688.18 153.532 1687.69 152.308 1687.69C151.084 1687.69 149.91 1688.18 149.044 1689.04C148.179 1689.91 147.692 1691.08 147.692 1692.31C147.692 1693.53 148.179 1694.71 149.044 1695.57C149.91 1696.44 151.084 1696.92 152.308 1696.92C153.532 1696.92 154.706 1696.44 155.571 1695.57C156.437 1694.71 156.923 1693.53 156.923 1692.31ZM156.923 1664.62C156.923 1663.39 156.437 1662.22 155.571 1661.35C154.706 1660.49 153.532 1660 152.308 1660C151.084 1660 149.91 1660.49 149.044 1661.35C148.179 1662.22 147.692 1663.39 147.692 1664.62C147.692 1665.84 148.179 1667.01 149.044 1667.88C149.91 1668.74 151.084 1669.23 152.308 1669.23C153.532 1669.23 154.706 1668.74 155.571 1667.88C156.437 1667.01 156.923 1665.84 156.923 1664.62ZM184.615 1747.69C184.615 1746.47 184.129 1745.29 183.264 1744.43C182.398 1743.56 181.224 1743.08 180 1743.08C178.776 1743.08 177.602 1743.56 176.736 1744.43C175.871 1745.29 175.385 1746.47 175.385 1747.69C175.385 1748.92 175.871 1750.09 176.736 1750.96C177.602 1751.82 178.776 1752.31 180 1752.31C181.224 1752.31 182.398 1751.82 183.264 1750.96C184.129 1750.09 184.615 1748.92 184.615 1747.69ZM184.615 1720C184.615 1718.78 184.129 1717.6 183.264 1716.74C182.398 1715.87 181.224 1715.38 180 1715.38C178.776 1715.38 177.602 1715.87 176.736 1716.74C175.871 1717.6 175.385 1718.78 175.385 1720C175.385 1721.22 175.871 1722.4 176.736 1723.26C177.602 1724.13 178.776 1724.62 180 1724.62C181.224 1724.62 182.398 1724.13 183.264 1723.26C184.129 1722.4 184.615 1721.22 184.615 1720ZM184.615 1692.31C184.615 1691.08 184.129 1689.91 183.264 1689.04C182.398 1688.18 181.224 1687.69 180 1687.69C178.776 1687.69 177.602 1688.18 176.736 1689.04C175.871 1689.91 175.385 1691.08 175.385 1692.31C175.385 1693.53 175.871 1694.71 176.736 1695.57C177.602 1696.44 178.776 1696.92 180 1696.92C181.224 1696.92 182.398 1696.44 183.264 1695.57C184.129 1694.71 184.615 1693.53 184.615 1692.31ZM184.615 1664.62C184.615 1663.39 184.129 1662.22 183.264 1661.35C182.398 1660.49 181.224 1660 180 1660C178.776 1660 177.602 1660.49 176.736 1661.35C175.871 1662.22 175.385 1663.39 175.385 1664.62C175.385 1665.84 175.871 1667.01 176.736 1667.88C177.602 1668.74 178.776 1669.23 180 1669.23C181.224 1669.23 182.398 1668.74 183.264 1667.88C184.129 1667.01 184.615 1665.84 184.615 1664.62ZM212.308 1775.38C212.308 1774.16 211.821 1772.99 210.956 1772.12C210.09 1771.26 208.916 1770.77 207.692 1770.77C206.468 1770.77 205.294 1771.26 204.429 1772.12C203.563 1772.99 203.077 1774.16 203.077 1775.38C203.077 1776.61 203.563 1777.78 204.429 1778.65C205.294 1779.51 206.468 1780 207.692 1780C208.916 1780 210.09 1779.51 210.956 1778.65C211.821 1777.78 212.308 1776.61 212.308 1775.38ZM212.308 1747.69C212.308 1746.47 211.821 1745.29 210.956 1744.43C210.09 1743.56 208.916 1743.08 207.692 1743.08C206.468 1743.08 205.294 1743.56 204.429 1744.43C203.563 1745.29 203.077 1746.47 203.077 1747.69C203.077 1748.92 203.563 1750.09 204.429 1750.96C205.294 1751.82 206.468 1752.31 207.692 1752.31C208.916 1752.31 210.09 1751.82 210.956 1750.96C211.821 1750.09 212.308 1748.92 212.308 1747.69ZM212.308 1720C212.308 1718.78 211.821 1717.6 210.956 1716.74C210.09 1715.87 208.916 1715.38 207.692 1715.38C206.468 1715.38 205.294 1715.87 204.429 1716.74C203.563 1717.6 203.077 1718.78 203.077 1720C203.077 1721.22 203.563 1722.4 204.429 1723.26C205.294 1724.13 206.468 1724.62 207.692 1724.62C208.916 1724.62 210.09 1724.13 210.956 1723.26C211.821 1722.4 212.308 1721.22 212.308 1720ZM212.308 1692.31C212.308 1691.08 211.821 1689.91 210.956 1689.04C210.09 1688.18 208.916 1687.69 207.692 1687.69C206.468 1687.69 205.294 1688.18 204.429 1689.04C203.563 1689.91 203.077 1691.08 203.077 1692.31C203.077 1693.53 203.563 1694.71 204.429 1695.57C205.294 1696.44 206.468 1696.92 207.692 1696.92C208.916 1696.92 210.09 1696.44 210.956 1695.57C211.821 1694.71 212.308 1693.53 212.308 1692.31ZM212.308 1664.62C212.308 1663.39 211.821 1662.22 210.956 1661.35C210.09 1660.49 208.916 1660 207.692 1660C206.468 1660 205.294 1660.49 204.429 1661.35C203.563 1662.22 203.077 1663.39 203.077 1664.62C203.077 1665.84 203.563 1667.01 204.429 1667.88C205.294 1668.74 206.468 1669.23 207.692 1669.23C208.916 1669.23 210.09 1668.74 210.956 1667.88C211.821 1667.01 212.308 1665.84 212.308 1664.62ZM240 1775.38C240 1774.16 239.514 1772.99 238.648 1772.12C237.783 1771.26 236.609 1770.77 235.385 1770.77C234.161 1770.77 232.987 1771.26 232.121 1772.12C231.255 1772.99 230.769 1774.16 230.769 1775.38C230.769 1776.61 231.255 1777.78 232.121 1778.65C232.987 1779.51 234.161 1780 235.385 1780C236.609 1780 237.783 1779.51 238.648 1778.65C239.514 1777.78 240 1776.61 240 1775.38ZM240 1747.69C240 1746.47 239.514 1745.29 238.648 1744.43C237.783 1743.56 236.609 1743.08 235.385 1743.08C234.161 1743.08 232.987 1743.56 232.121 1744.43C231.255 1745.29 230.769 1746.47 230.769 1747.69C230.769 1748.92 231.255 1750.09 232.121 1750.96C232.987 1751.82 234.161 1752.31 235.385 1752.31C236.609 1752.31 237.783 1751.82 238.648 1750.96C239.514 1750.09 240 1748.92 240 1747.69ZM240 1720C240 1718.78 239.514 1717.6 238.648 1716.74C237.783 1715.87 236.609 1715.38 235.385 1715.38C234.161 1715.38 232.987 1715.87 232.121 1716.74C231.255 1717.6 230.769 1718.78 230.769 1720C230.769 1721.22 231.255 1722.4 232.121 1723.26C232.987 1724.13 234.161 1724.62 235.385 1724.62C236.609 1724.62 237.783 1724.13 238.648 1723.26C239.514 1722.4 240 1721.22 240 1720ZM240 1692.31C240 1691.08 239.514 1689.91 238.648 1689.04C237.783 1688.18 236.609 1687.69 235.385 1687.69C234.161 1687.69 232.987 1688.18 232.121 1689.04C231.255 1689.91 230.769 1691.08 230.769 1692.31C230.769 1693.53 231.255 1694.71 232.121 1695.57C232.987 1696.44 234.161 1696.92 235.385 1696.92C236.609 1696.92 237.783 1696.44 238.648 1695.57C239.514 1694.71 240 1693.53 240 1692.31ZM240 1664.62C240 1663.39 239.514 1662.22 238.648 1661.35C237.783 1660.49 236.609 1660 235.385 1660C234.161 1660 232.987 1660.49 232.121 1661.35C231.255 1662.22 230.769 1663.39 230.769 1664.62C230.769 1665.84 231.255 1667.01 232.121 1667.88C232.987 1668.74 234.161 1669.23 235.385 1669.23C236.609 1669.23 237.783 1668.74 238.648 1667.88C239.514 1667.01 240 1665.84 240 1664.62Z" fill="#C0BDEF" fill-opacity="0.5"/>
</g>
<path d="M182.98 120.012V186H166.906V158.834H141.902V186H125.828V120.012H141.902V145.862H166.906V120.012H182.98ZM191.388 159.68C191.388 154.291 192.391 149.559 194.396 145.486C196.464 141.413 199.253 138.279 202.762 136.086C206.271 133.893 210.188 132.796 214.512 132.796C218.209 132.796 221.437 133.548 224.194 135.052C227.014 136.556 229.176 138.53 230.68 140.974V133.548H246.754V186H230.68V178.574C229.113 181.018 226.92 182.992 224.1 184.496C221.343 186 218.115 186.752 214.418 186.752C210.157 186.752 206.271 185.655 202.762 183.462C199.253 181.206 196.464 178.041 194.396 173.968C192.391 169.832 191.388 165.069 191.388 159.68ZM230.68 159.774C230.68 155.763 229.552 152.599 227.296 150.28C225.103 147.961 222.408 146.802 219.212 146.802C216.016 146.802 213.29 147.961 211.034 150.28C208.841 152.536 207.744 155.669 207.744 159.68C207.744 163.691 208.841 166.887 211.034 169.268C213.29 171.587 216.016 172.746 219.212 172.746C222.408 172.746 225.103 171.587 227.296 169.268C229.552 166.949 230.68 163.785 230.68 159.774ZM274.457 140.974C275.961 138.53 278.123 136.556 280.943 135.052C283.763 133.548 286.99 132.796 290.625 132.796C294.949 132.796 298.865 133.893 302.375 136.086C305.884 138.279 308.641 141.413 310.647 145.486C312.715 149.559 313.749 154.291 313.749 159.68C313.749 165.069 312.715 169.832 310.647 173.968C308.641 178.041 305.884 181.206 302.375 183.462C298.865 185.655 294.949 186.752 290.625 186.752C286.927 186.752 283.7 186.031 280.943 184.59C278.185 183.086 276.023 181.112 274.457 178.668V186H258.383V116.44H274.457V140.974ZM297.393 159.68C297.393 155.669 296.265 152.536 294.009 150.28C291.815 147.961 289.089 146.802 285.831 146.802C282.635 146.802 279.909 147.961 277.653 150.28C275.459 152.599 274.363 155.763 274.363 159.774C274.363 163.785 275.459 166.949 277.653 169.268C279.909 171.587 282.635 172.746 285.831 172.746C289.027 172.746 291.753 171.587 294.009 169.268C296.265 166.887 297.393 163.691 297.393 159.68ZM330.266 128.096C327.446 128.096 325.127 127.281 323.31 125.652C321.555 123.96 320.678 121.892 320.678 119.448C320.678 116.941 321.555 114.873 323.31 113.244C325.127 111.552 327.446 110.706 330.266 110.706C333.023 110.706 335.279 111.552 337.034 113.244C338.851 114.873 339.76 116.941 339.76 119.448C339.76 121.892 338.851 123.96 337.034 125.652C335.279 127.281 333.023 128.096 330.266 128.096ZM338.256 133.548V186H322.182V133.548H338.256ZM365.978 116.44V186H349.904V116.44H365.978ZM385.711 128.096C382.891 128.096 380.572 127.281 378.755 125.652C377 123.96 376.123 121.892 376.123 119.448C376.123 116.941 377 114.873 378.755 113.244C380.572 111.552 382.891 110.706 385.711 110.706C388.468 110.706 390.724 111.552 392.479 113.244C394.296 114.873 395.205 116.941 395.205 119.448C395.205 121.892 394.296 123.96 392.479 125.652C390.724 127.281 388.468 128.096 385.711 128.096ZM393.701 133.548V186H377.627V133.548H393.701ZM402.153 159.68C402.153 154.291 403.156 149.559 405.161 145.486C407.229 141.413 410.018 138.279 413.527 136.086C417.037 133.893 420.953 132.796 425.277 132.796C428.724 132.796 431.857 133.517 434.677 134.958C437.56 136.399 439.816 138.342 441.445 140.786V116.44H457.519V186H441.445V178.48C439.941 180.987 437.779 182.992 434.959 184.496C432.202 186 428.975 186.752 425.277 186.752C420.953 186.752 417.037 185.655 413.527 183.462C410.018 181.206 407.229 178.041 405.161 173.968C403.156 169.832 402.153 165.069 402.153 159.68ZM441.445 159.774C441.445 155.763 440.317 152.599 438.061 150.28C435.868 147.961 433.173 146.802 429.977 146.802C426.781 146.802 424.055 147.961 421.799 150.28C419.606 152.536 418.509 155.669 418.509 159.68C418.509 163.691 419.606 166.887 421.799 169.268C424.055 171.587 426.781 172.746 429.977 172.746C433.173 172.746 435.868 171.587 438.061 169.268C440.317 166.949 441.445 163.785 441.445 159.774ZM465.952 159.68C465.952 154.291 466.955 149.559 468.96 145.486C471.028 141.413 473.817 138.279 477.326 136.086C480.836 133.893 484.752 132.796 489.076 132.796C492.774 132.796 496.001 133.548 498.758 135.052C501.578 136.556 503.74 138.53 505.244 140.974V133.548H521.318V186H505.244V178.574C503.678 181.018 501.484 182.992 498.664 184.496C495.907 186 492.68 186.752 488.982 186.752C484.721 186.752 480.836 185.655 477.326 183.462C473.817 181.206 471.028 178.041 468.96 173.968C466.955 169.832 465.952 165.069 465.952 159.68ZM505.244 159.774C505.244 155.763 504.116 152.599 501.86 150.28C499.667 147.961 496.972 146.802 493.776 146.802C490.58 146.802 487.854 147.961 485.598 150.28C483.405 152.536 482.308 155.669 482.308 159.68C482.308 163.691 483.405 166.887 485.598 169.268C487.854 171.587 490.58 172.746 493.776 172.746C496.972 172.746 499.667 171.587 501.86 169.268C504.116 166.949 505.244 163.785 505.244 159.774ZM529.751 159.68C529.751 154.291 530.754 149.559 532.759 145.486C534.827 141.413 537.616 138.279 541.125 136.086C544.634 133.893 548.551 132.796 552.875 132.796C556.322 132.796 559.455 133.517 562.275 134.958C565.158 136.399 567.414 138.342 569.043 140.786V116.44H585.117V186H569.043V178.48C567.539 180.987 565.377 182.992 562.557 184.496C559.8 186 556.572 186.752 552.875 186.752C548.551 186.752 544.634 185.655 541.125 183.462C537.616 181.206 534.827 178.041 532.759 173.968C530.754 169.832 529.751 165.069 529.751 159.68ZM569.043 159.774C569.043 155.763 567.915 152.599 565.659 150.28C563.466 147.961 560.771 146.802 557.575 146.802C554.379 146.802 551.653 147.961 549.397 150.28C547.204 152.536 546.107 155.669 546.107 159.68C546.107 163.691 547.204 166.887 549.397 169.268C551.653 171.587 554.379 172.746 557.575 172.746C560.771 172.746 563.466 171.587 565.659 169.268C567.915 166.949 569.043 163.785 569.043 159.774ZM646.19 158.928C646.19 160.432 646.096 161.999 645.908 163.628H609.53C609.781 166.887 610.815 169.393 612.632 171.148C614.512 172.84 616.799 173.686 619.494 173.686C623.505 173.686 626.293 171.994 627.86 168.61H644.968C644.091 172.057 642.493 175.159 640.174 177.916C637.918 180.673 635.067 182.835 631.62 184.402C628.173 185.969 624.319 186.752 620.058 186.752C614.919 186.752 610.345 185.655 606.334 183.462C602.323 181.269 599.19 178.135 596.934 174.062C594.678 169.989 593.55 165.226 593.55 159.774C593.55 154.322 594.647 149.559 596.84 145.486C599.096 141.413 602.229 138.279 606.24 136.086C610.251 133.893 614.857 132.796 620.058 132.796C625.134 132.796 629.646 133.861 633.594 135.992C637.542 138.123 640.613 141.162 642.806 145.11C645.062 149.058 646.19 153.664 646.19 158.928ZM629.74 154.698C629.74 151.941 628.8 149.747 626.92 148.118C625.04 146.489 622.69 145.674 619.87 145.674C617.175 145.674 614.888 146.457 613.008 148.024C611.191 149.591 610.063 151.815 609.624 154.698H629.74ZM676.008 186.752C671.433 186.752 667.36 185.969 663.788 184.402C660.216 182.835 657.396 180.705 655.328 178.01C653.26 175.253 652.1 172.182 651.85 168.798H667.736C667.924 170.615 668.77 172.088 670.274 173.216C671.778 174.344 673.626 174.908 675.82 174.908C677.825 174.908 679.36 174.532 680.426 173.78C681.554 172.965 682.118 171.931 682.118 170.678C682.118 169.174 681.334 168.077 679.768 167.388C678.201 166.636 675.663 165.821 672.154 164.944C668.394 164.067 665.26 163.158 662.754 162.218C660.247 161.215 658.085 159.68 656.268 157.612C654.45 155.481 653.542 152.63 653.542 149.058C653.542 146.05 654.356 143.324 655.986 140.88C657.678 138.373 660.122 136.399 663.318 134.958C666.576 133.517 670.43 132.796 674.88 132.796C681.46 132.796 686.63 134.425 690.39 137.684C694.212 140.943 696.406 145.267 696.97 150.656H682.118C681.867 148.839 681.052 147.397 679.674 146.332C678.358 145.267 676.603 144.734 674.41 144.734C672.53 144.734 671.088 145.11 670.086 145.862C669.083 146.551 668.582 147.523 668.582 148.776C668.582 150.28 669.365 151.408 670.932 152.16C672.561 152.912 675.068 153.664 678.452 154.416C682.337 155.419 685.502 156.421 687.946 157.424C690.39 158.364 692.52 159.931 694.338 162.124C696.218 164.255 697.189 167.137 697.252 170.772C697.252 173.843 696.374 176.6 694.62 179.044C692.928 181.425 690.452 183.305 687.194 184.684C683.998 186.063 680.269 186.752 676.008 186.752Z" fill="white"/>
<path d="M141.902 1007.01V1073H125.828V1007.01H141.902ZM150.355 1046.68C150.355 1041.29 151.357 1036.56 153.363 1032.49C155.431 1028.41 158.219 1025.28 161.729 1023.09C165.238 1020.89 169.155 1019.8 173.479 1019.8C176.925 1019.8 180.059 1020.52 182.879 1021.96C185.761 1023.4 188.017 1025.34 189.647 1027.79V1003.44H205.721V1073H189.647V1065.48C188.143 1067.99 185.981 1069.99 183.161 1071.5C180.403 1073 177.176 1073.75 173.479 1073.75C169.155 1073.75 165.238 1072.66 161.729 1070.46C158.219 1068.21 155.431 1065.04 153.363 1060.97C151.357 1056.83 150.355 1052.07 150.355 1046.68ZM189.647 1046.77C189.647 1042.76 188.519 1039.6 186.263 1037.28C184.069 1034.96 181.375 1033.8 178.179 1033.8C174.983 1033.8 172.257 1034.96 170.001 1037.28C167.807 1039.54 166.711 1042.67 166.711 1046.68C166.711 1050.69 167.807 1053.89 170.001 1056.27C172.257 1058.59 174.983 1059.75 178.179 1059.75C181.375 1059.75 184.069 1058.59 186.263 1056.27C188.519 1053.95 189.647 1050.78 189.647 1046.77ZM225.433 1015.1C222.613 1015.1 220.295 1014.28 218.477 1012.65C216.723 1010.96 215.845 1008.89 215.845 1006.45C215.845 1003.94 216.723 1001.87 218.477 1000.24C220.295 998.552 222.613 997.706 225.433 997.706C228.191 997.706 230.447 998.552 232.201 1000.24C234.019 1001.87 234.927 1003.94 234.927 1006.45C234.927 1008.89 234.019 1010.96 232.201 1012.65C230.447 1014.28 228.191 1015.1 225.433 1015.1ZM233.423 1020.55V1073H217.349V1020.55H233.423ZM268.948 1073.75C263.809 1073.75 259.172 1072.66 255.036 1070.46C250.963 1068.27 247.735 1065.14 245.354 1061.06C243.035 1056.99 241.876 1052.23 241.876 1046.77C241.876 1041.38 243.067 1036.65 245.448 1032.58C247.829 1028.44 251.088 1025.28 255.224 1023.09C259.36 1020.89 263.997 1019.8 269.136 1019.8C274.275 1019.8 278.912 1020.89 283.048 1023.09C287.184 1025.28 290.443 1028.44 292.824 1032.58C295.205 1036.65 296.396 1041.38 296.396 1046.77C296.396 1052.16 295.174 1056.93 292.73 1061.06C290.349 1065.14 287.059 1068.27 282.86 1070.46C278.724 1072.66 274.087 1073.75 268.948 1073.75ZM268.948 1059.84C272.019 1059.84 274.619 1058.71 276.75 1056.46C278.943 1054.2 280.04 1050.97 280.04 1046.77C280.04 1042.58 278.975 1039.35 276.844 1037.09C274.776 1034.84 272.207 1033.71 269.136 1033.71C266.003 1033.71 263.402 1034.84 261.334 1037.09C259.266 1039.29 258.232 1042.51 258.232 1046.77C258.232 1050.97 259.235 1054.2 261.24 1056.46C263.308 1058.71 265.877 1059.84 268.948 1059.84ZM371.852 1019.98C378.369 1019.98 383.539 1021.96 387.362 1025.91C391.247 1029.85 393.19 1035.34 393.19 1042.36V1073H377.21V1044.52C377.21 1041.13 376.301 1038.53 374.484 1036.72C372.729 1034.84 370.285 1033.9 367.152 1033.9C364.018 1033.9 361.543 1034.84 359.726 1036.72C357.971 1038.53 357.094 1041.13 357.094 1044.52V1073H341.114V1044.52C341.114 1041.13 340.205 1038.53 338.388 1036.72C336.633 1034.84 334.189 1033.9 331.056 1033.9C327.922 1033.9 325.447 1034.84 323.63 1036.72C321.875 1038.53 320.998 1041.13 320.998 1044.52V1073H304.924V1020.55H320.998V1027.13C322.627 1024.93 324.758 1023.21 327.39 1021.96C330.022 1020.64 332.998 1019.98 336.32 1019.98C340.268 1019.98 343.777 1020.83 346.848 1022.52C349.981 1024.21 352.425 1026.63 354.18 1029.76C355.997 1026.88 358.472 1024.53 361.606 1022.71C364.739 1020.89 368.154 1019.98 371.852 1019.98ZM401.236 1046.68C401.236 1041.29 402.238 1036.56 404.244 1032.49C406.312 1028.41 409.1 1025.28 412.61 1023.09C416.119 1020.89 420.036 1019.8 424.36 1019.8C428.057 1019.8 431.284 1020.55 434.042 1022.05C436.862 1023.56 439.024 1025.53 440.528 1027.97V1020.55H456.602V1073H440.528V1065.57C438.961 1068.02 436.768 1069.99 433.948 1071.5C431.19 1073 427.963 1073.75 424.266 1073.75C420.004 1073.75 416.119 1072.66 412.61 1070.46C409.1 1068.21 406.312 1065.04 404.244 1060.97C402.238 1056.83 401.236 1052.07 401.236 1046.68ZM440.528 1046.77C440.528 1042.76 439.4 1039.6 437.144 1037.28C434.95 1034.96 432.256 1033.8 429.06 1033.8C425.864 1033.8 423.138 1034.96 420.882 1037.28C418.688 1039.54 417.592 1042.67 417.592 1046.68C417.592 1050.69 418.688 1053.89 420.882 1056.27C423.138 1058.59 425.864 1059.75 429.06 1059.75C432.256 1059.75 434.95 1058.59 437.144 1056.27C439.4 1053.95 440.528 1050.78 440.528 1046.77ZM489.568 1073.75C484.994 1073.75 480.92 1072.97 477.348 1071.4C473.776 1069.84 470.956 1067.7 468.888 1065.01C466.82 1062.25 465.661 1059.18 465.41 1055.8H481.296C481.484 1057.62 482.33 1059.09 483.834 1060.22C485.338 1061.34 487.187 1061.91 489.38 1061.91C491.386 1061.91 492.921 1061.53 493.986 1060.78C495.114 1059.97 495.678 1058.93 495.678 1057.68C495.678 1056.17 494.895 1055.08 493.328 1054.39C491.762 1053.64 489.224 1052.82 485.714 1051.94C481.954 1051.07 478.821 1050.16 476.314 1049.22C473.808 1048.22 471.646 1046.68 469.828 1044.61C468.011 1042.48 467.102 1039.63 467.102 1036.06C467.102 1033.05 467.917 1030.32 469.546 1027.88C471.238 1025.37 473.682 1023.4 476.878 1021.96C480.137 1020.52 483.991 1019.8 488.44 1019.8C495.02 1019.8 500.19 1021.43 503.95 1024.68C507.773 1027.94 509.966 1032.27 510.53 1037.66H495.678C495.428 1035.84 494.613 1034.4 493.234 1033.33C491.918 1032.27 490.164 1031.73 487.97 1031.73C486.09 1031.73 484.649 1032.11 483.646 1032.86C482.644 1033.55 482.142 1034.52 482.142 1035.78C482.142 1037.28 482.926 1038.41 484.492 1039.16C486.122 1039.91 488.628 1040.66 492.012 1041.42C495.898 1042.42 499.062 1043.42 501.506 1044.42C503.95 1045.36 506.081 1046.93 507.898 1049.12C509.778 1051.25 510.75 1054.14 510.812 1057.77C510.812 1060.84 509.935 1063.6 508.18 1066.04C506.488 1068.43 504.013 1070.31 500.754 1071.68C497.558 1073.06 493.83 1073.75 489.568 1073.75Z" fill="white"/>
<path d="M188.16 283.304V317H179.952V303.128H167.184V317H158.976V283.304H167.184V296.504H179.952V283.304H188.16ZM218.325 283.304V289.88H209.397V317H201.189V289.88H192.261V283.304H218.325ZM260.605 283.304V317H252.397V296.792L244.861 317H238.237L230.653 296.744V317H222.445V283.304H232.141L241.597 306.632L250.957 283.304H260.605ZM274.715 310.664H285.467V317H266.507V283.304H274.715V310.664Z" fill="#EEEEEE"/>
<rect x="127" y="283" width="13" height="34" fill="#E20707"/>
<path d="M167.184 1170.3V1204H158.976V1170.3H167.184ZM189.452 1176.93C192.588 1176.93 195.084 1177.95 196.94 1180C198.828 1182.02 199.772 1184.8 199.772 1188.35V1204H191.612V1189.46C191.612 1187.66 191.148 1186.27 190.22 1185.28C189.292 1184.29 188.044 1183.79 186.476 1183.79C184.908 1183.79 183.66 1184.29 182.732 1185.28C181.804 1186.27 181.34 1187.66 181.34 1189.46V1204H173.132V1177.22H181.34V1180.77C182.172 1179.58 183.292 1178.66 184.7 1177.98C186.108 1177.28 187.692 1176.93 189.452 1176.93ZM215.652 1176.83C217.54 1176.83 219.188 1177.22 220.596 1177.98C222.036 1178.75 223.14 1179.76 223.908 1181.01V1177.22H232.116V1203.95C232.116 1206.42 231.62 1208.64 230.628 1210.62C229.668 1212.64 228.18 1214.24 226.164 1215.42C224.18 1216.61 221.7 1217.2 218.724 1217.2C214.756 1217.2 211.54 1216.26 209.076 1214.37C206.612 1212.51 205.204 1209.98 204.852 1206.78H212.964C213.22 1207.81 213.828 1208.61 214.788 1209.18C215.748 1209.79 216.932 1210.1 218.34 1210.1C220.036 1210.1 221.38 1209.6 222.372 1208.61C223.396 1207.65 223.908 1206.1 223.908 1203.95V1200.16C223.108 1201.41 222.004 1202.43 220.596 1203.23C219.188 1204 217.54 1204.38 215.652 1204.38C213.444 1204.38 211.444 1203.82 209.652 1202.7C207.86 1201.55 206.436 1199.94 205.38 1197.86C204.356 1195.74 203.844 1193.31 203.844 1190.56C203.844 1187.81 204.356 1185.39 205.38 1183.31C206.436 1181.23 207.86 1179.63 209.652 1178.51C211.444 1177.39 213.444 1176.83 215.652 1176.83ZM223.908 1190.61C223.908 1188.56 223.332 1186.94 222.18 1185.76C221.06 1184.58 219.684 1183.98 218.052 1183.98C216.42 1183.98 215.028 1184.58 213.876 1185.76C212.756 1186.91 212.196 1188.51 212.196 1190.56C212.196 1192.61 212.756 1194.24 213.876 1195.46C215.028 1196.64 216.42 1197.23 218.052 1197.23C219.684 1197.23 221.06 1196.64 222.18 1195.46C223.332 1194.27 223.908 1192.66 223.908 1190.61ZM246.262 1168.48V1204H238.054V1168.48H246.262ZM277.458 1190.18C277.458 1190.94 277.41 1191.74 277.314 1192.58H258.738C258.866 1194.24 259.394 1195.52 260.322 1196.42C261.282 1197.28 262.45 1197.71 263.826 1197.71C265.874 1197.71 267.298 1196.85 268.098 1195.12H276.834C276.386 1196.88 275.57 1198.46 274.386 1199.87C273.234 1201.28 271.778 1202.38 270.018 1203.18C268.258 1203.98 266.29 1204.38 264.114 1204.38C261.49 1204.38 259.154 1203.82 257.106 1202.7C255.058 1201.58 253.458 1199.98 252.306 1197.9C251.154 1195.82 250.578 1193.39 250.578 1190.61C250.578 1187.82 251.138 1185.39 252.258 1183.31C253.41 1181.23 255.01 1179.63 257.058 1178.51C259.106 1177.39 261.458 1176.83 264.114 1176.83C266.706 1176.83 269.01 1177.38 271.026 1178.46C273.042 1179.55 274.61 1181.1 275.73 1183.12C276.882 1185.14 277.458 1187.49 277.458 1190.18ZM269.058 1188.02C269.058 1186.61 268.578 1185.49 267.618 1184.66C266.658 1183.82 265.458 1183.41 264.018 1183.41C262.642 1183.41 261.474 1183.81 260.514 1184.61C259.586 1185.41 259.01 1186.54 258.786 1188.02H269.058ZM264.018 1171.26L256.578 1175.2V1169.54L264.018 1165.74L271.458 1169.54V1175.2L264.018 1171.26ZM292.685 1204.38C290.349 1204.38 288.269 1203.98 286.445 1203.18C284.621 1202.38 283.181 1201.3 282.125 1199.92C281.069 1198.51 280.477 1196.94 280.349 1195.22H288.461C288.557 1196.14 288.989 1196.9 289.757 1197.47C290.525 1198.05 291.469 1198.34 292.589 1198.34C293.613 1198.34 294.397 1198.14 294.941 1197.76C295.517 1197.34 295.805 1196.82 295.805 1196.18C295.805 1195.41 295.405 1194.85 294.605 1194.5C293.805 1194.11 292.509 1193.7 290.717 1193.25C288.797 1192.8 287.197 1192.34 285.917 1191.86C284.637 1191.34 283.533 1190.56 282.605 1189.5C281.677 1188.42 281.213 1186.96 281.213 1185.14C281.213 1183.6 281.629 1182.21 282.461 1180.96C283.325 1179.68 284.573 1178.67 286.205 1177.94C287.869 1177.2 289.837 1176.83 292.109 1176.83C295.469 1176.83 298.109 1177.66 300.029 1179.33C301.981 1180.99 303.101 1183.2 303.389 1185.95H295.805C295.677 1185.02 295.261 1184.29 294.557 1183.74C293.885 1183.2 292.989 1182.93 291.869 1182.93C290.909 1182.93 290.173 1183.12 289.661 1183.5C289.149 1183.86 288.893 1184.35 288.893 1184.99C288.893 1185.76 289.293 1186.34 290.093 1186.72C290.925 1187.1 292.205 1187.49 293.933 1187.87C295.917 1188.38 297.533 1188.9 298.781 1189.41C300.029 1189.89 301.117 1190.69 302.045 1191.81C303.005 1192.9 303.501 1194.37 303.533 1196.22C303.533 1197.79 303.085 1199.2 302.189 1200.45C301.325 1201.66 300.061 1202.62 298.397 1203.33C296.765 1204.03 294.861 1204.38 292.685 1204.38ZM317.094 1190.56C317.094 1187.81 317.606 1185.39 318.63 1183.31C319.686 1181.23 321.11 1179.63 322.902 1178.51C324.694 1177.39 326.694 1176.83 328.902 1176.83C330.79 1176.83 332.438 1177.22 333.846 1177.98C335.286 1178.75 336.39 1179.76 337.158 1181.01V1177.22H345.366V1204H337.158V1200.21C336.358 1201.46 335.238 1202.46 333.798 1203.23C332.39 1204 330.742 1204.38 328.854 1204.38C326.678 1204.38 324.694 1203.82 322.902 1202.7C321.11 1201.55 319.686 1199.94 318.63 1197.86C317.606 1195.74 317.094 1193.31 317.094 1190.56ZM337.158 1190.61C337.158 1188.56 336.582 1186.94 335.43 1185.76C334.31 1184.58 332.934 1183.98 331.302 1183.98C329.67 1183.98 328.278 1184.58 327.126 1185.76C326.006 1186.91 325.446 1188.51 325.446 1190.56C325.446 1192.61 326.006 1194.24 327.126 1195.46C328.278 1196.64 329.67 1197.23 331.302 1197.23C332.934 1197.23 334.31 1196.64 335.43 1195.46C336.582 1194.27 337.158 1192.66 337.158 1190.61ZM363.352 1196.32L369.16 1177.22H377.896L368.392 1204H358.264L348.76 1177.22H357.544L363.352 1196.32ZM379.719 1190.56C379.719 1187.81 380.231 1185.39 381.255 1183.31C382.311 1181.23 383.735 1179.63 385.527 1178.51C387.319 1177.39 389.319 1176.83 391.527 1176.83C393.415 1176.83 395.063 1177.22 396.471 1177.98C397.911 1178.75 399.015 1179.76 399.783 1181.01V1177.22H407.991V1204H399.783V1200.21C398.983 1201.46 397.863 1202.46 396.423 1203.23C395.015 1204 393.367 1204.38 391.479 1204.38C389.303 1204.38 387.319 1203.82 385.527 1202.7C383.735 1201.55 382.311 1199.94 381.255 1197.86C380.231 1195.74 379.719 1193.31 379.719 1190.56ZM399.783 1190.61C399.783 1188.56 399.207 1186.94 398.055 1185.76C396.935 1184.58 395.559 1183.98 393.927 1183.98C392.295 1183.98 390.903 1184.58 389.751 1185.76C388.631 1186.91 388.071 1188.51 388.071 1190.56C388.071 1192.61 388.631 1194.24 389.751 1195.46C390.903 1196.64 392.295 1197.23 393.927 1197.23C395.559 1197.23 396.935 1196.64 398.055 1195.46C399.207 1194.27 399.783 1192.66 399.783 1190.61ZM430.249 1176.93C433.385 1176.93 435.881 1177.95 437.737 1180C439.625 1182.02 440.569 1184.8 440.569 1188.35V1204H432.409V1189.46C432.409 1187.66 431.945 1186.27 431.017 1185.28C430.089 1184.29 428.841 1183.79 427.273 1183.79C425.705 1183.79 424.457 1184.29 423.529 1185.28C422.601 1186.27 422.137 1187.66 422.137 1189.46V1204H413.929V1177.22H422.137V1180.77C422.969 1179.58 424.089 1178.66 425.497 1177.98C426.905 1177.28 428.489 1176.93 430.249 1176.93ZM457.937 1197.38C460.049 1197.38 461.473 1196.35 462.209 1194.3H470.945C470.337 1197.02 469.121 1199.25 467.297 1200.98C465.473 1202.7 463.201 1203.78 460.481 1204.19V1205.97C462.145 1205.97 463.601 1206.42 464.849 1207.31C466.097 1208.24 466.721 1209.62 466.721 1211.44C466.721 1213.26 466.065 1214.64 464.753 1215.57C463.441 1216.53 461.873 1217.01 460.049 1217.01H452.657V1212.5H458.945C459.585 1212.5 460.065 1212.4 460.385 1212.21C460.705 1212.02 460.865 1211.7 460.865 1211.25C460.865 1210.8 460.705 1210.48 460.385 1210.29C460.065 1210.13 459.585 1210.05 458.945 1210.05H455.537V1204.19C452.241 1203.68 449.601 1202.22 447.617 1199.82C445.633 1197.39 444.641 1194.32 444.641 1190.61C444.641 1187.82 445.201 1185.39 446.321 1183.31C447.473 1181.23 449.057 1179.63 451.073 1178.51C453.121 1177.39 455.457 1176.83 458.081 1176.83C461.441 1176.83 464.241 1177.71 466.481 1179.47C468.753 1181.23 470.241 1183.71 470.945 1186.91H462.209C461.473 1184.86 460.049 1183.84 457.937 1183.84C456.433 1183.84 455.233 1184.43 454.337 1185.62C453.441 1186.77 452.993 1188.43 452.993 1190.61C452.993 1192.78 453.441 1194.46 454.337 1195.65C455.233 1196.8 456.433 1197.38 457.937 1197.38ZM473.703 1190.56C473.703 1187.81 474.215 1185.39 475.239 1183.31C476.295 1181.23 477.719 1179.63 479.511 1178.51C481.303 1177.39 483.303 1176.83 485.511 1176.83C487.399 1176.83 489.047 1177.22 490.455 1177.98C491.895 1178.75 492.999 1179.76 493.767 1181.01V1177.22H501.975V1204H493.767V1200.21C492.967 1201.46 491.847 1202.46 490.407 1203.23C488.999 1204 487.351 1204.38 485.463 1204.38C483.287 1204.38 481.303 1203.82 479.511 1202.7C477.719 1201.55 476.295 1199.94 475.239 1197.86C474.215 1195.74 473.703 1193.31 473.703 1190.56ZM493.767 1190.61C493.767 1188.56 493.191 1186.94 492.039 1185.76C490.919 1184.58 489.543 1183.98 487.911 1183.98C486.279 1183.98 484.887 1184.58 483.735 1185.76C482.615 1186.91 482.055 1188.51 482.055 1190.56C482.055 1192.61 482.615 1194.24 483.735 1195.46C484.887 1196.64 486.279 1197.23 487.911 1197.23C489.543 1197.23 490.919 1196.64 492.039 1195.46C493.191 1194.27 493.767 1192.66 493.767 1190.61ZM506.282 1190.56C506.282 1187.81 506.794 1185.39 507.818 1183.31C508.874 1181.23 510.298 1179.63 512.09 1178.51C513.882 1177.39 515.882 1176.83 518.09 1176.83C519.85 1176.83 521.45 1177.2 522.89 1177.94C524.362 1178.67 525.514 1179.66 526.346 1180.91V1168.48H534.554V1204H526.346V1200.16C525.578 1201.44 524.474 1202.46 523.034 1203.23C521.626 1204 519.978 1204.38 518.09 1204.38C515.882 1204.38 513.882 1203.82 512.09 1202.7C510.298 1201.55 508.874 1199.94 507.818 1197.86C506.794 1195.74 506.282 1193.31 506.282 1190.56ZM526.346 1190.61C526.346 1188.56 525.77 1186.94 524.618 1185.76C523.498 1184.58 522.122 1183.98 520.49 1183.98C518.858 1183.98 517.466 1184.58 516.314 1185.76C515.194 1186.91 514.634 1188.51 514.634 1190.56C514.634 1192.61 515.194 1194.24 516.314 1195.46C517.466 1196.64 518.858 1197.23 520.49 1197.23C522.122 1197.23 523.498 1196.64 524.618 1195.46C525.77 1194.27 526.346 1192.66 526.346 1190.61ZM552.684 1204.38C550.06 1204.38 547.692 1203.82 545.58 1202.7C543.5 1201.58 541.852 1199.98 540.636 1197.9C539.452 1195.82 538.86 1193.39 538.86 1190.61C538.86 1187.86 539.468 1185.44 540.684 1183.36C541.9 1181.25 543.564 1179.63 545.676 1178.51C547.788 1177.39 550.156 1176.83 552.78 1176.83C555.404 1176.83 557.772 1177.39 559.884 1178.51C561.996 1179.63 563.66 1181.25 564.876 1183.36C566.092 1185.44 566.7 1187.86 566.7 1190.61C566.7 1193.36 566.076 1195.79 564.828 1197.9C563.612 1199.98 561.932 1201.58 559.788 1202.7C557.676 1203.82 555.308 1204.38 552.684 1204.38ZM552.684 1197.28C554.252 1197.28 555.58 1196.7 556.668 1195.55C557.788 1194.4 558.348 1192.75 558.348 1190.61C558.348 1188.46 557.804 1186.82 556.716 1185.66C555.66 1184.51 554.348 1183.94 552.78 1183.94C551.18 1183.94 549.852 1184.51 548.796 1185.66C547.74 1186.78 547.212 1188.43 547.212 1190.61C547.212 1192.75 547.724 1194.4 548.748 1195.55C549.804 1196.7 551.116 1197.28 552.684 1197.28Z" fill="#EEEEEE"/>
<rect x="127" y="1170" width="13" height="34" fill="#E20707"/>
<path d="M157.584 408.104C157.584 404.776 158.304 401.816 159.744 399.224C161.184 396.6 163.184 394.568 165.744 393.128C168.336 391.656 171.264 390.92 174.528 390.92C178.528 390.92 181.952 391.976 184.8 394.088C187.648 396.2 189.552 399.08 190.512 402.728H181.488C180.816 401.32 179.856 400.248 178.608 399.512C177.392 398.776 176 398.408 174.432 398.408C171.904 398.408 169.856 399.288 168.288 401.048C166.72 402.808 165.936 405.16 165.936 408.104C165.936 411.048 166.72 413.4 168.288 415.16C169.856 416.92 171.904 417.8 174.432 417.8C176 417.8 177.392 417.432 178.608 416.696C179.856 415.96 180.816 414.888 181.488 413.48H190.512C189.552 417.128 187.648 420.008 184.8 422.12C181.952 424.2 178.528 425.24 174.528 425.24C171.264 425.24 168.336 424.52 165.744 423.08C163.184 421.608 161.184 419.576 159.744 416.984C158.304 414.392 157.584 411.432 157.584 408.104ZM207.731 425.336C205.267 425.336 203.059 424.936 201.107 424.136C199.155 423.336 197.587 422.152 196.403 420.584C195.251 419.016 194.643 417.128 194.579 414.92H203.315C203.443 416.168 203.875 417.128 204.611 417.8C205.347 418.44 206.307 418.76 207.491 418.76C208.707 418.76 209.667 418.488 210.371 417.944C211.075 417.368 211.427 416.584 211.427 415.592C211.427 414.76 211.139 414.072 210.563 413.528C210.019 412.984 209.331 412.536 208.499 412.184C207.699 411.832 206.547 411.432 205.043 410.984C202.867 410.312 201.091 409.64 199.715 408.968C198.339 408.296 197.155 407.304 196.163 405.992C195.171 404.68 194.675 402.968 194.675 400.856C194.675 397.72 195.811 395.272 198.083 393.512C200.355 391.72 203.315 390.824 206.963 390.824C210.675 390.824 213.667 391.72 215.939 393.512C218.211 395.272 219.427 397.736 219.587 400.904H210.707C210.643 399.816 210.243 398.968 209.507 398.36C208.771 397.72 207.827 397.4 206.674 397.4C205.683 397.4 204.883 397.672 204.275 398.216C203.667 398.728 203.363 399.48 203.363 400.472C203.363 401.56 203.875 402.408 204.898 403.016C205.923 403.624 207.523 404.28 209.699 404.984C211.875 405.72 213.635 406.424 214.979 407.096C216.355 407.768 217.539 408.744 218.531 410.024C219.523 411.304 220.019 412.952 220.019 414.968C220.019 416.888 219.523 418.632 218.531 420.2C217.571 421.768 216.163 423.016 214.307 423.944C212.451 424.872 210.259 425.336 207.731 425.336ZM237.262 425.336C234.798 425.336 232.59 424.936 230.638 424.136C228.686 423.336 227.118 422.152 225.934 420.584C224.782 419.016 224.174 417.128 224.11 414.92H232.846C232.974 416.168 233.406 417.128 234.142 417.8C234.878 418.44 235.838 418.76 237.022 418.76C238.238 418.76 239.198 418.488 239.902 417.944C240.606 417.368 240.958 416.584 240.958 415.592C240.958 414.76 240.67 414.072 240.094 413.528C239.55 412.984 238.862 412.536 238.03 412.184C237.23 411.832 236.078 411.432 234.574 410.984C232.398 410.312 230.622 409.64 229.246 408.968C227.87 408.296 226.686 407.304 225.694 405.992C224.702 404.68 224.206 402.968 224.206 400.856C224.206 397.72 225.342 395.272 227.614 393.512C229.886 391.72 232.846 390.824 236.494 390.824C240.206 390.824 243.198 391.72 245.47 393.512C247.742 395.272 248.958 397.736 249.118 400.904H240.238C240.174 399.816 239.774 398.968 239.038 398.36C238.302 397.72 237.358 397.4 236.206 397.4C235.214 397.4 234.414 397.672 233.806 398.216C233.198 398.728 232.894 399.48 232.894 400.472C232.894 401.56 233.406 402.408 234.43 403.016C235.454 403.624 237.054 404.28 239.23 404.984C241.406 405.72 243.166 406.424 244.51 407.096C245.886 407.768 247.07 408.744 248.062 410.024C249.054 411.304 249.55 412.952 249.55 414.968C249.55 416.888 249.054 418.632 248.062 420.2C247.102 421.768 245.694 423.016 243.838 423.944C241.982 424.872 239.79 425.336 237.262 425.336Z" fill="#EEEEEE"/>
<rect x="127" y="391" width="13" height="34" fill="#E20707"/>
<path d="M180.096 499.304V522.248C180.096 525.8 179.088 528.536 177.072 530.456C175.088 532.376 172.4 533.336 169.008 533.336C165.456 533.336 162.608 532.328 160.464 530.312C158.32 528.296 157.248 525.432 157.248 521.72H165.408C165.408 523.128 165.696 524.2 166.272 524.936C166.848 525.64 167.68 525.992 168.768 525.992C169.76 525.992 170.528 525.672 171.072 525.032C171.616 524.392 171.888 523.464 171.888 522.248V499.304H180.096ZM185.094 519.56C185.094 516.808 185.606 514.392 186.63 512.312C187.686 510.232 189.11 508.632 190.902 507.512C192.694 506.392 194.694 505.832 196.902 505.832C198.79 505.832 200.438 506.216 201.846 506.984C203.286 507.752 204.39 508.76 205.158 510.008V506.216H213.366V533H205.158V529.208C204.358 530.456 203.238 531.464 201.798 532.232C200.39 533 198.742 533.384 196.854 533.384C194.678 533.384 192.694 532.824 190.902 531.704C189.11 530.552 187.686 528.936 186.63 526.856C185.606 524.744 185.094 522.312 185.094 519.56ZM205.158 519.608C205.158 517.56 204.582 515.944 203.43 514.76C202.31 513.576 200.934 512.984 199.302 512.984C197.67 512.984 196.278 513.576 195.126 514.76C194.006 515.912 193.446 517.512 193.446 519.56C193.446 521.608 194.006 523.24 195.126 524.456C196.278 525.64 197.67 526.232 199.302 526.232C200.934 526.232 202.31 525.64 203.43 524.456C204.582 523.272 205.158 521.656 205.158 519.608ZM231.352 525.32L237.16 506.216H245.896L236.392 533H226.264L216.76 506.216H225.544L231.352 525.32ZM247.719 519.56C247.719 516.808 248.231 514.392 249.255 512.312C250.311 510.232 251.735 508.632 253.527 507.512C255.319 506.392 257.319 505.832 259.527 505.832C261.415 505.832 263.063 506.216 264.471 506.984C265.911 507.752 267.015 508.76 267.783 510.008V506.216H275.991V533H267.783V529.208C266.983 530.456 265.863 531.464 264.423 532.232C263.015 533 261.367 533.384 259.479 533.384C257.303 533.384 255.319 532.824 253.527 531.704C251.735 530.552 250.311 528.936 249.255 526.856C248.231 524.744 247.719 522.312 247.719 519.56ZM267.783 519.608C267.783 517.56 267.207 515.944 266.055 514.76C264.935 513.576 263.559 512.984 261.927 512.984C260.295 512.984 258.903 513.576 257.751 514.76C256.631 515.912 256.071 517.512 256.071 519.56C256.071 521.608 256.631 523.24 257.751 524.456C258.903 525.64 260.295 526.232 261.927 526.232C263.559 526.232 264.935 525.64 266.055 524.456C267.207 523.272 267.783 521.656 267.783 519.608ZM294.121 533.336C291.657 533.336 289.449 532.936 287.497 532.136C285.545 531.336 283.977 530.152 282.793 528.584C281.641 527.016 281.033 525.128 280.969 522.92H289.705C289.833 524.168 290.265 525.128 291.001 525.8C291.737 526.44 292.697 526.76 293.881 526.76C295.097 526.76 296.057 526.488 296.761 525.944C297.465 525.368 297.817 524.584 297.817 523.592C297.817 522.76 297.529 522.072 296.953 521.528C296.409 520.984 295.721 520.536 294.889 520.184C294.089 519.832 292.937 519.432 291.433 518.984C289.257 518.312 287.481 517.64 286.105 516.968C284.729 516.296 283.545 515.304 282.553 513.992C281.561 512.68 281.065 510.968 281.065 508.856C281.065 505.72 282.201 503.272 284.473 501.512C286.745 499.72 289.705 498.824 293.353 498.824C297.065 498.824 300.057 499.72 302.329 501.512C304.601 503.272 305.817 505.736 305.977 508.904H297.097C297.033 507.816 296.633 506.968 295.897 506.36C295.161 505.72 294.217 505.4 293.065 505.4C292.073 505.4 291.273 505.672 290.665 506.216C290.057 506.728 289.753 507.48 289.753 508.472C289.753 509.56 290.265 510.408 291.289 511.016C292.313 511.624 293.913 512.28 296.089 512.984C298.265 513.72 300.025 514.424 301.369 515.096C302.745 515.768 303.929 516.744 304.921 518.024C305.913 519.304 306.409 520.952 306.409 522.968C306.409 524.888 305.913 526.632 304.921 528.2C303.961 529.768 302.553 531.016 300.697 531.944C298.841 532.872 296.649 533.336 294.121 533.336ZM309.828 519.608C309.828 516.824 310.388 514.392 311.508 512.312C312.66 510.232 314.244 508.632 316.26 507.512C318.308 506.392 320.644 505.832 323.268 505.832C326.628 505.832 329.428 506.712 331.668 508.472C333.94 510.232 335.428 512.712 336.132 515.912H327.396C326.66 513.864 325.236 512.84 323.124 512.84C321.62 512.84 320.42 513.432 319.524 514.616C318.628 515.768 318.18 517.432 318.18 519.608C318.18 521.784 318.628 523.464 319.524 524.648C320.42 525.8 321.62 526.376 323.124 526.376C325.236 526.376 326.66 525.352 327.396 523.304H336.132C335.428 526.44 333.94 528.904 331.668 530.696C329.396 532.488 326.596 533.384 323.268 533.384C320.644 533.384 318.308 532.824 316.26 531.704C314.244 530.584 312.66 528.984 311.508 526.904C310.388 524.824 309.828 522.392 309.828 519.608ZM348.731 510.68C349.691 509.208 350.891 508.056 352.331 507.224C353.771 506.36 355.371 505.928 357.131 505.928V514.616H354.875C352.827 514.616 351.291 515.064 350.267 515.96C349.243 516.824 348.731 518.36 348.731 520.568V533H340.523V506.216H348.731V510.68ZM365.182 503.432C363.742 503.432 362.558 503.016 361.63 502.184C360.734 501.32 360.286 500.264 360.286 499.016C360.286 497.736 360.734 496.68 361.63 495.848C362.558 494.984 363.742 494.552 365.182 494.552C366.59 494.552 367.742 494.984 368.638 495.848C369.566 496.68 370.03 497.736 370.03 499.016C370.03 500.264 369.566 501.32 368.638 502.184C367.742 503.016 366.59 503.432 365.182 503.432ZM369.262 506.216V533H361.054V506.216H369.262ZM383.418 510.008C384.218 508.76 385.322 507.752 386.73 506.984C388.138 506.216 389.786 505.832 391.674 505.832C393.882 505.832 395.882 506.392 397.674 507.512C399.466 508.632 400.874 510.232 401.898 512.312C402.954 514.392 403.482 516.808 403.482 519.56C403.482 522.312 402.954 524.744 401.898 526.856C400.874 528.936 399.466 530.552 397.674 531.704C395.882 532.824 393.882 533.384 391.674 533.384C389.818 533.384 388.17 533 386.73 532.232C385.322 531.464 384.218 530.472 383.418 529.256V545.768H375.21V506.216H383.418V510.008ZM395.13 519.56C395.13 517.512 394.554 515.912 393.402 514.76C392.282 513.576 390.89 512.984 389.226 512.984C387.594 512.984 386.202 513.576 385.05 514.76C383.93 515.944 383.37 517.56 383.37 519.608C383.37 521.656 383.93 523.272 385.05 524.456C386.202 525.64 387.594 526.232 389.226 526.232C390.858 526.232 392.25 525.64 393.402 524.456C394.554 523.24 395.13 521.608 395.13 519.56ZM422.717 526.04V533H418.541C415.565 533 413.245 532.28 411.581 530.84C409.917 529.368 409.085 526.984 409.085 523.688V513.032H405.821V506.216H409.085V499.688H417.293V506.216H422.669V513.032H417.293V523.784C417.293 524.584 417.485 525.16 417.869 525.512C418.253 525.864 418.893 526.04 419.789 526.04H422.717Z" fill="#EEEEEE"/>
<rect x="127" y="499" width="13" height="34" fill="#E20707"/>
<path d="M176.16 641L169.152 628.28H167.184V641H158.976V607.304H172.752C175.408 607.304 177.664 607.768 179.52 608.696C181.408 609.624 182.816 610.904 183.744 612.536C184.672 614.136 185.136 615.928 185.136 617.912C185.136 620.152 184.496 622.152 183.216 623.912C181.968 625.672 180.112 626.92 177.648 627.656L185.424 641H176.16ZM167.184 622.472H172.272C173.776 622.472 174.896 622.104 175.632 621.368C176.4 620.632 176.784 619.592 176.784 618.248C176.784 616.968 176.4 615.96 175.632 615.224C174.896 614.488 173.776 614.12 172.272 614.12H167.184V622.472ZM215.536 627.176C215.536 627.944 215.489 628.744 215.393 629.576H196.817C196.945 631.24 197.473 632.52 198.401 633.416C199.361 634.28 200.529 634.712 201.905 634.712C203.953 634.712 205.377 633.848 206.177 632.12H214.913C214.465 633.88 213.649 635.464 212.465 636.872C211.313 638.28 209.857 639.384 208.097 640.184C206.337 640.984 204.369 641.384 202.193 641.384C199.569 641.384 197.233 640.824 195.185 639.704C193.137 638.584 191.537 636.984 190.385 634.904C189.233 632.824 188.657 630.392 188.657 627.608C188.657 624.824 189.217 622.392 190.337 620.312C191.489 618.232 193.089 616.632 195.137 615.512C197.185 614.392 199.537 613.832 202.193 613.832C204.785 613.832 207.089 614.376 209.105 615.464C211.121 616.552 212.689 618.104 213.809 620.12C214.961 622.136 215.536 624.488 215.536 627.176ZM207.137 625.016C207.137 623.608 206.657 622.488 205.697 621.656C204.737 620.824 203.537 620.408 202.097 620.408C200.721 620.408 199.553 620.808 198.593 621.608C197.665 622.408 197.089 623.544 196.865 625.016H207.137ZM218.235 627.56C218.235 624.808 218.747 622.392 219.771 620.312C220.827 618.232 222.251 616.632 224.043 615.512C225.835 614.392 227.835 613.832 230.043 613.832C231.931 613.832 233.579 614.216 234.987 614.984C236.427 615.752 237.531 616.76 238.299 618.008V614.216H246.507V641H238.299V637.208C237.499 638.456 236.379 639.464 234.939 640.232C233.531 641 231.883 641.384 229.995 641.384C227.819 641.384 225.835 640.824 224.043 639.704C222.251 638.552 220.827 636.936 219.771 634.856C218.747 632.744 218.235 630.312 218.235 627.56ZM238.299 627.608C238.299 625.56 237.723 623.944 236.571 622.76C235.451 621.576 234.075 620.984 232.443 620.984C230.811 620.984 229.419 621.576 228.267 622.76C227.147 623.912 226.587 625.512 226.587 627.56C226.587 629.608 227.147 631.24 228.267 632.456C229.419 633.64 230.811 634.232 232.443 634.232C234.075 634.232 235.451 633.64 236.571 632.456C237.723 631.272 238.299 629.656 238.299 627.608ZM250.813 627.608C250.813 624.824 251.373 622.392 252.493 620.312C253.645 618.232 255.229 616.632 257.245 615.512C259.293 614.392 261.629 613.832 264.253 613.832C267.613 613.832 270.413 614.712 272.653 616.472C274.925 618.232 276.413 620.712 277.117 623.912H268.381C267.645 621.864 266.221 620.84 264.109 620.84C262.605 620.84 261.405 621.432 260.509 622.616C259.613 623.768 259.165 625.432 259.165 627.608C259.165 629.784 259.613 631.464 260.509 632.648C261.405 633.8 262.605 634.376 264.109 634.376C266.221 634.376 267.645 633.352 268.381 631.304H277.117C276.413 634.44 274.925 636.904 272.653 638.696C270.381 640.488 267.581 641.384 264.253 641.384C261.629 641.384 259.293 640.824 257.245 639.704C255.229 638.584 253.645 636.984 252.493 634.904C251.373 632.824 250.813 630.392 250.813 627.608ZM296.435 634.04V641H292.259C289.283 641 286.963 640.28 285.299 638.84C283.635 637.368 282.803 634.984 282.803 631.688V621.032H279.539V614.216H282.803V607.688H291.011V614.216H296.387V621.032H291.011V631.784C291.011 632.584 291.203 633.16 291.587 633.512C291.971 633.864 292.611 634.04 293.507 634.04H296.435Z" fill="#EEEEEE"/>
<rect x="127" y="607" width="13" height="34" fill="#E20707"/>
<path d="M176.16 749L169.152 736.28H167.184V749H158.976V715.304H172.752C175.408 715.304 177.664 715.768 179.52 716.696C181.408 717.624 182.816 718.904 183.744 720.536C184.672 722.136 185.136 723.928 185.136 725.912C185.136 728.152 184.496 730.152 183.216 731.912C181.968 733.672 180.112 734.92 177.648 735.656L185.424 749H176.16ZM167.184 730.472H172.272C173.776 730.472 174.896 730.104 175.632 729.368C176.4 728.632 176.784 727.592 176.784 726.248C176.784 724.968 176.4 723.96 175.632 723.224C174.896 722.488 173.776 722.12 172.272 722.12H167.184V730.472ZM215.536 735.176C215.536 735.944 215.489 736.744 215.393 737.576H196.817C196.945 739.24 197.473 740.52 198.401 741.416C199.361 742.28 200.529 742.712 201.905 742.712C203.953 742.712 205.377 741.848 206.177 740.12H214.913C214.465 741.88 213.649 743.464 212.465 744.872C211.313 746.28 209.857 747.384 208.097 748.184C206.337 748.984 204.369 749.384 202.193 749.384C199.569 749.384 197.233 748.824 195.185 747.704C193.137 746.584 191.537 744.984 190.385 742.904C189.233 740.824 188.657 738.392 188.657 735.608C188.657 732.824 189.217 730.392 190.337 728.312C191.489 726.232 193.089 724.632 195.137 723.512C197.185 722.392 199.537 721.832 202.193 721.832C204.785 721.832 207.089 722.376 209.105 723.464C211.121 724.552 212.689 726.104 213.809 728.12C214.961 730.136 215.536 732.488 215.536 735.176ZM207.137 733.016C207.137 731.608 206.657 730.488 205.697 729.656C204.737 728.824 203.537 728.408 202.097 728.408C200.721 728.408 199.553 728.808 198.593 729.608C197.665 730.408 197.089 731.544 196.865 733.016H207.137ZM218.235 735.56C218.235 732.808 218.747 730.392 219.771 728.312C220.827 726.232 222.251 724.632 224.043 723.512C225.835 722.392 227.835 721.832 230.043 721.832C231.803 721.832 233.403 722.2 234.843 722.936C236.315 723.672 237.467 724.664 238.299 725.912V713.48H246.507V749H238.299V745.16C237.531 746.44 236.427 747.464 234.987 748.232C233.579 749 231.931 749.384 230.043 749.384C227.835 749.384 225.835 748.824 224.043 747.704C222.251 746.552 220.827 744.936 219.771 742.856C218.747 740.744 218.235 738.312 218.235 735.56ZM238.299 735.608C238.299 733.56 237.723 731.944 236.571 730.76C235.451 729.576 234.075 728.984 232.443 728.984C230.811 728.984 229.419 729.576 228.267 730.76C227.147 731.912 226.587 733.512 226.587 735.56C226.587 737.608 227.147 739.24 228.267 740.456C229.419 741.64 230.811 742.232 232.443 742.232C234.075 742.232 235.451 741.64 236.571 740.456C237.723 739.272 238.299 737.656 238.299 735.608ZM278.893 722.216V749H270.685V745.352C269.853 746.536 268.717 747.496 267.277 748.232C265.869 748.936 264.301 749.288 262.573 749.288C260.525 749.288 258.717 748.84 257.149 747.944C255.581 747.016 254.365 745.688 253.501 743.96C252.637 742.232 252.205 740.2 252.205 737.864V722.216H260.365V736.76C260.365 738.552 260.829 739.944 261.757 740.936C262.685 741.928 263.933 742.424 265.501 742.424C267.101 742.424 268.365 741.928 269.293 740.936C270.221 739.944 270.685 738.552 270.685 736.76V722.216H278.893ZM300.629 749L295.493 741.56L291.173 749H282.293L291.125 735.32L282.053 722.216H291.269L296.405 729.608L300.725 722.216H309.605L300.629 735.704L309.845 749H300.629Z" fill="#EEEEEE"/>
<rect x="127" y="715" width="13" height="34" fill="#E20707"/>
<path d="M640.04 283.304V303.464C640.04 305.48 640.536 307.032 641.528 308.12C642.52 309.208 643.976 309.752 645.896 309.752C647.816 309.752 649.288 309.208 650.312 308.12C651.336 307.032 651.848 305.48 651.848 303.464V283.304H660.056V303.416C660.056 306.424 659.416 308.968 658.136 311.048C656.856 313.128 655.128 314.696 652.952 315.752C650.808 316.808 648.408 317.336 645.752 317.336C643.096 317.336 640.712 316.824 638.6 315.8C636.52 314.744 634.872 313.176 633.656 311.096C632.44 308.984 631.832 306.424 631.832 303.416V283.304H640.04ZM674.028 283.304V317H665.82V283.304H674.028ZM698.264 271.4L685.4 325.976H677.48L690.344 271.4H698.264ZM709.79 283.304V303.464C709.79 305.48 710.286 307.032 711.278 308.12C712.27 309.208 713.726 309.752 715.646 309.752C717.566 309.752 719.038 309.208 720.062 308.12C721.086 307.032 721.598 305.48 721.598 303.464V283.304H729.806V303.416C729.806 306.424 729.166 308.968 727.886 311.048C726.606 313.128 724.878 314.696 722.702 315.752C720.558 316.808 718.158 317.336 715.502 317.336C712.846 317.336 710.462 316.824 708.35 315.8C706.27 314.744 704.622 313.176 703.406 311.096C702.19 308.984 701.582 306.424 701.582 303.416V283.304H709.79ZM756.21 317L749.346 306.68L743.298 317H733.986L744.786 299.864L733.746 283.304H743.298L750.066 293.48L756.018 283.304H765.33L754.626 300.296L765.762 317H756.21ZM792.678 283.304C796.23 283.304 799.334 284.008 801.99 285.416C804.646 286.824 806.694 288.808 808.134 291.368C809.606 293.896 810.342 296.824 810.342 300.152C810.342 303.448 809.606 306.376 808.134 308.936C806.694 311.496 804.63 313.48 801.942 314.888C799.286 316.296 796.198 317 792.678 317H780.054V283.304H792.678ZM792.15 309.896C795.254 309.896 797.67 309.048 799.398 307.352C801.126 305.656 801.99 303.256 801.99 300.152C801.99 297.048 801.126 294.632 799.398 292.904C797.67 291.176 795.254 290.312 792.15 290.312H788.262V309.896H792.15ZM840.177 303.176C840.177 303.944 840.129 304.744 840.033 305.576H821.457C821.585 307.24 822.113 308.52 823.041 309.416C824.001 310.28 825.169 310.712 826.545 310.712C828.593 310.712 830.017 309.848 830.817 308.12H839.553C839.105 309.88 838.289 311.464 837.105 312.872C835.953 314.28 834.497 315.384 832.737 316.184C830.977 316.984 829.009 317.384 826.833 317.384C824.209 317.384 821.873 316.824 819.825 315.704C817.777 314.584 816.177 312.984 815.025 310.904C813.873 308.824 813.297 306.392 813.297 303.608C813.297 300.824 813.857 298.392 814.977 296.312C816.129 294.232 817.729 292.632 819.777 291.512C821.825 290.392 824.177 289.832 826.833 289.832C829.425 289.832 831.729 290.376 833.745 291.464C835.761 292.552 837.329 294.104 838.449 296.12C839.601 298.136 840.177 300.488 840.177 303.176ZM831.777 301.016C831.777 299.608 831.297 298.488 830.337 297.656C829.377 296.824 828.177 296.408 826.737 296.408C825.361 296.408 824.193 296.808 823.233 297.608C822.305 298.408 821.729 299.544 821.505 301.016H831.777ZM855.403 317.384C853.067 317.384 850.987 316.984 849.163 316.184C847.339 315.384 845.899 314.296 844.843 312.92C843.787 311.512 843.195 309.944 843.067 308.216H851.179C851.275 309.144 851.707 309.896 852.475 310.472C853.243 311.048 854.187 311.336 855.307 311.336C856.331 311.336 857.115 311.144 857.659 310.76C858.235 310.344 858.523 309.816 858.523 309.176C858.523 308.408 858.123 307.848 857.323 307.496C856.523 307.112 855.227 306.696 853.435 306.248C851.515 305.8 849.915 305.336 848.635 304.856C847.355 304.344 846.251 303.56 845.323 302.504C844.395 301.416 843.931 299.96 843.931 298.136C843.931 296.6 844.347 295.208 845.179 293.96C846.043 292.68 847.291 291.672 848.923 290.936C850.587 290.2 852.555 289.832 854.827 289.832C858.187 289.832 860.827 290.664 862.747 292.328C864.699 293.992 865.819 296.2 866.107 298.952H858.523C858.395 298.024 857.979 297.288 857.275 296.744C856.603 296.2 855.707 295.928 854.587 295.928C853.627 295.928 852.891 296.12 852.379 296.504C851.867 296.856 851.611 297.352 851.611 297.992C851.611 298.76 852.011 299.336 852.811 299.72C853.643 300.104 854.923 300.488 856.651 300.872C858.635 301.384 860.251 301.896 861.499 302.408C862.747 302.888 863.835 303.688 864.763 304.808C865.723 305.896 866.219 307.368 866.251 309.224C866.251 310.792 865.803 312.2 864.907 313.448C864.043 314.664 862.779 315.624 861.115 316.328C859.483 317.032 857.579 317.384 855.403 317.384ZM875.401 287.432C873.961 287.432 872.777 287.016 871.849 286.184C870.953 285.32 870.505 284.264 870.505 283.016C870.505 281.736 870.953 280.68 871.849 279.848C872.777 278.984 873.961 278.552 875.401 278.552C876.809 278.552 877.961 278.984 878.857 279.848C879.785 280.68 880.249 281.736 880.249 283.016C880.249 284.264 879.785 285.32 878.857 286.184C877.961 287.016 876.809 287.432 875.401 287.432ZM879.481 290.216V317H871.273V290.216H879.481ZM895.605 289.832C897.493 289.832 899.141 290.216 900.549 290.984C901.989 291.752 903.093 292.76 903.861 294.008V290.216H912.069V316.952C912.069 319.416 911.573 321.64 910.581 323.624C909.621 325.64 908.133 327.24 906.117 328.424C904.133 329.608 901.653 330.2 898.677 330.2C894.709 330.2 891.493 329.256 889.029 327.368C886.565 325.512 885.157 322.984 884.805 319.784H892.917C893.173 320.808 893.781 321.608 894.741 322.184C895.701 322.792 896.885 323.096 898.293 323.096C899.989 323.096 901.333 322.6 902.325 321.608C903.349 320.648 903.861 319.096 903.861 316.952V313.16C903.061 314.408 901.957 315.432 900.549 316.232C899.141 317 897.493 317.384 895.605 317.384C893.397 317.384 891.397 316.824 889.605 315.704C887.813 314.552 886.389 312.936 885.333 310.856C884.309 308.744 883.797 306.312 883.797 303.56C883.797 300.808 884.309 298.392 885.333 296.312C886.389 294.232 887.813 292.632 889.605 291.512C891.397 290.392 893.397 289.832 895.605 289.832ZM903.861 303.608C903.861 301.56 903.285 299.944 902.133 298.76C901.013 297.576 899.637 296.984 898.005 296.984C896.373 296.984 894.981 297.576 893.829 298.76C892.709 299.912 892.149 301.512 892.149 303.56C892.149 305.608 892.709 307.24 893.829 308.456C894.981 309.64 896.373 310.232 898.005 310.232C899.637 310.232 901.013 309.64 902.133 308.456C903.285 307.272 903.861 305.656 903.861 303.608ZM934.327 289.928C937.463 289.928 939.959 290.952 941.815 293C943.703 295.016 944.647 297.8 944.647 301.352V317H936.487V302.456C936.487 300.664 936.023 299.272 935.095 298.28C934.167 297.288 932.919 296.792 931.351 296.792C929.783 296.792 928.535 297.288 927.607 298.28C926.679 299.272 926.215 300.664 926.215 302.456V317H918.007V290.216H926.215V293.768C927.047 292.584 928.167 291.656 929.575 290.984C930.983 290.28 932.567 289.928 934.327 289.928Z" fill="#EEEEEE"/>
<rect x="600" y="283" width="13" height="34" fill="#E20707"/>
<path d="M654.344 401.96C653.736 400.84 652.856 399.992 651.704 399.416C650.584 398.808 649.256 398.504 647.72 398.504C645.064 398.504 642.936 399.384 641.336 401.144C639.736 402.872 638.936 405.192 638.936 408.104C638.936 411.208 639.768 413.64 641.432 415.4C643.128 417.128 645.448 417.992 648.392 417.992C650.408 417.992 652.104 417.48 653.48 416.456C654.888 415.432 655.912 413.96 656.552 412.04H646.136V405.992H663.992V413.624C663.384 415.672 662.344 417.576 660.872 419.336C659.432 421.096 657.592 422.52 655.352 423.608C653.112 424.696 650.584 425.24 647.768 425.24C644.44 425.24 641.464 424.52 638.84 423.08C636.248 421.608 634.216 419.576 632.744 416.984C631.304 414.392 630.584 411.432 630.584 408.104C630.584 404.776 631.304 401.816 632.744 399.224C634.216 396.6 636.248 394.568 638.84 393.128C641.432 391.656 644.392 390.92 647.72 390.92C651.752 390.92 655.144 391.896 657.896 393.848C660.68 395.8 662.52 398.504 663.416 401.96H654.344ZM672.667 395.432C671.227 395.432 670.043 395.016 669.115 394.184C668.219 393.32 667.771 392.264 667.771 391.016C667.771 389.736 668.219 388.68 669.115 387.848C670.043 386.984 671.227 386.552 672.667 386.552C674.075 386.552 675.227 386.984 676.123 387.848C677.051 388.68 677.515 389.736 677.515 391.016C677.515 392.264 677.051 393.32 676.123 394.184C675.227 395.016 674.075 395.432 672.667 395.432ZM676.747 398.216V425H668.539V398.216H676.747ZM697.623 418.04V425H693.447C690.471 425 688.151 424.28 686.487 422.84C684.823 421.368 683.991 418.984 683.991 415.688V405.032H680.727V398.216H683.991V391.688H692.199V398.216H697.575V405.032H692.199V415.784C692.199 416.584 692.391 417.16 692.775 417.512C693.159 417.864 693.799 418.04 694.695 418.04H697.623Z" fill="#EEEEEE"/>
<rect x="600" y="391" width="13" height="34" fill="#E20707"/>
<path d="M670.136 499.304V533H661.928V512.792L654.392 533H647.768L640.184 512.744V533H631.976V499.304H641.672L651.128 522.632L660.488 499.304H670.136ZM688.231 533.384C685.607 533.384 683.239 532.824 681.127 531.704C679.047 530.584 677.399 528.984 676.183 526.904C674.999 524.824 674.407 522.392 674.407 519.608C674.407 516.856 675.015 514.44 676.23 512.36C677.447 510.248 679.111 508.632 681.223 507.512C683.335 506.392 685.703 505.832 688.327 505.832C690.951 505.832 693.319 506.392 695.431 507.512C697.543 508.632 699.207 510.248 700.423 512.36C701.639 514.44 702.247 516.856 702.247 519.608C702.247 522.36 701.623 524.792 700.375 526.904C699.159 528.984 697.479 530.584 695.335 531.704C693.223 532.824 690.855 533.384 688.231 533.384ZM688.231 526.28C689.799 526.28 691.127 525.704 692.215 524.552C693.335 523.4 693.895 521.752 693.895 519.608C693.895 517.464 693.351 515.816 692.263 514.664C691.207 513.512 689.895 512.936 688.327 512.936C686.727 512.936 685.399 513.512 684.343 514.664C683.287 515.784 682.759 517.432 682.759 519.608C682.759 521.752 683.271 523.4 684.295 524.552C685.351 525.704 686.663 526.28 688.231 526.28ZM722.921 505.928C726.057 505.928 728.553 506.952 730.409 509C732.297 511.016 733.241 513.8 733.241 517.352V533H725.081V518.456C725.081 516.664 724.617 515.272 723.689 514.28C722.761 513.288 721.513 512.792 719.945 512.792C718.377 512.792 717.129 513.288 716.201 514.28C715.273 515.272 714.809 516.664 714.809 518.456V533H706.601V506.216H714.809V509.768C715.641 508.584 716.761 507.656 718.169 506.984C719.577 506.28 721.161 505.928 722.921 505.928ZM749.121 505.832C751.009 505.832 752.657 506.216 754.065 506.984C755.505 507.752 756.609 508.76 757.377 510.008V506.216H765.585V532.952C765.585 535.416 765.089 537.64 764.097 539.624C763.137 541.64 761.649 543.24 759.633 544.424C757.649 545.608 755.169 546.2 752.193 546.2C748.225 546.2 745.009 545.256 742.545 543.368C740.081 541.512 738.673 538.984 738.321 535.784H746.433C746.689 536.808 747.297 537.608 748.257 538.184C749.217 538.792 750.401 539.096 751.809 539.096C753.505 539.096 754.849 538.6 755.841 537.608C756.865 536.648 757.377 535.096 757.377 532.952V529.16C756.577 530.408 755.473 531.432 754.065 532.232C752.657 533 751.009 533.384 749.121 533.384C746.913 533.384 744.913 532.824 743.121 531.704C741.329 530.552 739.905 528.936 738.849 526.856C737.825 524.744 737.313 522.312 737.313 519.56C737.313 516.808 737.825 514.392 738.849 512.312C739.905 510.232 741.329 508.632 743.121 507.512C744.913 506.392 746.913 505.832 749.121 505.832ZM757.377 519.608C757.377 517.56 756.801 515.944 755.649 514.76C754.529 513.576 753.153 512.984 751.521 512.984C749.889 512.984 748.497 513.576 747.345 514.76C746.225 515.912 745.665 517.512 745.665 519.56C745.665 521.608 746.225 523.24 747.345 524.456C748.497 525.64 749.889 526.232 751.521 526.232C753.153 526.232 754.529 525.64 755.649 524.456C756.801 523.272 757.377 521.656 757.377 519.608ZM783.715 533.384C781.091 533.384 778.723 532.824 776.611 531.704C774.531 530.584 772.883 528.984 771.667 526.904C770.483 524.824 769.891 522.392 769.891 519.608C769.891 516.856 770.499 514.44 771.715 512.36C772.931 510.248 774.595 508.632 776.707 507.512C778.819 506.392 781.187 505.832 783.811 505.832C786.435 505.832 788.803 506.392 790.915 507.512C793.027 508.632 794.691 510.248 795.907 512.36C797.123 514.44 797.731 516.856 797.731 519.608C797.731 522.36 797.107 524.792 795.859 526.904C794.643 528.984 792.963 530.584 790.819 531.704C788.707 532.824 786.339 533.384 783.715 533.384ZM783.715 526.28C785.283 526.28 786.611 525.704 787.699 524.552C788.819 523.4 789.379 521.752 789.379 519.608C789.379 517.464 788.835 515.816 787.747 514.664C786.691 513.512 785.379 512.936 783.811 512.936C782.211 512.936 780.883 513.512 779.827 514.664C778.771 515.784 778.243 517.432 778.243 519.608C778.243 521.752 778.755 523.4 779.779 524.552C780.835 525.704 782.147 526.28 783.715 526.28ZM814.709 499.304C818.261 499.304 821.365 500.008 824.021 501.416C826.677 502.824 828.725 504.808 830.165 507.368C831.637 509.896 832.373 512.824 832.373 516.152C832.373 519.448 831.637 522.376 830.165 524.936C828.725 527.496 826.661 529.48 823.973 530.888C821.317 532.296 818.229 533 814.709 533H802.085V499.304H814.709ZM814.181 525.896C817.285 525.896 819.701 525.048 821.429 523.352C823.157 521.656 824.021 519.256 824.021 516.152C824.021 513.048 823.157 510.632 821.429 508.904C819.701 507.176 817.285 506.312 814.181 506.312H810.293V525.896H814.181ZM857.36 515.72C859.312 516.136 860.88 517.112 862.064 518.648C863.248 520.152 863.84 521.88 863.84 523.832C863.84 526.648 862.848 528.888 860.864 530.552C858.912 532.184 856.176 533 852.656 533H836.96V499.304H852.128C855.552 499.304 858.224 500.088 860.144 501.656C862.096 503.224 863.072 505.352 863.072 508.04C863.072 510.024 862.544 511.672 861.488 512.984C860.464 514.296 859.088 515.208 857.36 515.72ZM845.168 512.936H850.544C851.888 512.936 852.912 512.648 853.616 512.072C854.352 511.464 854.72 510.584 854.72 509.432C854.72 508.28 854.352 507.4 853.616 506.792C852.912 506.184 851.888 505.88 850.544 505.88H845.168V512.936ZM851.216 526.376C852.592 526.376 853.648 526.072 854.384 525.464C855.152 524.824 855.536 523.912 855.536 522.728C855.536 521.544 855.136 520.616 854.336 519.944C853.568 519.272 852.496 518.936 851.12 518.936H845.168V526.376H851.216Z" fill="#EEEEEE"/>
<rect x="600" y="499" width="13" height="34" fill="#E20707"/>
<rect x="65" y="868" width="1070" height="2" fill="#F77474"/>
<defs>
<clipPath id="clip0_70_36">
<rect width="120" height="120" fill="white" transform="translate(120 1660)"/>
</clipPath>
</defs>
</svg>
