<svg width="1200" height="1908" viewBox="0 0 1200 1908" fill="none" xmlns="http://www.w3.org/2000/svg">
<path d="M0 8H1200V1908H0V8Z" fill="black"/>
<path d="M182.98 120.012V186H166.906V158.834H141.902V186H125.828V120.012H141.902V145.862H166.906V120.012H182.98ZM191.388 159.68C191.388 154.291 192.391 149.559 194.396 145.486C196.464 141.413 199.253 138.279 202.762 136.086C206.271 133.893 210.188 132.796 214.512 132.796C218.209 132.796 221.437 133.548 224.194 135.052C227.014 136.556 229.176 138.53 230.68 140.974V133.548H246.754V186H230.68V178.574C229.113 181.018 226.92 182.992 224.1 184.496C221.343 186 218.115 186.752 214.418 186.752C210.157 186.752 206.271 185.655 202.762 183.462C199.253 181.206 196.464 178.041 194.396 173.968C192.391 169.832 191.388 165.069 191.388 159.68ZM230.68 159.774C230.68 155.763 229.552 152.599 227.296 150.28C225.103 147.961 222.408 146.802 219.212 146.802C216.016 146.802 213.29 147.961 211.034 150.28C208.841 152.536 207.744 155.669 207.744 159.68C207.744 163.691 208.841 166.887 211.034 169.268C213.29 171.587 216.016 172.746 219.212 172.746C222.408 172.746 225.103 171.587 227.296 169.268C229.552 166.949 230.68 163.785 230.68 159.774ZM274.457 140.974C275.961 138.53 278.123 136.556 280.943 135.052C283.763 133.548 286.99 132.796 290.625 132.796C294.949 132.796 298.865 133.893 302.375 136.086C305.884 138.279 308.641 141.413 310.647 145.486C312.715 149.559 313.749 154.291 313.749 159.68C313.749 165.069 312.715 169.832 310.647 173.968C308.641 178.041 305.884 181.206 302.375 183.462C298.865 185.655 294.949 186.752 290.625 186.752C286.927 186.752 283.7 186.031 280.943 184.59C278.185 183.086 276.023 181.112 274.457 178.668V186H258.383V116.44H274.457V140.974ZM297.393 159.68C297.393 155.669 296.265 152.536 294.009 150.28C291.815 147.961 289.089 146.802 285.831 146.802C282.635 146.802 279.909 147.961 277.653 150.28C275.459 152.599 274.363 155.763 274.363 159.774C274.363 163.785 275.459 166.949 277.653 169.268C279.909 171.587 282.635 172.746 285.831 172.746C289.027 172.746 291.753 171.587 294.009 169.268C296.265 166.887 297.393 163.691 297.393 159.68ZM330.266 128.096C327.446 128.096 325.127 127.281 323.31 125.652C321.555 123.96 320.678 121.892 320.678 119.448C320.678 116.941 321.555 114.873 323.31 113.244C325.127 111.552 327.446 110.706 330.266 110.706C333.023 110.706 335.279 111.552 337.034 113.244C338.851 114.873 339.76 116.941 339.76 119.448C339.76 121.892 338.851 123.96 337.034 125.652C335.279 127.281 333.023 128.096 330.266 128.096ZM338.256 133.548V186H322.182V133.548H338.256ZM365.978 116.44V186H349.904V116.44H365.978ZM385.711 128.096C382.891 128.096 380.572 127.281 378.755 125.652C377 123.96 376.123 121.892 376.123 119.448C376.123 116.941 377 114.873 378.755 113.244C380.572 111.552 382.891 110.706 385.711 110.706C388.468 110.706 390.724 111.552 392.479 113.244C394.296 114.873 395.205 116.941 395.205 119.448C395.205 121.892 394.296 123.96 392.479 125.652C390.724 127.281 388.468 128.096 385.711 128.096ZM393.701 133.548V186H377.627V133.548H393.701ZM402.153 159.68C402.153 154.291 403.156 149.559 405.161 145.486C407.229 141.413 410.018 138.279 413.527 136.086C417.037 133.893 420.953 132.796 425.277 132.796C428.724 132.796 431.857 133.517 434.677 134.958C437.56 136.399 439.816 138.342 441.445 140.786V116.44H457.519V186H441.445V178.48C439.941 180.987 437.779 182.992 434.959 184.496C432.202 186 428.975 186.752 425.277 186.752C420.953 186.752 417.037 185.655 413.527 183.462C410.018 181.206 407.229 178.041 405.161 173.968C403.156 169.832 402.153 165.069 402.153 159.68ZM441.445 159.774C441.445 155.763 440.317 152.599 438.061 150.28C435.868 147.961 433.173 146.802 429.977 146.802C426.781 146.802 424.055 147.961 421.799 150.28C419.606 152.536 418.509 155.669 418.509 159.68C418.509 163.691 419.606 166.887 421.799 169.268C424.055 171.587 426.781 172.746 429.977 172.746C433.173 172.746 435.868 171.587 438.061 169.268C440.317 166.949 441.445 163.785 441.445 159.774ZM465.952 159.68C465.952 154.291 466.955 149.559 468.96 145.486C471.028 141.413 473.817 138.279 477.326 136.086C480.836 133.893 484.752 132.796 489.076 132.796C492.774 132.796 496.001 133.548 498.758 135.052C501.578 136.556 503.74 138.53 505.244 140.974V133.548H521.318V186H505.244V178.574C503.678 181.018 501.484 182.992 498.664 184.496C495.907 186 492.68 186.752 488.982 186.752C484.721 186.752 480.836 185.655 477.326 183.462C473.817 181.206 471.028 178.041 468.96 173.968C466.955 169.832 465.952 165.069 465.952 159.68ZM505.244 159.774C505.244 155.763 504.116 152.599 501.86 150.28C499.667 147.961 496.972 146.802 493.776 146.802C490.58 146.802 487.854 147.961 485.598 150.28C483.405 152.536 482.308 155.669 482.308 159.68C482.308 163.691 483.405 166.887 485.598 169.268C487.854 171.587 490.58 172.746 493.776 172.746C496.972 172.746 499.667 171.587 501.86 169.268C504.116 166.949 505.244 163.785 505.244 159.774ZM529.751 159.68C529.751 154.291 530.754 149.559 532.759 145.486C534.827 141.413 537.616 138.279 541.125 136.086C544.634 133.893 548.551 132.796 552.875 132.796C556.322 132.796 559.455 133.517 562.275 134.958C565.158 136.399 567.414 138.342 569.043 140.786V116.44H585.117V186H569.043V178.48C567.539 180.987 565.377 182.992 562.557 184.496C559.8 186 556.572 186.752 552.875 186.752C548.551 186.752 544.634 185.655 541.125 183.462C537.616 181.206 534.827 178.041 532.759 173.968C530.754 169.832 529.751 165.069 529.751 159.68ZM569.043 159.774C569.043 155.763 567.915 152.599 565.659 150.28C563.466 147.961 560.771 146.802 557.575 146.802C554.379 146.802 551.653 147.961 549.397 150.28C547.204 152.536 546.107 155.669 546.107 159.68C546.107 163.691 547.204 166.887 549.397 169.268C551.653 171.587 554.379 172.746 557.575 172.746C560.771 172.746 563.466 171.587 565.659 169.268C567.915 166.949 569.043 163.785 569.043 159.774ZM646.19 158.928C646.19 160.432 646.096 161.999 645.908 163.628H609.53C609.781 166.887 610.815 169.393 612.632 171.148C614.512 172.84 616.799 173.686 619.494 173.686C623.505 173.686 626.293 171.994 627.86 168.61H644.968C644.091 172.057 642.493 175.159 640.174 177.916C637.918 180.673 635.067 182.835 631.62 184.402C628.173 185.969 624.319 186.752 620.058 186.752C614.919 186.752 610.345 185.655 606.334 183.462C602.323 181.269 599.19 178.135 596.934 174.062C594.678 169.989 593.55 165.226 593.55 159.774C593.55 154.322 594.647 149.559 596.84 145.486C599.096 141.413 602.229 138.279 606.24 136.086C610.251 133.893 614.857 132.796 620.058 132.796C625.134 132.796 629.646 133.861 633.594 135.992C637.542 138.123 640.613 141.162 642.806 145.11C645.062 149.058 646.19 153.664 646.19 158.928ZM629.74 154.698C629.74 151.941 628.8 149.747 626.92 148.118C625.04 146.489 622.69 145.674 619.87 145.674C617.175 145.674 614.888 146.457 613.008 148.024C611.191 149.591 610.063 151.815 609.624 154.698H629.74ZM676.008 186.752C671.433 186.752 667.36 185.969 663.788 184.402C660.216 182.835 657.396 180.705 655.328 178.01C653.26 175.253 652.1 172.182 651.85 168.798H667.736C667.924 170.615 668.77 172.088 670.274 173.216C671.778 174.344 673.626 174.908 675.82 174.908C677.825 174.908 679.36 174.532 680.426 173.78C681.554 172.965 682.118 171.931 682.118 170.678C682.118 169.174 681.334 168.077 679.768 167.388C678.201 166.636 675.663 165.821 672.154 164.944C668.394 164.067 665.26 163.158 662.754 162.218C660.247 161.215 658.085 159.68 656.268 157.612C654.45 155.481 653.542 152.63 653.542 149.058C653.542 146.05 654.356 143.324 655.986 140.88C657.678 138.373 660.122 136.399 663.318 134.958C666.576 133.517 670.43 132.796 674.88 132.796C681.46 132.796 686.63 134.425 690.39 137.684C694.212 140.943 696.406 145.267 696.97 150.656H682.118C681.867 148.839 681.052 147.397 679.674 146.332C678.358 145.267 676.603 144.734 674.41 144.734C672.53 144.734 671.088 145.11 670.086 145.862C669.083 146.551 668.582 147.523 668.582 148.776C668.582 150.28 669.365 151.408 670.932 152.16C672.561 152.912 675.068 153.664 678.452 154.416C682.337 155.419 685.502 156.421 687.946 157.424C690.39 158.364 692.52 159.931 694.338 162.124C696.218 164.255 697.189 167.137 697.252 170.772C697.252 173.843 696.374 176.6 694.62 179.044C692.928 181.425 690.452 183.305 687.194 184.684C683.998 186.063 680.269 186.752 676.008 186.752Z" fill="white"/>
<path d="M148.902 1007.01V1073H132.828V1007.01H148.902ZM157.355 1046.68C157.355 1041.29 158.357 1036.56 160.363 1032.49C162.431 1028.41 165.219 1025.28 168.729 1023.09C172.238 1020.89 176.155 1019.8 180.479 1019.8C183.925 1019.8 187.059 1020.52 189.879 1021.96C192.761 1023.4 195.017 1025.34 196.647 1027.79V1003.44H212.721V1073H196.647V1065.48C195.143 1067.99 192.981 1069.99 190.161 1071.5C187.403 1073 184.176 1073.75 180.479 1073.75C176.155 1073.75 172.238 1072.66 168.729 1070.46C165.219 1068.21 162.431 1065.04 160.363 1060.97C158.357 1056.83 157.355 1052.07 157.355 1046.68ZM196.647 1046.77C196.647 1042.76 195.519 1039.6 193.263 1037.28C191.069 1034.96 188.375 1033.8 185.179 1033.8C181.983 1033.8 179.257 1034.96 177.001 1037.28C174.807 1039.54 173.711 1042.67 173.711 1046.68C173.711 1050.69 174.807 1053.89 177.001 1056.27C179.257 1058.59 181.983 1059.75 185.179 1059.75C188.375 1059.75 191.069 1058.59 193.263 1056.27C195.519 1053.95 196.647 1050.78 196.647 1046.77ZM232.433 1015.1C229.613 1015.1 227.295 1014.28 225.477 1012.65C223.723 1010.96 222.845 1008.89 222.845 1006.45C222.845 1003.94 223.723 1001.87 225.477 1000.24C227.295 998.552 229.613 997.706 232.433 997.706C235.191 997.706 237.447 998.552 239.201 1000.24C241.019 1001.87 241.927 1003.94 241.927 1006.45C241.927 1008.89 241.019 1010.96 239.201 1012.65C237.447 1014.28 235.191 1015.1 232.433 1015.1ZM240.423 1020.55V1073H224.349V1020.55H240.423ZM275.948 1073.75C270.809 1073.75 266.172 1072.66 262.036 1070.46C257.963 1068.27 254.735 1065.14 252.354 1061.06C250.035 1056.99 248.876 1052.23 248.876 1046.77C248.876 1041.38 250.067 1036.65 252.448 1032.58C254.829 1028.44 258.088 1025.28 262.224 1023.09C266.36 1020.89 270.997 1019.8 276.136 1019.8C281.275 1019.8 285.912 1020.89 290.048 1023.09C294.184 1025.28 297.443 1028.44 299.824 1032.58C302.205 1036.65 303.396 1041.38 303.396 1046.77C303.396 1052.16 302.174 1056.93 299.73 1061.06C297.349 1065.14 294.059 1068.27 289.86 1070.46C285.724 1072.66 281.087 1073.75 275.948 1073.75ZM275.948 1059.84C279.019 1059.84 281.619 1058.71 283.75 1056.46C285.943 1054.2 287.04 1050.97 287.04 1046.77C287.04 1042.58 285.975 1039.35 283.844 1037.09C281.776 1034.84 279.207 1033.71 276.136 1033.71C273.003 1033.71 270.402 1034.84 268.334 1037.09C266.266 1039.29 265.232 1042.51 265.232 1046.77C265.232 1050.97 266.235 1054.2 268.24 1056.46C270.308 1058.71 272.877 1059.84 275.948 1059.84ZM378.852 1019.98C385.369 1019.98 390.539 1021.96 394.362 1025.91C398.247 1029.85 400.19 1035.34 400.19 1042.36V1073H384.21V1044.52C384.21 1041.13 383.301 1038.53 381.484 1036.72C379.729 1034.84 377.285 1033.9 374.152 1033.9C371.018 1033.9 368.543 1034.84 366.726 1036.72C364.971 1038.53 364.094 1041.13 364.094 1044.52V1073H348.114V1044.52C348.114 1041.13 347.205 1038.53 345.388 1036.72C343.633 1034.84 341.189 1033.9 338.056 1033.9C334.922 1033.9 332.447 1034.84 330.63 1036.72C328.875 1038.53 327.998 1041.13 327.998 1044.52V1073H311.924V1020.55H327.998V1027.13C329.627 1024.93 331.758 1023.21 334.39 1021.96C337.022 1020.64 339.998 1019.98 343.32 1019.98C347.268 1019.98 350.777 1020.83 353.848 1022.52C356.981 1024.21 359.425 1026.63 361.18 1029.76C362.997 1026.88 365.472 1024.53 368.606 1022.71C371.739 1020.89 375.154 1019.98 378.852 1019.98ZM408.236 1046.68C408.236 1041.29 409.238 1036.56 411.244 1032.49C413.312 1028.41 416.1 1025.28 419.61 1023.09C423.119 1020.89 427.036 1019.8 431.36 1019.8C435.057 1019.8 438.284 1020.55 441.042 1022.05C443.862 1023.56 446.024 1025.53 447.528 1027.97V1020.55H463.602V1073H447.528V1065.57C445.961 1068.02 443.768 1069.99 440.948 1071.5C438.19 1073 434.963 1073.75 431.266 1073.75C427.004 1073.75 423.119 1072.66 419.61 1070.46C416.1 1068.21 413.312 1065.04 411.244 1060.97C409.238 1056.83 408.236 1052.07 408.236 1046.68ZM447.528 1046.77C447.528 1042.76 446.4 1039.6 444.144 1037.28C441.95 1034.96 439.256 1033.8 436.06 1033.8C432.864 1033.8 430.138 1034.96 427.882 1037.28C425.688 1039.54 424.592 1042.67 424.592 1046.68C424.592 1050.69 425.688 1053.89 427.882 1056.27C430.138 1058.59 432.864 1059.75 436.06 1059.75C439.256 1059.75 441.95 1058.59 444.144 1056.27C446.4 1053.95 447.528 1050.78 447.528 1046.77ZM496.568 1073.75C491.994 1073.75 487.92 1072.97 484.348 1071.4C480.776 1069.84 477.956 1067.7 475.888 1065.01C473.82 1062.25 472.661 1059.18 472.41 1055.8H488.296C488.484 1057.62 489.33 1059.09 490.834 1060.22C492.338 1061.34 494.187 1061.91 496.38 1061.91C498.386 1061.91 499.921 1061.53 500.986 1060.78C502.114 1059.97 502.678 1058.93 502.678 1057.68C502.678 1056.17 501.895 1055.08 500.328 1054.39C498.762 1053.64 496.224 1052.82 492.714 1051.94C488.954 1051.07 485.821 1050.16 483.314 1049.22C480.808 1048.22 478.646 1046.68 476.828 1044.61C475.011 1042.48 474.102 1039.63 474.102 1036.06C474.102 1033.05 474.917 1030.32 476.546 1027.88C478.238 1025.37 480.682 1023.4 483.878 1021.96C487.137 1020.52 490.991 1019.8 495.44 1019.8C502.02 1019.8 507.19 1021.43 510.95 1024.68C514.773 1027.94 516.966 1032.27 517.53 1037.66H502.678C502.428 1035.84 501.613 1034.4 500.234 1033.33C498.918 1032.27 497.164 1031.73 494.97 1031.73C493.09 1031.73 491.649 1032.11 490.646 1032.86C489.644 1033.55 489.142 1034.52 489.142 1035.78C489.142 1037.28 489.926 1038.41 491.492 1039.16C493.122 1039.91 495.628 1040.66 499.012 1041.42C502.898 1042.42 506.062 1043.42 508.506 1044.42C510.95 1045.36 513.081 1046.93 514.898 1049.12C516.778 1051.25 517.75 1054.14 517.812 1057.77C517.812 1060.84 516.935 1063.6 515.18 1066.04C513.488 1068.43 511.013 1070.31 507.754 1071.68C504.558 1073.06 500.83 1073.75 496.568 1073.75Z" fill="white"/>
<path d="M188.16 283.304V317H179.952V303.128H167.184V317H158.976V283.304H167.184V296.504H179.952V283.304H188.16ZM218.325 283.304V289.88H209.397V317H201.189V289.88H192.261V283.304H218.325ZM260.605 283.304V317H252.397V296.792L244.861 317H238.237L230.653 296.744V317H222.445V283.304H232.141L241.597 306.632L250.957 283.304H260.605ZM274.715 310.664H285.467V317H266.507V283.304H274.715V310.664Z" fill="#EEEEEE"/>
<rect x="127" y="283" width="13" height="34" fill="#E20707"/>
<path d="M174.184 1170.3V1204H165.976V1170.3H174.184ZM196.452 1176.93C199.588 1176.93 202.084 1177.95 203.94 1180C205.828 1182.02 206.772 1184.8 206.772 1188.35V1204H198.612V1189.46C198.612 1187.66 198.148 1186.27 197.22 1185.28C196.292 1184.29 195.044 1183.79 193.476 1183.79C191.908 1183.79 190.66 1184.29 189.732 1185.28C188.804 1186.27 188.34 1187.66 188.34 1189.46V1204H180.132V1177.22H188.34V1180.77C189.172 1179.58 190.292 1178.66 191.7 1177.98C193.108 1177.28 194.692 1176.93 196.452 1176.93ZM222.652 1176.83C224.54 1176.83 226.188 1177.22 227.596 1177.98C229.036 1178.75 230.14 1179.76 230.908 1181.01V1177.22H239.116V1203.95C239.116 1206.42 238.62 1208.64 237.628 1210.62C236.668 1212.64 235.18 1214.24 233.164 1215.42C231.18 1216.61 228.7 1217.2 225.724 1217.2C221.756 1217.2 218.54 1216.26 216.076 1214.37C213.612 1212.51 212.204 1209.98 211.852 1206.78H219.964C220.22 1207.81 220.828 1208.61 221.788 1209.18C222.748 1209.79 223.932 1210.1 225.34 1210.1C227.036 1210.1 228.38 1209.6 229.372 1208.61C230.396 1207.65 230.908 1206.1 230.908 1203.95V1200.16C230.108 1201.41 229.004 1202.43 227.596 1203.23C226.188 1204 224.54 1204.38 222.652 1204.38C220.444 1204.38 218.444 1203.82 216.652 1202.7C214.86 1201.55 213.436 1199.94 212.38 1197.86C211.356 1195.74 210.844 1193.31 210.844 1190.56C210.844 1187.81 211.356 1185.39 212.38 1183.31C213.436 1181.23 214.86 1179.63 216.652 1178.51C218.444 1177.39 220.444 1176.83 222.652 1176.83ZM230.908 1190.61C230.908 1188.56 230.332 1186.94 229.18 1185.76C228.06 1184.58 226.684 1183.98 225.052 1183.98C223.42 1183.98 222.028 1184.58 220.876 1185.76C219.756 1186.91 219.196 1188.51 219.196 1190.56C219.196 1192.61 219.756 1194.24 220.876 1195.46C222.028 1196.64 223.42 1197.23 225.052 1197.23C226.684 1197.23 228.06 1196.64 229.18 1195.46C230.332 1194.27 230.908 1192.66 230.908 1190.61ZM253.262 1168.48V1204H245.054V1168.48H253.262ZM284.458 1190.18C284.458 1190.94 284.41 1191.74 284.314 1192.58H265.738C265.866 1194.24 266.394 1195.52 267.322 1196.42C268.282 1197.28 269.45 1197.71 270.826 1197.71C272.874 1197.71 274.298 1196.85 275.098 1195.12H283.834C283.386 1196.88 282.57 1198.46 281.386 1199.87C280.234 1201.28 278.778 1202.38 277.018 1203.18C275.258 1203.98 273.29 1204.38 271.114 1204.38C268.49 1204.38 266.154 1203.82 264.106 1202.7C262.058 1201.58 260.458 1199.98 259.306 1197.9C258.154 1195.82 257.578 1193.39 257.578 1190.61C257.578 1187.82 258.138 1185.39 259.258 1183.31C260.41 1181.23 262.01 1179.63 264.058 1178.51C266.106 1177.39 268.458 1176.83 271.114 1176.83C273.706 1176.83 276.01 1177.38 278.026 1178.46C280.042 1179.55 281.61 1181.1 282.73 1183.12C283.882 1185.14 284.458 1187.49 284.458 1190.18ZM276.058 1188.02C276.058 1186.61 275.578 1185.49 274.618 1184.66C273.658 1183.82 272.458 1183.41 271.018 1183.41C269.642 1183.41 268.474 1183.81 267.514 1184.61C266.586 1185.41 266.01 1186.54 265.786 1188.02H276.058ZM271.018 1171.26L263.578 1175.2V1169.54L271.018 1165.74L278.458 1169.54V1175.2L271.018 1171.26ZM299.685 1204.38C297.349 1204.38 295.269 1203.98 293.445 1203.18C291.621 1202.38 290.181 1201.3 289.125 1199.92C288.069 1198.51 287.477 1196.94 287.349 1195.22H295.461C295.557 1196.14 295.989 1196.9 296.757 1197.47C297.525 1198.05 298.469 1198.34 299.589 1198.34C300.613 1198.34 301.397 1198.14 301.941 1197.76C302.517 1197.34 302.805 1196.82 302.805 1196.18C302.805 1195.41 302.405 1194.85 301.605 1194.5C300.805 1194.11 299.509 1193.7 297.717 1193.25C295.797 1192.8 294.197 1192.34 292.917 1191.86C291.637 1191.34 290.533 1190.56 289.605 1189.5C288.677 1188.42 288.213 1186.96 288.213 1185.14C288.213 1183.6 288.629 1182.21 289.461 1180.96C290.325 1179.68 291.573 1178.67 293.205 1177.94C294.869 1177.2 296.837 1176.83 299.109 1176.83C302.469 1176.83 305.109 1177.66 307.029 1179.33C308.981 1180.99 310.101 1183.2 310.389 1185.95H302.805C302.677 1185.02 302.261 1184.29 301.557 1183.74C300.885 1183.2 299.989 1182.93 298.869 1182.93C297.909 1182.93 297.173 1183.12 296.661 1183.5C296.149 1183.86 295.893 1184.35 295.893 1184.99C295.893 1185.76 296.293 1186.34 297.093 1186.72C297.925 1187.1 299.205 1187.49 300.933 1187.87C302.917 1188.38 304.533 1188.9 305.781 1189.41C307.029 1189.89 308.117 1190.69 309.045 1191.81C310.005 1192.9 310.501 1194.37 310.533 1196.22C310.533 1197.79 310.085 1199.2 309.189 1200.45C308.325 1201.66 307.061 1202.62 305.397 1203.33C303.765 1204.03 301.861 1204.38 299.685 1204.38ZM324.094 1190.56C324.094 1187.81 324.606 1185.39 325.63 1183.31C326.686 1181.23 328.11 1179.63 329.902 1178.51C331.694 1177.39 333.694 1176.83 335.902 1176.83C337.79 1176.83 339.438 1177.22 340.846 1177.98C342.286 1178.75 343.39 1179.76 344.158 1181.01V1177.22H352.366V1204H344.158V1200.21C343.358 1201.46 342.238 1202.46 340.798 1203.23C339.39 1204 337.742 1204.38 335.854 1204.38C333.678 1204.38 331.694 1203.82 329.902 1202.7C328.11 1201.55 326.686 1199.94 325.63 1197.86C324.606 1195.74 324.094 1193.31 324.094 1190.56ZM344.158 1190.61C344.158 1188.56 343.582 1186.94 342.43 1185.76C341.31 1184.58 339.934 1183.98 338.302 1183.98C336.67 1183.98 335.278 1184.58 334.126 1185.76C333.006 1186.91 332.446 1188.51 332.446 1190.56C332.446 1192.61 333.006 1194.24 334.126 1195.46C335.278 1196.64 336.67 1197.23 338.302 1197.23C339.934 1197.23 341.31 1196.64 342.43 1195.46C343.582 1194.27 344.158 1192.66 344.158 1190.61ZM370.352 1196.32L376.16 1177.22H384.896L375.392 1204H365.264L355.76 1177.22H364.544L370.352 1196.32ZM386.719 1190.56C386.719 1187.81 387.231 1185.39 388.255 1183.31C389.311 1181.23 390.735 1179.63 392.527 1178.51C394.319 1177.39 396.319 1176.83 398.527 1176.83C400.415 1176.83 402.063 1177.22 403.471 1177.98C404.911 1178.75 406.015 1179.76 406.783 1181.01V1177.22H414.991V1204H406.783V1200.21C405.983 1201.46 404.863 1202.46 403.423 1203.23C402.015 1204 400.367 1204.38 398.479 1204.38C396.303 1204.38 394.319 1203.82 392.527 1202.7C390.735 1201.55 389.311 1199.94 388.255 1197.86C387.231 1195.74 386.719 1193.31 386.719 1190.56ZM406.783 1190.61C406.783 1188.56 406.207 1186.94 405.055 1185.76C403.935 1184.58 402.559 1183.98 400.927 1183.98C399.295 1183.98 397.903 1184.58 396.751 1185.76C395.631 1186.91 395.071 1188.51 395.071 1190.56C395.071 1192.61 395.631 1194.24 396.751 1195.46C397.903 1196.64 399.295 1197.23 400.927 1197.23C402.559 1197.23 403.935 1196.64 405.055 1195.46C406.207 1194.27 406.783 1192.66 406.783 1190.61ZM437.249 1176.93C440.385 1176.93 442.881 1177.95 444.737 1180C446.625 1182.02 447.569 1184.8 447.569 1188.35V1204H439.409V1189.46C439.409 1187.66 438.945 1186.27 438.017 1185.28C437.089 1184.29 435.841 1183.79 434.273 1183.79C432.705 1183.79 431.457 1184.29 430.529 1185.28C429.601 1186.27 429.137 1187.66 429.137 1189.46V1204H420.929V1177.22H429.137V1180.77C429.969 1179.58 431.089 1178.66 432.497 1177.98C433.905 1177.28 435.489 1176.93 437.249 1176.93ZM464.937 1197.38C467.049 1197.38 468.473 1196.35 469.209 1194.3H477.945C477.337 1197.02 476.121 1199.25 474.297 1200.98C472.473 1202.7 470.201 1203.78 467.481 1204.19V1205.97C469.145 1205.97 470.601 1206.42 471.849 1207.31C473.097 1208.24 473.721 1209.62 473.721 1211.44C473.721 1213.26 473.065 1214.64 471.753 1215.57C470.441 1216.53 468.873 1217.01 467.049 1217.01H459.657V1212.5H465.945C466.585 1212.5 467.065 1212.4 467.385 1212.21C467.705 1212.02 467.865 1211.7 467.865 1211.25C467.865 1210.8 467.705 1210.48 467.385 1210.29C467.065 1210.13 466.585 1210.05 465.945 1210.05H462.537V1204.19C459.241 1203.68 456.601 1202.22 454.617 1199.82C452.633 1197.39 451.641 1194.32 451.641 1190.61C451.641 1187.82 452.201 1185.39 453.321 1183.31C454.473 1181.23 456.057 1179.63 458.073 1178.51C460.121 1177.39 462.457 1176.83 465.081 1176.83C468.441 1176.83 471.241 1177.71 473.481 1179.47C475.753 1181.23 477.241 1183.71 477.945 1186.91H469.209C468.473 1184.86 467.049 1183.84 464.937 1183.84C463.433 1183.84 462.233 1184.43 461.337 1185.62C460.441 1186.77 459.993 1188.43 459.993 1190.61C459.993 1192.78 460.441 1194.46 461.337 1195.65C462.233 1196.8 463.433 1197.38 464.937 1197.38ZM480.703 1190.56C480.703 1187.81 481.215 1185.39 482.239 1183.31C483.295 1181.23 484.719 1179.63 486.511 1178.51C488.303 1177.39 490.303 1176.83 492.511 1176.83C494.399 1176.83 496.047 1177.22 497.455 1177.98C498.895 1178.75 499.999 1179.76 500.767 1181.01V1177.22H508.975V1204H500.767V1200.21C499.967 1201.46 498.847 1202.46 497.407 1203.23C495.999 1204 494.351 1204.38 492.463 1204.38C490.287 1204.38 488.303 1203.82 486.511 1202.7C484.719 1201.55 483.295 1199.94 482.239 1197.86C481.215 1195.74 480.703 1193.31 480.703 1190.56ZM500.767 1190.61C500.767 1188.56 500.191 1186.94 499.039 1185.76C497.919 1184.58 496.543 1183.98 494.911 1183.98C493.279 1183.98 491.887 1184.58 490.735 1185.76C489.615 1186.91 489.055 1188.51 489.055 1190.56C489.055 1192.61 489.615 1194.24 490.735 1195.46C491.887 1196.64 493.279 1197.23 494.911 1197.23C496.543 1197.23 497.919 1196.64 499.039 1195.46C500.191 1194.27 500.767 1192.66 500.767 1190.61ZM513.282 1190.56C513.282 1187.81 513.794 1185.39 514.818 1183.31C515.874 1181.23 517.298 1179.63 519.09 1178.51C520.882 1177.39 522.882 1176.83 525.09 1176.83C526.85 1176.83 528.45 1177.2 529.89 1177.94C531.362 1178.67 532.514 1179.66 533.346 1180.91V1168.48H541.554V1204H533.346V1200.16C532.578 1201.44 531.474 1202.46 530.034 1203.23C528.626 1204 526.978 1204.38 525.09 1204.38C522.882 1204.38 520.882 1203.82 519.09 1202.7C517.298 1201.55 515.874 1199.94 514.818 1197.86C513.794 1195.74 513.282 1193.31 513.282 1190.56ZM533.346 1190.61C533.346 1188.56 532.77 1186.94 531.618 1185.76C530.498 1184.58 529.122 1183.98 527.49 1183.98C525.858 1183.98 524.466 1184.58 523.314 1185.76C522.194 1186.91 521.634 1188.51 521.634 1190.56C521.634 1192.61 522.194 1194.24 523.314 1195.46C524.466 1196.64 525.858 1197.23 527.49 1197.23C529.122 1197.23 530.498 1196.64 531.618 1195.46C532.77 1194.27 533.346 1192.66 533.346 1190.61ZM559.684 1204.38C557.06 1204.38 554.692 1203.82 552.58 1202.7C550.5 1201.58 548.852 1199.98 547.636 1197.9C546.452 1195.82 545.86 1193.39 545.86 1190.61C545.86 1187.86 546.468 1185.44 547.684 1183.36C548.9 1181.25 550.564 1179.63 552.676 1178.51C554.788 1177.39 557.156 1176.83 559.78 1176.83C562.404 1176.83 564.772 1177.39 566.884 1178.51C568.996 1179.63 570.66 1181.25 571.876 1183.36C573.092 1185.44 573.7 1187.86 573.7 1190.61C573.7 1193.36 573.076 1195.79 571.828 1197.9C570.612 1199.98 568.932 1201.58 566.788 1202.7C564.676 1203.82 562.308 1204.38 559.684 1204.38ZM559.684 1197.28C561.252 1197.28 562.58 1196.7 563.668 1195.55C564.788 1194.4 565.348 1192.75 565.348 1190.61C565.348 1188.46 564.804 1186.82 563.716 1185.66C562.66 1184.51 561.348 1183.94 559.78 1183.94C558.18 1183.94 556.852 1184.51 555.796 1185.66C554.74 1186.78 554.212 1188.43 554.212 1190.61C554.212 1192.75 554.724 1194.4 555.748 1195.55C556.804 1196.7 558.116 1197.28 559.684 1197.28Z" fill="#EEEEEE"/>
<rect x="134" y="1170" width="13" height="34" fill="#E20707"/>
<path d="M157.584 408.104C157.584 404.776 158.304 401.816 159.744 399.224C161.184 396.6 163.184 394.568 165.744 393.128C168.336 391.656 171.264 390.92 174.528 390.92C178.528 390.92 181.952 391.976 184.8 394.088C187.648 396.2 189.552 399.08 190.512 402.728H181.488C180.816 401.32 179.856 400.248 178.608 399.512C177.392 398.776 176 398.408 174.432 398.408C171.904 398.408 169.856 399.288 168.288 401.048C166.72 402.808 165.936 405.16 165.936 408.104C165.936 411.048 166.72 413.4 168.288 415.16C169.856 416.92 171.904 417.8 174.432 417.8C176 417.8 177.392 417.432 178.608 416.696C179.856 415.96 180.816 414.888 181.488 413.48H190.512C189.552 417.128 187.648 420.008 184.8 422.12C181.952 424.2 178.528 425.24 174.528 425.24C171.264 425.24 168.336 424.52 165.744 423.08C163.184 421.608 161.184 419.576 159.744 416.984C158.304 414.392 157.584 411.432 157.584 408.104ZM207.731 425.336C205.267 425.336 203.059 424.936 201.107 424.136C199.155 423.336 197.587 422.152 196.403 420.584C195.251 419.016 194.643 417.128 194.579 414.92H203.315C203.443 416.168 203.875 417.128 204.611 417.8C205.347 418.44 206.307 418.76 207.491 418.76C208.707 418.76 209.667 418.488 210.371 417.944C211.075 417.368 211.427 416.584 211.427 415.592C211.427 414.76 211.139 414.072 210.563 413.528C210.019 412.984 209.331 412.536 208.499 412.184C207.699 411.832 206.547 411.432 205.043 410.984C202.867 410.312 201.091 409.64 199.715 408.968C198.339 408.296 197.155 407.304 196.163 405.992C195.171 404.68 194.675 402.968 194.675 400.856C194.675 397.72 195.811 395.272 198.083 393.512C200.355 391.72 203.315 390.824 206.963 390.824C210.675 390.824 213.667 391.72 215.939 393.512C218.211 395.272 219.427 397.736 219.587 400.904H210.707C210.643 399.816 210.243 398.968 209.507 398.36C208.771 397.72 207.827 397.4 206.674 397.4C205.683 397.4 204.883 397.672 204.275 398.216C203.667 398.728 203.363 399.48 203.363 400.472C203.363 401.56 203.875 402.408 204.898 403.016C205.923 403.624 207.523 404.28 209.699 404.984C211.875 405.72 213.635 406.424 214.979 407.096C216.355 407.768 217.539 408.744 218.531 410.024C219.523 411.304 220.019 412.952 220.019 414.968C220.019 416.888 219.523 418.632 218.531 420.2C217.571 421.768 216.163 423.016 214.307 423.944C212.451 424.872 210.259 425.336 207.731 425.336ZM237.262 425.336C234.798 425.336 232.59 424.936 230.638 424.136C228.686 423.336 227.118 422.152 225.934 420.584C224.782 419.016 224.174 417.128 224.11 414.92H232.846C232.974 416.168 233.406 417.128 234.142 417.8C234.878 418.44 235.838 418.76 237.022 418.76C238.238 418.76 239.198 418.488 239.902 417.944C240.606 417.368 240.958 416.584 240.958 415.592C240.958 414.76 240.67 414.072 240.094 413.528C239.55 412.984 238.862 412.536 238.03 412.184C237.23 411.832 236.078 411.432 234.574 410.984C232.398 410.312 230.622 409.64 229.246 408.968C227.87 408.296 226.686 407.304 225.694 405.992C224.702 404.68 224.206 402.968 224.206 400.856C224.206 397.72 225.342 395.272 227.614 393.512C229.886 391.72 232.846 390.824 236.494 390.824C240.206 390.824 243.198 391.72 245.47 393.512C247.742 395.272 248.958 397.736 249.118 400.904H240.238C240.174 399.816 239.774 398.968 239.038 398.36C238.302 397.72 237.358 397.4 236.206 397.4C235.214 397.4 234.414 397.672 233.806 398.216C233.198 398.728 232.894 399.48 232.894 400.472C232.894 401.56 233.406 402.408 234.43 403.016C235.454 403.624 237.054 404.28 239.23 404.984C241.406 405.72 243.166 406.424 244.51 407.096C245.886 407.768 247.07 408.744 248.062 410.024C249.054 411.304 249.55 412.952 249.55 414.968C249.55 416.888 249.054 418.632 248.062 420.2C247.102 421.768 245.694 423.016 243.838 423.944C241.982 424.872 239.79 425.336 237.262 425.336Z" fill="#EEEEEE"/>
<rect x="127" y="391" width="13" height="34" fill="#E20707"/>
<path d="M180.096 499.304V522.248C180.096 525.8 179.088 528.536 177.072 530.456C175.088 532.376 172.4 533.336 169.008 533.336C165.456 533.336 162.608 532.328 160.464 530.312C158.32 528.296 157.248 525.432 157.248 521.72H165.408C165.408 523.128 165.696 524.2 166.272 524.936C166.848 525.64 167.68 525.992 168.768 525.992C169.76 525.992 170.528 525.672 171.072 525.032C171.616 524.392 171.888 523.464 171.888 522.248V499.304H180.096ZM185.094 519.56C185.094 516.808 185.606 514.392 186.63 512.312C187.686 510.232 189.11 508.632 190.902 507.512C192.694 506.392 194.694 505.832 196.902 505.832C198.79 505.832 200.438 506.216 201.846 506.984C203.286 507.752 204.39 508.76 205.158 510.008V506.216H213.366V533H205.158V529.208C204.358 530.456 203.238 531.464 201.798 532.232C200.39 533 198.742 533.384 196.854 533.384C194.678 533.384 192.694 532.824 190.902 531.704C189.11 530.552 187.686 528.936 186.63 526.856C185.606 524.744 185.094 522.312 185.094 519.56ZM205.158 519.608C205.158 517.56 204.582 515.944 203.43 514.76C202.31 513.576 200.934 512.984 199.302 512.984C197.67 512.984 196.278 513.576 195.126 514.76C194.006 515.912 193.446 517.512 193.446 519.56C193.446 521.608 194.006 523.24 195.126 524.456C196.278 525.64 197.67 526.232 199.302 526.232C200.934 526.232 202.31 525.64 203.43 524.456C204.582 523.272 205.158 521.656 205.158 519.608ZM231.352 525.32L237.16 506.216H245.896L236.392 533H226.264L216.76 506.216H225.544L231.352 525.32ZM247.719 519.56C247.719 516.808 248.231 514.392 249.255 512.312C250.311 510.232 251.735 508.632 253.527 507.512C255.319 506.392 257.319 505.832 259.527 505.832C261.415 505.832 263.063 506.216 264.471 506.984C265.911 507.752 267.015 508.76 267.783 510.008V506.216H275.991V533H267.783V529.208C266.983 530.456 265.863 531.464 264.423 532.232C263.015 533 261.367 533.384 259.479 533.384C257.303 533.384 255.319 532.824 253.527 531.704C251.735 530.552 250.311 528.936 249.255 526.856C248.231 524.744 247.719 522.312 247.719 519.56ZM267.783 519.608C267.783 517.56 267.207 515.944 266.055 514.76C264.935 513.576 263.559 512.984 261.927 512.984C260.295 512.984 258.903 513.576 257.751 514.76C256.631 515.912 256.071 517.512 256.071 519.56C256.071 521.608 256.631 523.24 257.751 524.456C258.903 525.64 260.295 526.232 261.927 526.232C263.559 526.232 264.935 525.64 266.055 524.456C267.207 523.272 267.783 521.656 267.783 519.608ZM294.121 533.336C291.657 533.336 289.449 532.936 287.497 532.136C285.545 531.336 283.977 530.152 282.793 528.584C281.641 527.016 281.033 525.128 280.969 522.92H289.705C289.833 524.168 290.265 525.128 291.001 525.8C291.737 526.44 292.697 526.76 293.881 526.76C295.097 526.76 296.057 526.488 296.761 525.944C297.465 525.368 297.817 524.584 297.817 523.592C297.817 522.76 297.529 522.072 296.953 521.528C296.409 520.984 295.721 520.536 294.889 520.184C294.089 519.832 292.937 519.432 291.433 518.984C289.257 518.312 287.481 517.64 286.105 516.968C284.729 516.296 283.545 515.304 282.553 513.992C281.561 512.68 281.065 510.968 281.065 508.856C281.065 505.72 282.201 503.272 284.473 501.512C286.745 499.72 289.705 498.824 293.353 498.824C297.065 498.824 300.057 499.72 302.329 501.512C304.601 503.272 305.817 505.736 305.977 508.904H297.097C297.033 507.816 296.633 506.968 295.897 506.36C295.161 505.72 294.217 505.4 293.065 505.4C292.073 505.4 291.273 505.672 290.665 506.216C290.057 506.728 289.753 507.48 289.753 508.472C289.753 509.56 290.265 510.408 291.289 511.016C292.313 511.624 293.913 512.28 296.089 512.984C298.265 513.72 300.025 514.424 301.369 515.096C302.745 515.768 303.929 516.744 304.921 518.024C305.913 519.304 306.409 520.952 306.409 522.968C306.409 524.888 305.913 526.632 304.921 528.2C303.961 529.768 302.553 531.016 300.697 531.944C298.841 532.872 296.649 533.336 294.121 533.336ZM309.828 519.608C309.828 516.824 310.388 514.392 311.508 512.312C312.66 510.232 314.244 508.632 316.26 507.512C318.308 506.392 320.644 505.832 323.268 505.832C326.628 505.832 329.428 506.712 331.668 508.472C333.94 510.232 335.428 512.712 336.132 515.912H327.396C326.66 513.864 325.236 512.84 323.124 512.84C321.62 512.84 320.42 513.432 319.524 514.616C318.628 515.768 318.18 517.432 318.18 519.608C318.18 521.784 318.628 523.464 319.524 524.648C320.42 525.8 321.62 526.376 323.124 526.376C325.236 526.376 326.66 525.352 327.396 523.304H336.132C335.428 526.44 333.94 528.904 331.668 530.696C329.396 532.488 326.596 533.384 323.268 533.384C320.644 533.384 318.308 532.824 316.26 531.704C314.244 530.584 312.66 528.984 311.508 526.904C310.388 524.824 309.828 522.392 309.828 519.608ZM348.731 510.68C349.691 509.208 350.891 508.056 352.331 507.224C353.771 506.36 355.371 505.928 357.131 505.928V514.616H354.875C352.827 514.616 351.291 515.064 350.267 515.96C349.243 516.824 348.731 518.36 348.731 520.568V533H340.523V506.216H348.731V510.68ZM365.182 503.432C363.742 503.432 362.558 503.016 361.63 502.184C360.734 501.32 360.286 500.264 360.286 499.016C360.286 497.736 360.734 496.68 361.63 495.848C362.558 494.984 363.742 494.552 365.182 494.552C366.59 494.552 367.742 494.984 368.638 495.848C369.566 496.68 370.03 497.736 370.03 499.016C370.03 500.264 369.566 501.32 368.638 502.184C367.742 503.016 366.59 503.432 365.182 503.432ZM369.262 506.216V533H361.054V506.216H369.262ZM383.418 510.008C384.218 508.76 385.322 507.752 386.73 506.984C388.138 506.216 389.786 505.832 391.674 505.832C393.882 505.832 395.882 506.392 397.674 507.512C399.466 508.632 400.874 510.232 401.898 512.312C402.954 514.392 403.482 516.808 403.482 519.56C403.482 522.312 402.954 524.744 401.898 526.856C400.874 528.936 399.466 530.552 397.674 531.704C395.882 532.824 393.882 533.384 391.674 533.384C389.818 533.384 388.17 533 386.73 532.232C385.322 531.464 384.218 530.472 383.418 529.256V545.768H375.21V506.216H383.418V510.008ZM395.13 519.56C395.13 517.512 394.554 515.912 393.402 514.76C392.282 513.576 390.89 512.984 389.226 512.984C387.594 512.984 386.202 513.576 385.05 514.76C383.93 515.944 383.37 517.56 383.37 519.608C383.37 521.656 383.93 523.272 385.05 524.456C386.202 525.64 387.594 526.232 389.226 526.232C390.858 526.232 392.25 525.64 393.402 524.456C394.554 523.24 395.13 521.608 395.13 519.56ZM422.717 526.04V533H418.541C415.565 533 413.245 532.28 411.581 530.84C409.917 529.368 409.085 526.984 409.085 523.688V513.032H405.821V506.216H409.085V499.688H417.293V506.216H422.669V513.032H417.293V523.784C417.293 524.584 417.485 525.16 417.869 525.512C418.253 525.864 418.893 526.04 419.789 526.04H422.717Z" fill="#EEEEEE"/>
<rect x="127" y="499" width="13" height="34" fill="#E20707"/>
<path d="M176.16 641L169.152 628.28H167.184V641H158.976V607.304H172.752C175.408 607.304 177.664 607.768 179.52 608.696C181.408 609.624 182.816 610.904 183.744 612.536C184.672 614.136 185.136 615.928 185.136 617.912C185.136 620.152 184.496 622.152 183.216 623.912C181.968 625.672 180.112 626.92 177.648 627.656L185.424 641H176.16ZM167.184 622.472H172.272C173.776 622.472 174.896 622.104 175.632 621.368C176.4 620.632 176.784 619.592 176.784 618.248C176.784 616.968 176.4 615.96 175.632 615.224C174.896 614.488 173.776 614.12 172.272 614.12H167.184V622.472ZM215.536 627.176C215.536 627.944 215.489 628.744 215.393 629.576H196.817C196.945 631.24 197.473 632.52 198.401 633.416C199.361 634.28 200.529 634.712 201.905 634.712C203.953 634.712 205.377 633.848 206.177 632.12H214.913C214.465 633.88 213.649 635.464 212.465 636.872C211.313 638.28 209.857 639.384 208.097 640.184C206.337 640.984 204.369 641.384 202.193 641.384C199.569 641.384 197.233 640.824 195.185 639.704C193.137 638.584 191.537 636.984 190.385 634.904C189.233 632.824 188.657 630.392 188.657 627.608C188.657 624.824 189.217 622.392 190.337 620.312C191.489 618.232 193.089 616.632 195.137 615.512C197.185 614.392 199.537 613.832 202.193 613.832C204.785 613.832 207.089 614.376 209.105 615.464C211.121 616.552 212.689 618.104 213.809 620.12C214.961 622.136 215.536 624.488 215.536 627.176ZM207.137 625.016C207.137 623.608 206.657 622.488 205.697 621.656C204.737 620.824 203.537 620.408 202.097 620.408C200.721 620.408 199.553 620.808 198.593 621.608C197.665 622.408 197.089 623.544 196.865 625.016H207.137ZM218.235 627.56C218.235 624.808 218.747 622.392 219.771 620.312C220.827 618.232 222.251 616.632 224.043 615.512C225.835 614.392 227.835 613.832 230.043 613.832C231.931 613.832 233.579 614.216 234.987 614.984C236.427 615.752 237.531 616.76 238.299 618.008V614.216H246.507V641H238.299V637.208C237.499 638.456 236.379 639.464 234.939 640.232C233.531 641 231.883 641.384 229.995 641.384C227.819 641.384 225.835 640.824 224.043 639.704C222.251 638.552 220.827 636.936 219.771 634.856C218.747 632.744 218.235 630.312 218.235 627.56ZM238.299 627.608C238.299 625.56 237.723 623.944 236.571 622.76C235.451 621.576 234.075 620.984 232.443 620.984C230.811 620.984 229.419 621.576 228.267 622.76C227.147 623.912 226.587 625.512 226.587 627.56C226.587 629.608 227.147 631.24 228.267 632.456C229.419 633.64 230.811 634.232 232.443 634.232C234.075 634.232 235.451 633.64 236.571 632.456C237.723 631.272 238.299 629.656 238.299 627.608ZM250.813 627.608C250.813 624.824 251.373 622.392 252.493 620.312C253.645 618.232 255.229 616.632 257.245 615.512C259.293 614.392 261.629 613.832 264.253 613.832C267.613 613.832 270.413 614.712 272.653 616.472C274.925 618.232 276.413 620.712 277.117 623.912H268.381C267.645 621.864 266.221 620.84 264.109 620.84C262.605 620.84 261.405 621.432 260.509 622.616C259.613 623.768 259.165 625.432 259.165 627.608C259.165 629.784 259.613 631.464 260.509 632.648C261.405 633.8 262.605 634.376 264.109 634.376C266.221 634.376 267.645 633.352 268.381 631.304H277.117C276.413 634.44 274.925 636.904 272.653 638.696C270.381 640.488 267.581 641.384 264.253 641.384C261.629 641.384 259.293 640.824 257.245 639.704C255.229 638.584 253.645 636.984 252.493 634.904C251.373 632.824 250.813 630.392 250.813 627.608ZM296.435 634.04V641H292.259C289.283 641 286.963 640.28 285.299 638.84C283.635 637.368 282.803 634.984 282.803 631.688V621.032H279.539V614.216H282.803V607.688H291.011V614.216H296.387V621.032H291.011V631.784C291.011 632.584 291.203 633.16 291.587 633.512C291.971 633.864 292.611 634.04 293.507 634.04H296.435Z" fill="#EEEEEE"/>
<rect x="127" y="607" width="13" height="34" fill="#E20707"/>
<path d="M176.16 749L169.152 736.28H167.184V749H158.976V715.304H172.752C175.408 715.304 177.664 715.768 179.52 716.696C181.408 717.624 182.816 718.904 183.744 720.536C184.672 722.136 185.136 723.928 185.136 725.912C185.136 728.152 184.496 730.152 183.216 731.912C181.968 733.672 180.112 734.92 177.648 735.656L185.424 749H176.16ZM167.184 730.472H172.272C173.776 730.472 174.896 730.104 175.632 729.368C176.4 728.632 176.784 727.592 176.784 726.248C176.784 724.968 176.4 723.96 175.632 723.224C174.896 722.488 173.776 722.12 172.272 722.12H167.184V730.472ZM215.536 735.176C215.536 735.944 215.489 736.744 215.393 737.576H196.817C196.945 739.24 197.473 740.52 198.401 741.416C199.361 742.28 200.529 742.712 201.905 742.712C203.953 742.712 205.377 741.848 206.177 740.12H214.913C214.465 741.88 213.649 743.464 212.465 744.872C211.313 746.28 209.857 747.384 208.097 748.184C206.337 748.984 204.369 749.384 202.193 749.384C199.569 749.384 197.233 748.824 195.185 747.704C193.137 746.584 191.537 744.984 190.385 742.904C189.233 740.824 188.657 738.392 188.657 735.608C188.657 732.824 189.217 730.392 190.337 728.312C191.489 726.232 193.089 724.632 195.137 723.512C197.185 722.392 199.537 721.832 202.193 721.832C204.785 721.832 207.089 722.376 209.105 723.464C211.121 724.552 212.689 726.104 213.809 728.12C214.961 730.136 215.536 732.488 215.536 735.176ZM207.137 733.016C207.137 731.608 206.657 730.488 205.697 729.656C204.737 728.824 203.537 728.408 202.097 728.408C200.721 728.408 199.553 728.808 198.593 729.608C197.665 730.408 197.089 731.544 196.865 733.016H207.137ZM218.235 735.56C218.235 732.808 218.747 730.392 219.771 728.312C220.827 726.232 222.251 724.632 224.043 723.512C225.835 722.392 227.835 721.832 230.043 721.832C231.803 721.832 233.403 722.2 234.843 722.936C236.315 723.672 237.467 724.664 238.299 725.912V713.48H246.507V749H238.299V745.16C237.531 746.44 236.427 747.464 234.987 748.232C233.579 749 231.931 749.384 230.043 749.384C227.835 749.384 225.835 748.824 224.043 747.704C222.251 746.552 220.827 744.936 219.771 742.856C218.747 740.744 218.235 738.312 218.235 735.56ZM238.299 735.608C238.299 733.56 237.723 731.944 236.571 730.76C235.451 729.576 234.075 728.984 232.443 728.984C230.811 728.984 229.419 729.576 228.267 730.76C227.147 731.912 226.587 733.512 226.587 735.56C226.587 737.608 227.147 739.24 228.267 740.456C229.419 741.64 230.811 742.232 232.443 742.232C234.075 742.232 235.451 741.64 236.571 740.456C237.723 739.272 238.299 737.656 238.299 735.608ZM278.893 722.216V749H270.685V745.352C269.853 746.536 268.717 747.496 267.277 748.232C265.869 748.936 264.301 749.288 262.573 749.288C260.525 749.288 258.717 748.84 257.149 747.944C255.581 747.016 254.365 745.688 253.501 743.96C252.637 742.232 252.205 740.2 252.205 737.864V722.216H260.365V736.76C260.365 738.552 260.829 739.944 261.757 740.936C262.685 741.928 263.933 742.424 265.501 742.424C267.101 742.424 268.365 741.928 269.293 740.936C270.221 739.944 270.685 738.552 270.685 736.76V722.216H278.893ZM300.629 749L295.493 741.56L291.173 749H282.293L291.125 735.32L282.053 722.216H291.269L296.405 729.608L300.725 722.216H309.605L300.629 735.704L309.845 749H300.629Z" fill="#EEEEEE"/>
<rect x="127" y="715" width="13" height="34" fill="#E20707"/>
<path d="M536.04 283.304V303.464C536.04 305.48 536.536 307.032 537.528 308.12C538.52 309.208 539.976 309.752 541.896 309.752C543.816 309.752 545.288 309.208 546.312 308.12C547.336 307.032 547.848 305.48 547.848 303.464V283.304H556.056V303.416C556.056 306.424 555.416 308.968 554.136 311.048C552.856 313.128 551.128 314.696 548.952 315.752C546.808 316.808 544.408 317.336 541.752 317.336C539.096 317.336 536.712 316.824 534.6 315.8C532.52 314.744 530.872 313.176 529.656 311.096C528.44 308.984 527.832 306.424 527.832 303.416V283.304H536.04ZM570.028 283.304V317H561.82V283.304H570.028ZM594.264 271.4L581.4 325.976H573.48L586.344 271.4H594.264ZM605.79 283.304V303.464C605.79 305.48 606.286 307.032 607.278 308.12C608.27 309.208 609.726 309.752 611.646 309.752C613.566 309.752 615.038 309.208 616.062 308.12C617.086 307.032 617.598 305.48 617.598 303.464V283.304H625.806V303.416C625.806 306.424 625.166 308.968 623.886 311.048C622.606 313.128 620.878 314.696 618.702 315.752C616.558 316.808 614.158 317.336 611.502 317.336C608.846 317.336 606.462 316.824 604.35 315.8C602.27 314.744 600.622 313.176 599.406 311.096C598.19 308.984 597.582 306.424 597.582 303.416V283.304H605.79ZM652.21 317L645.346 306.68L639.298 317H629.986L640.786 299.864L629.746 283.304H639.298L646.066 293.48L652.018 283.304H661.33L650.626 300.296L661.762 317H652.21ZM688.678 283.304C692.23 283.304 695.334 284.008 697.99 285.416C700.646 286.824 702.694 288.808 704.134 291.368C705.606 293.896 706.342 296.824 706.342 300.152C706.342 303.448 705.606 306.376 704.134 308.936C702.694 311.496 700.63 313.48 697.942 314.888C695.286 316.296 692.198 317 688.678 317H676.054V283.304H688.678ZM688.15 309.896C691.254 309.896 693.67 309.048 695.398 307.352C697.126 305.656 697.99 303.256 697.99 300.152C697.99 297.048 697.126 294.632 695.398 292.904C693.67 291.176 691.254 290.312 688.15 290.312H684.262V309.896H688.15ZM736.177 303.176C736.177 303.944 736.129 304.744 736.033 305.576H717.457C717.585 307.24 718.113 308.52 719.041 309.416C720.001 310.28 721.169 310.712 722.545 310.712C724.593 310.712 726.017 309.848 726.817 308.12H735.553C735.105 309.88 734.289 311.464 733.105 312.872C731.953 314.28 730.497 315.384 728.737 316.184C726.977 316.984 725.009 317.384 722.833 317.384C720.209 317.384 717.873 316.824 715.825 315.704C713.777 314.584 712.177 312.984 711.025 310.904C709.873 308.824 709.297 306.392 709.297 303.608C709.297 300.824 709.857 298.392 710.977 296.312C712.129 294.232 713.729 292.632 715.777 291.512C717.825 290.392 720.177 289.832 722.833 289.832C725.425 289.832 727.729 290.376 729.745 291.464C731.761 292.552 733.329 294.104 734.449 296.12C735.601 298.136 736.177 300.488 736.177 303.176ZM727.777 301.016C727.777 299.608 727.297 298.488 726.337 297.656C725.377 296.824 724.177 296.408 722.737 296.408C721.361 296.408 720.193 296.808 719.233 297.608C718.305 298.408 717.729 299.544 717.505 301.016H727.777ZM751.403 317.384C749.067 317.384 746.987 316.984 745.163 316.184C743.339 315.384 741.899 314.296 740.843 312.92C739.787 311.512 739.195 309.944 739.067 308.216H747.179C747.275 309.144 747.707 309.896 748.475 310.472C749.243 311.048 750.187 311.336 751.307 311.336C752.331 311.336 753.115 311.144 753.659 310.76C754.235 310.344 754.523 309.816 754.523 309.176C754.523 308.408 754.123 307.848 753.323 307.496C752.523 307.112 751.227 306.696 749.435 306.248C747.515 305.8 745.915 305.336 744.635 304.856C743.355 304.344 742.251 303.56 741.323 302.504C740.395 301.416 739.931 299.96 739.931 298.136C739.931 296.6 740.347 295.208 741.179 293.96C742.043 292.68 743.291 291.672 744.923 290.936C746.587 290.2 748.555 289.832 750.827 289.832C754.187 289.832 756.827 290.664 758.747 292.328C760.699 293.992 761.819 296.2 762.107 298.952H754.523C754.395 298.024 753.979 297.288 753.275 296.744C752.603 296.2 751.707 295.928 750.587 295.928C749.627 295.928 748.891 296.12 748.379 296.504C747.867 296.856 747.611 297.352 747.611 297.992C747.611 298.76 748.011 299.336 748.811 299.72C749.643 300.104 750.923 300.488 752.651 300.872C754.635 301.384 756.251 301.896 757.499 302.408C758.747 302.888 759.835 303.688 760.763 304.808C761.723 305.896 762.219 307.368 762.251 309.224C762.251 310.792 761.803 312.2 760.907 313.448C760.043 314.664 758.779 315.624 757.115 316.328C755.483 317.032 753.579 317.384 751.403 317.384ZM771.401 287.432C769.961 287.432 768.777 287.016 767.849 286.184C766.953 285.32 766.505 284.264 766.505 283.016C766.505 281.736 766.953 280.68 767.849 279.848C768.777 278.984 769.961 278.552 771.401 278.552C772.809 278.552 773.961 278.984 774.857 279.848C775.785 280.68 776.249 281.736 776.249 283.016C776.249 284.264 775.785 285.32 774.857 286.184C773.961 287.016 772.809 287.432 771.401 287.432ZM775.481 290.216V317H767.273V290.216H775.481ZM791.605 289.832C793.493 289.832 795.141 290.216 796.549 290.984C797.989 291.752 799.093 292.76 799.861 294.008V290.216H808.069V316.952C808.069 319.416 807.573 321.64 806.581 323.624C805.621 325.64 804.133 327.24 802.117 328.424C800.133 329.608 797.653 330.2 794.677 330.2C790.709 330.2 787.493 329.256 785.029 327.368C782.565 325.512 781.157 322.984 780.805 319.784H788.917C789.173 320.808 789.781 321.608 790.741 322.184C791.701 322.792 792.885 323.096 794.293 323.096C795.989 323.096 797.333 322.6 798.325 321.608C799.349 320.648 799.861 319.096 799.861 316.952V313.16C799.061 314.408 797.957 315.432 796.549 316.232C795.141 317 793.493 317.384 791.605 317.384C789.397 317.384 787.397 316.824 785.605 315.704C783.813 314.552 782.389 312.936 781.333 310.856C780.309 308.744 779.797 306.312 779.797 303.56C779.797 300.808 780.309 298.392 781.333 296.312C782.389 294.232 783.813 292.632 785.605 291.512C787.397 290.392 789.397 289.832 791.605 289.832ZM799.861 303.608C799.861 301.56 799.285 299.944 798.133 298.76C797.013 297.576 795.637 296.984 794.005 296.984C792.373 296.984 790.981 297.576 789.829 298.76C788.709 299.912 788.149 301.512 788.149 303.56C788.149 305.608 788.709 307.24 789.829 308.456C790.981 309.64 792.373 310.232 794.005 310.232C795.637 310.232 797.013 309.64 798.133 308.456C799.285 307.272 799.861 305.656 799.861 303.608ZM830.327 289.928C833.463 289.928 835.959 290.952 837.815 293C839.703 295.016 840.647 297.8 840.647 301.352V317H832.487V302.456C832.487 300.664 832.023 299.272 831.095 298.28C830.167 297.288 828.919 296.792 827.351 296.792C825.783 296.792 824.535 297.288 823.607 298.28C822.679 299.272 822.215 300.664 822.215 302.456V317H814.007V290.216H822.215V293.768C823.047 292.584 824.167 291.656 825.575 290.984C826.983 290.28 828.567 289.928 830.327 289.928Z" fill="#EEEEEE"/>
<rect x="496" y="283" width="13" height="34" fill="#E20707"/>
<path d="M550.344 401.96C549.736 400.84 548.856 399.992 547.704 399.416C546.584 398.808 545.256 398.504 543.72 398.504C541.064 398.504 538.936 399.384 537.336 401.144C535.736 402.872 534.936 405.192 534.936 408.104C534.936 411.208 535.768 413.64 537.432 415.4C539.128 417.128 541.448 417.992 544.392 417.992C546.408 417.992 548.104 417.48 549.48 416.456C550.888 415.432 551.912 413.96 552.552 412.04H542.136V405.992H559.992V413.624C559.384 415.672 558.344 417.576 556.872 419.336C555.432 421.096 553.592 422.52 551.352 423.608C549.112 424.696 546.584 425.24 543.768 425.24C540.44 425.24 537.464 424.52 534.84 423.08C532.248 421.608 530.216 419.576 528.744 416.984C527.304 414.392 526.584 411.432 526.584 408.104C526.584 404.776 527.304 401.816 528.744 399.224C530.216 396.6 532.248 394.568 534.84 393.128C537.432 391.656 540.392 390.92 543.72 390.92C547.752 390.92 551.144 391.896 553.896 393.848C556.68 395.8 558.52 398.504 559.416 401.96H550.344ZM568.667 395.432C567.227 395.432 566.043 395.016 565.115 394.184C564.219 393.32 563.771 392.264 563.771 391.016C563.771 389.736 564.219 388.68 565.115 387.848C566.043 386.984 567.227 386.552 568.667 386.552C570.075 386.552 571.227 386.984 572.123 387.848C573.051 388.68 573.515 389.736 573.515 391.016C573.515 392.264 573.051 393.32 572.123 394.184C571.227 395.016 570.075 395.432 568.667 395.432ZM572.747 398.216V425H564.539V398.216H572.747ZM593.623 418.04V425H589.447C586.471 425 584.151 424.28 582.487 422.84C580.823 421.368 579.991 418.984 579.991 415.688V405.032H576.727V398.216H579.991V391.688H588.199V398.216H593.575V405.032H588.199V415.784C588.199 416.584 588.391 417.16 588.775 417.512C589.159 417.864 589.799 418.04 590.695 418.04H593.623Z" fill="#EEEEEE"/>
<rect x="496" y="391" width="13" height="34" fill="#E20707"/>
<path d="M566.136 499.304V533H557.928V512.792L550.392 533H543.768L536.184 512.744V533H527.976V499.304H537.672L547.128 522.632L556.488 499.304H566.136ZM584.231 533.384C581.607 533.384 579.239 532.824 577.127 531.704C575.047 530.584 573.399 528.984 572.183 526.904C570.999 524.824 570.407 522.392 570.407 519.608C570.407 516.856 571.015 514.44 572.23 512.36C573.447 510.248 575.111 508.632 577.223 507.512C579.335 506.392 581.703 505.832 584.327 505.832C586.951 505.832 589.319 506.392 591.431 507.512C593.543 508.632 595.207 510.248 596.423 512.36C597.639 514.44 598.247 516.856 598.247 519.608C598.247 522.36 597.623 524.792 596.375 526.904C595.159 528.984 593.479 530.584 591.335 531.704C589.223 532.824 586.855 533.384 584.231 533.384ZM584.231 526.28C585.799 526.28 587.127 525.704 588.215 524.552C589.335 523.4 589.895 521.752 589.895 519.608C589.895 517.464 589.351 515.816 588.263 514.664C587.207 513.512 585.895 512.936 584.327 512.936C582.727 512.936 581.399 513.512 580.343 514.664C579.287 515.784 578.759 517.432 578.759 519.608C578.759 521.752 579.271 523.4 580.295 524.552C581.351 525.704 582.663 526.28 584.231 526.28ZM618.921 505.928C622.057 505.928 624.553 506.952 626.409 509C628.297 511.016 629.241 513.8 629.241 517.352V533H621.081V518.456C621.081 516.664 620.617 515.272 619.689 514.28C618.761 513.288 617.513 512.792 615.945 512.792C614.377 512.792 613.129 513.288 612.201 514.28C611.273 515.272 610.809 516.664 610.809 518.456V533H602.601V506.216H610.809V509.768C611.641 508.584 612.761 507.656 614.169 506.984C615.577 506.28 617.161 505.928 618.921 505.928ZM645.121 505.832C647.009 505.832 648.657 506.216 650.065 506.984C651.505 507.752 652.609 508.76 653.377 510.008V506.216H661.585V532.952C661.585 535.416 661.089 537.64 660.097 539.624C659.137 541.64 657.649 543.24 655.633 544.424C653.649 545.608 651.169 546.2 648.193 546.2C644.225 546.2 641.009 545.256 638.545 543.368C636.081 541.512 634.673 538.984 634.321 535.784H642.433C642.689 536.808 643.297 537.608 644.257 538.184C645.217 538.792 646.401 539.096 647.809 539.096C649.505 539.096 650.849 538.6 651.841 537.608C652.865 536.648 653.377 535.096 653.377 532.952V529.16C652.577 530.408 651.473 531.432 650.065 532.232C648.657 533 647.009 533.384 645.121 533.384C642.913 533.384 640.913 532.824 639.121 531.704C637.329 530.552 635.905 528.936 634.849 526.856C633.825 524.744 633.313 522.312 633.313 519.56C633.313 516.808 633.825 514.392 634.849 512.312C635.905 510.232 637.329 508.632 639.121 507.512C640.913 506.392 642.913 505.832 645.121 505.832ZM653.377 519.608C653.377 517.56 652.801 515.944 651.649 514.76C650.529 513.576 649.153 512.984 647.521 512.984C645.889 512.984 644.497 513.576 643.345 514.76C642.225 515.912 641.665 517.512 641.665 519.56C641.665 521.608 642.225 523.24 643.345 524.456C644.497 525.64 645.889 526.232 647.521 526.232C649.153 526.232 650.529 525.64 651.649 524.456C652.801 523.272 653.377 521.656 653.377 519.608ZM679.715 533.384C677.091 533.384 674.723 532.824 672.611 531.704C670.531 530.584 668.883 528.984 667.667 526.904C666.483 524.824 665.891 522.392 665.891 519.608C665.891 516.856 666.499 514.44 667.715 512.36C668.931 510.248 670.595 508.632 672.707 507.512C674.819 506.392 677.187 505.832 679.811 505.832C682.435 505.832 684.803 506.392 686.915 507.512C689.027 508.632 690.691 510.248 691.907 512.36C693.123 514.44 693.731 516.856 693.731 519.608C693.731 522.36 693.107 524.792 691.859 526.904C690.643 528.984 688.963 530.584 686.819 531.704C684.707 532.824 682.339 533.384 679.715 533.384ZM679.715 526.28C681.283 526.28 682.611 525.704 683.699 524.552C684.819 523.4 685.379 521.752 685.379 519.608C685.379 517.464 684.835 515.816 683.747 514.664C682.691 513.512 681.379 512.936 679.811 512.936C678.211 512.936 676.883 513.512 675.827 514.664C674.771 515.784 674.243 517.432 674.243 519.608C674.243 521.752 674.755 523.4 675.779 524.552C676.835 525.704 678.147 526.28 679.715 526.28ZM710.709 499.304C714.261 499.304 717.365 500.008 720.021 501.416C722.677 502.824 724.725 504.808 726.165 507.368C727.637 509.896 728.373 512.824 728.373 516.152C728.373 519.448 727.637 522.376 726.165 524.936C724.725 527.496 722.661 529.48 719.973 530.888C717.317 532.296 714.229 533 710.709 533H698.085V499.304H710.709ZM710.181 525.896C713.285 525.896 715.701 525.048 717.429 523.352C719.157 521.656 720.021 519.256 720.021 516.152C720.021 513.048 719.157 510.632 717.429 508.904C715.701 507.176 713.285 506.312 710.181 506.312H706.293V525.896H710.181ZM753.36 515.72C755.312 516.136 756.88 517.112 758.064 518.648C759.248 520.152 759.84 521.88 759.84 523.832C759.84 526.648 758.848 528.888 756.864 530.552C754.912 532.184 752.176 533 748.656 533H732.96V499.304H748.128C751.552 499.304 754.224 500.088 756.144 501.656C758.096 503.224 759.072 505.352 759.072 508.04C759.072 510.024 758.544 511.672 757.488 512.984C756.464 514.296 755.088 515.208 753.36 515.72ZM741.168 512.936H746.544C747.888 512.936 748.912 512.648 749.616 512.072C750.352 511.464 750.72 510.584 750.72 509.432C750.72 508.28 750.352 507.4 749.616 506.792C748.912 506.184 747.888 505.88 746.544 505.88H741.168V512.936ZM747.216 526.376C748.592 526.376 749.648 526.072 750.384 525.464C751.152 524.824 751.536 523.912 751.536 522.728C751.536 521.544 751.136 520.616 750.336 519.944C749.568 519.272 748.496 518.936 747.12 518.936H741.168V526.376H747.216Z" fill="#EEEEEE"/>
<rect x="496" y="499" width="13" height="34" fill="#E20707"/>
<rect x="65" y="868" width="1070" height="2" fill="#E20707"/>
</svg>
