<svg width="1200" height="1908" viewBox="0 0 1200 1908" fill="none" xmlns="http://www.w3.org/2000/svg">
<path d="M0 8H1200V958V1908H0V8Z" fill="black"/>
<path d="M182.98 120.012V186H166.906V158.834H141.902V186H125.828V120.012H141.902V145.862H166.906V120.012H182.98ZM191.388 159.68C191.388 154.291 192.391 149.559 194.396 145.486C196.464 141.413 199.253 138.279 202.762 136.086C206.271 133.893 210.188 132.796 214.512 132.796C218.209 132.796 221.437 133.548 224.194 135.052C227.014 136.556 229.176 138.53 230.68 140.974V133.548H246.754V186H230.68V178.574C229.113 181.018 226.92 182.992 224.1 184.496C221.343 186 218.115 186.752 214.418 186.752C210.157 186.752 206.271 185.655 202.762 183.462C199.253 181.206 196.464 178.041 194.396 173.968C192.391 169.832 191.388 165.069 191.388 159.68ZM230.68 159.774C230.68 155.763 229.552 152.599 227.296 150.28C225.103 147.961 222.408 146.802 219.212 146.802C216.016 146.802 213.29 147.961 211.034 150.28C208.841 152.536 207.744 155.669 207.744 159.68C207.744 163.691 208.841 166.887 211.034 169.268C213.29 171.587 216.016 172.746 219.212 172.746C222.408 172.746 225.103 171.587 227.296 169.268C229.552 166.949 230.68 163.785 230.68 159.774ZM274.457 140.974C275.961 138.53 278.123 136.556 280.943 135.052C283.763 133.548 286.99 132.796 290.625 132.796C294.949 132.796 298.865 133.893 302.375 136.086C305.884 138.279 308.641 141.413 310.647 145.486C312.715 149.559 313.749 154.291 313.749 159.68C313.749 165.069 312.715 169.832 310.647 173.968C308.641 178.041 305.884 181.206 302.375 183.462C298.865 185.655 294.949 186.752 290.625 186.752C286.927 186.752 283.7 186.031 280.943 184.59C278.185 183.086 276.023 181.112 274.457 178.668V186H258.383V116.44H274.457V140.974ZM297.393 159.68C297.393 155.669 296.265 152.536 294.009 150.28C291.815 147.961 289.089 146.802 285.831 146.802C282.635 146.802 279.909 147.961 277.653 150.28C275.459 152.599 274.363 155.763 274.363 159.774C274.363 163.785 275.459 166.949 277.653 169.268C279.909 171.587 282.635 172.746 285.831 172.746C289.027 172.746 291.753 171.587 294.009 169.268C296.265 166.887 297.393 163.691 297.393 159.68ZM330.266 128.096C327.446 128.096 325.127 127.281 323.31 125.652C321.555 123.96 320.678 121.892 320.678 119.448C320.678 116.941 321.555 114.873 323.31 113.244C325.127 111.552 327.446 110.706 330.266 110.706C333.023 110.706 335.279 111.552 337.034 113.244C338.851 114.873 339.76 116.941 339.76 119.448C339.76 121.892 338.851 123.96 337.034 125.652C335.279 127.281 333.023 128.096 330.266 128.096ZM338.256 133.548V186H322.182V133.548H338.256ZM365.978 116.44V186H349.904V116.44H365.978ZM385.711 128.096C382.891 128.096 380.572 127.281 378.755 125.652C377 123.96 376.123 121.892 376.123 119.448C376.123 116.941 377 114.873 378.755 113.244C380.572 111.552 382.891 110.706 385.711 110.706C388.468 110.706 390.724 111.552 392.479 113.244C394.296 114.873 395.205 116.941 395.205 119.448C395.205 121.892 394.296 123.96 392.479 125.652C390.724 127.281 388.468 128.096 385.711 128.096ZM393.701 133.548V186H377.627V133.548H393.701ZM402.153 159.68C402.153 154.291 403.156 149.559 405.161 145.486C407.229 141.413 410.018 138.279 413.527 136.086C417.037 133.893 420.953 132.796 425.277 132.796C428.724 132.796 431.857 133.517 434.677 134.958C437.56 136.399 439.816 138.342 441.445 140.786V116.44H457.519V186H441.445V178.48C439.941 180.987 437.779 182.992 434.959 184.496C432.202 186 428.975 186.752 425.277 186.752C420.953 186.752 417.037 185.655 413.527 183.462C410.018 181.206 407.229 178.041 405.161 173.968C403.156 169.832 402.153 165.069 402.153 159.68ZM441.445 159.774C441.445 155.763 440.317 152.599 438.061 150.28C435.868 147.961 433.173 146.802 429.977 146.802C426.781 146.802 424.055 147.961 421.799 150.28C419.606 152.536 418.509 155.669 418.509 159.68C418.509 163.691 419.606 166.887 421.799 169.268C424.055 171.587 426.781 172.746 429.977 172.746C433.173 172.746 435.868 171.587 438.061 169.268C440.317 166.949 441.445 163.785 441.445 159.774ZM465.952 159.68C465.952 154.291 466.955 149.559 468.96 145.486C471.028 141.413 473.817 138.279 477.326 136.086C480.836 133.893 484.752 132.796 489.076 132.796C492.774 132.796 496.001 133.548 498.758 135.052C501.578 136.556 503.74 138.53 505.244 140.974V133.548H521.318V186H505.244V178.574C503.678 181.018 501.484 182.992 498.664 184.496C495.907 186 492.68 186.752 488.982 186.752C484.721 186.752 480.836 185.655 477.326 183.462C473.817 181.206 471.028 178.041 468.96 173.968C466.955 169.832 465.952 165.069 465.952 159.68ZM505.244 159.774C505.244 155.763 504.116 152.599 501.86 150.28C499.667 147.961 496.972 146.802 493.776 146.802C490.58 146.802 487.854 147.961 485.598 150.28C483.405 152.536 482.308 155.669 482.308 159.68C482.308 163.691 483.405 166.887 485.598 169.268C487.854 171.587 490.58 172.746 493.776 172.746C496.972 172.746 499.667 171.587 501.86 169.268C504.116 166.949 505.244 163.785 505.244 159.774ZM529.751 159.68C529.751 154.291 530.754 149.559 532.759 145.486C534.827 141.413 537.616 138.279 541.125 136.086C544.634 133.893 548.551 132.796 552.875 132.796C556.322 132.796 559.455 133.517 562.275 134.958C565.158 136.399 567.414 138.342 569.043 140.786V116.44H585.117V186H569.043V178.48C567.539 180.987 565.377 182.992 562.557 184.496C559.8 186 556.572 186.752 552.875 186.752C548.551 186.752 544.634 185.655 541.125 183.462C537.616 181.206 534.827 178.041 532.759 173.968C530.754 169.832 529.751 165.069 529.751 159.68ZM569.043 159.774C569.043 155.763 567.915 152.599 565.659 150.28C563.466 147.961 560.771 146.802 557.575 146.802C554.379 146.802 551.653 147.961 549.397 150.28C547.204 152.536 546.107 155.669 546.107 159.68C546.107 163.691 547.204 166.887 549.397 169.268C551.653 171.587 554.379 172.746 557.575 172.746C560.771 172.746 563.466 171.587 565.659 169.268C567.915 166.949 569.043 163.785 569.043 159.774ZM646.19 158.928C646.19 160.432 646.096 161.999 645.908 163.628H609.53C609.781 166.887 610.815 169.393 612.632 171.148C614.512 172.84 616.799 173.686 619.494 173.686C623.505 173.686 626.293 171.994 627.86 168.61H644.968C644.091 172.057 642.493 175.159 640.174 177.916C637.918 180.673 635.067 182.835 631.62 184.402C628.173 185.969 624.319 186.752 620.058 186.752C614.919 186.752 610.345 185.655 606.334 183.462C602.323 181.269 599.19 178.135 596.934 174.062C594.678 169.989 593.55 165.226 593.55 159.774C593.55 154.322 594.647 149.559 596.84 145.486C599.096 141.413 602.229 138.279 606.24 136.086C610.251 133.893 614.857 132.796 620.058 132.796C625.134 132.796 629.646 133.861 633.594 135.992C637.542 138.123 640.613 141.162 642.806 145.11C645.062 149.058 646.19 153.664 646.19 158.928ZM629.74 154.698C629.74 151.941 628.8 149.747 626.92 148.118C625.04 146.489 622.69 145.674 619.87 145.674C617.175 145.674 614.888 146.457 613.008 148.024C611.191 149.591 610.063 151.815 609.624 154.698H629.74ZM676.008 186.752C671.433 186.752 667.36 185.969 663.788 184.402C660.216 182.835 657.396 180.705 655.328 178.01C653.26 175.253 652.1 172.182 651.85 168.798H667.736C667.924 170.615 668.77 172.088 670.274 173.216C671.778 174.344 673.626 174.908 675.82 174.908C677.825 174.908 679.36 174.532 680.426 173.78C681.554 172.965 682.118 171.931 682.118 170.678C682.118 169.174 681.334 168.077 679.768 167.388C678.201 166.636 675.663 165.821 672.154 164.944C668.394 164.067 665.26 163.158 662.754 162.218C660.247 161.215 658.085 159.68 656.268 157.612C654.45 155.481 653.542 152.63 653.542 149.058C653.542 146.05 654.356 143.324 655.986 140.88C657.678 138.373 660.122 136.399 663.318 134.958C666.576 133.517 670.43 132.796 674.88 132.796C681.46 132.796 686.63 134.425 690.39 137.684C694.212 140.943 696.406 145.267 696.97 150.656H682.118C681.867 148.839 681.052 147.397 679.674 146.332C678.358 145.267 676.603 144.734 674.41 144.734C672.53 144.734 671.088 145.11 670.086 145.862C669.083 146.551 668.582 147.523 668.582 148.776C668.582 150.28 669.365 151.408 670.932 152.16C672.561 152.912 675.068 153.664 678.452 154.416C682.337 155.419 685.502 156.421 687.946 157.424C690.39 158.364 692.52 159.931 694.338 162.124C696.218 164.255 697.189 167.137 697.252 170.772C697.252 173.843 696.374 176.6 694.62 179.044C692.928 181.425 690.452 183.305 687.194 184.684C683.998 186.063 680.269 186.752 676.008 186.752Z" fill="white"/>
<path d="M148.902 1115.01V1181H132.828V1115.01H148.902ZM157.355 1154.68C157.355 1149.29 158.357 1144.56 160.363 1140.49C162.431 1136.41 165.219 1133.28 168.729 1131.09C172.238 1128.89 176.155 1127.8 180.479 1127.8C183.925 1127.8 187.059 1128.52 189.879 1129.96C192.761 1131.4 195.017 1133.34 196.647 1135.79V1111.44H212.721V1181H196.647V1173.48C195.143 1175.99 192.981 1177.99 190.161 1179.5C187.403 1181 184.176 1181.75 180.479 1181.75C176.155 1181.75 172.238 1180.66 168.729 1178.46C165.219 1176.21 162.431 1173.04 160.363 1168.97C158.357 1164.83 157.355 1160.07 157.355 1154.68ZM196.647 1154.77C196.647 1150.76 195.519 1147.6 193.263 1145.28C191.069 1142.96 188.375 1141.8 185.179 1141.8C181.983 1141.8 179.257 1142.96 177.001 1145.28C174.807 1147.54 173.711 1150.67 173.711 1154.68C173.711 1158.69 174.807 1161.89 177.001 1164.27C179.257 1166.59 181.983 1167.75 185.179 1167.75C188.375 1167.75 191.069 1166.59 193.263 1164.27C195.519 1161.95 196.647 1158.78 196.647 1154.77ZM232.433 1123.1C229.613 1123.1 227.295 1122.28 225.477 1120.65C223.723 1118.96 222.845 1116.89 222.845 1114.45C222.845 1111.94 223.723 1109.87 225.477 1108.24C227.295 1106.55 229.613 1105.71 232.433 1105.71C235.191 1105.71 237.447 1106.55 239.201 1108.24C241.019 1109.87 241.927 1111.94 241.927 1114.45C241.927 1116.89 241.019 1118.96 239.201 1120.65C237.447 1122.28 235.191 1123.1 232.433 1123.1ZM240.423 1128.55V1181H224.349V1128.55H240.423ZM275.948 1181.75C270.809 1181.75 266.172 1180.66 262.036 1178.46C257.963 1176.27 254.735 1173.14 252.354 1169.06C250.035 1164.99 248.876 1160.23 248.876 1154.77C248.876 1149.38 250.067 1144.65 252.448 1140.58C254.829 1136.44 258.088 1133.28 262.224 1131.09C266.36 1128.89 270.997 1127.8 276.136 1127.8C281.275 1127.8 285.912 1128.89 290.048 1131.09C294.184 1133.28 297.443 1136.44 299.824 1140.58C302.205 1144.65 303.396 1149.38 303.396 1154.77C303.396 1160.16 302.174 1164.93 299.73 1169.06C297.349 1173.14 294.059 1176.27 289.86 1178.46C285.724 1180.66 281.087 1181.75 275.948 1181.75ZM275.948 1167.84C279.019 1167.84 281.619 1166.71 283.75 1164.46C285.943 1162.2 287.04 1158.97 287.04 1154.77C287.04 1150.58 285.975 1147.35 283.844 1145.09C281.776 1142.84 279.207 1141.71 276.136 1141.71C273.003 1141.71 270.402 1142.84 268.334 1145.09C266.266 1147.29 265.232 1150.51 265.232 1154.77C265.232 1158.97 266.235 1162.2 268.24 1164.46C270.308 1166.71 272.877 1167.84 275.948 1167.84ZM378.852 1127.98C385.369 1127.98 390.539 1129.96 394.362 1133.91C398.247 1137.85 400.19 1143.34 400.19 1150.36V1181H384.21V1152.52C384.21 1149.13 383.301 1146.53 381.484 1144.72C379.729 1142.84 377.285 1141.9 374.152 1141.9C371.018 1141.9 368.543 1142.84 366.726 1144.72C364.971 1146.53 364.094 1149.13 364.094 1152.52V1181H348.114V1152.52C348.114 1149.13 347.205 1146.53 345.388 1144.72C343.633 1142.84 341.189 1141.9 338.056 1141.9C334.922 1141.9 332.447 1142.84 330.63 1144.72C328.875 1146.53 327.998 1149.13 327.998 1152.52V1181H311.924V1128.55H327.998V1135.13C329.627 1132.93 331.758 1131.21 334.39 1129.96C337.022 1128.64 339.998 1127.98 343.32 1127.98C347.268 1127.98 350.777 1128.83 353.848 1130.52C356.981 1132.21 359.425 1134.63 361.18 1137.76C362.997 1134.88 365.472 1132.53 368.606 1130.71C371.739 1128.89 375.154 1127.98 378.852 1127.98ZM408.236 1154.68C408.236 1149.29 409.238 1144.56 411.244 1140.49C413.312 1136.41 416.1 1133.28 419.61 1131.09C423.119 1128.89 427.036 1127.8 431.36 1127.8C435.057 1127.8 438.284 1128.55 441.042 1130.05C443.862 1131.56 446.024 1133.53 447.528 1135.97V1128.55H463.602V1181H447.528V1173.57C445.961 1176.02 443.768 1177.99 440.948 1179.5C438.19 1181 434.963 1181.75 431.266 1181.75C427.004 1181.75 423.119 1180.66 419.61 1178.46C416.1 1176.21 413.312 1173.04 411.244 1168.97C409.238 1164.83 408.236 1160.07 408.236 1154.68ZM447.528 1154.77C447.528 1150.76 446.4 1147.6 444.144 1145.28C441.95 1142.96 439.256 1141.8 436.06 1141.8C432.864 1141.8 430.138 1142.96 427.882 1145.28C425.688 1147.54 424.592 1150.67 424.592 1154.68C424.592 1158.69 425.688 1161.89 427.882 1164.27C430.138 1166.59 432.864 1167.75 436.06 1167.75C439.256 1167.75 441.95 1166.59 444.144 1164.27C446.4 1161.95 447.528 1158.78 447.528 1154.77ZM496.568 1181.75C491.994 1181.75 487.92 1180.97 484.348 1179.4C480.776 1177.84 477.956 1175.7 475.888 1173.01C473.82 1170.25 472.661 1167.18 472.41 1163.8H488.296C488.484 1165.62 489.33 1167.09 490.834 1168.22C492.338 1169.34 494.187 1169.91 496.38 1169.91C498.386 1169.91 499.921 1169.53 500.986 1168.78C502.114 1167.97 502.678 1166.93 502.678 1165.68C502.678 1164.17 501.895 1163.08 500.328 1162.39C498.762 1161.64 496.224 1160.82 492.714 1159.94C488.954 1159.07 485.821 1158.16 483.314 1157.22C480.808 1156.22 478.646 1154.68 476.828 1152.61C475.011 1150.48 474.102 1147.63 474.102 1144.06C474.102 1141.05 474.917 1138.32 476.546 1135.88C478.238 1133.37 480.682 1131.4 483.878 1129.96C487.137 1128.52 490.991 1127.8 495.44 1127.8C502.02 1127.8 507.19 1129.43 510.95 1132.68C514.773 1135.94 516.966 1140.27 517.53 1145.66H502.678C502.428 1143.84 501.613 1142.4 500.234 1141.33C498.918 1140.27 497.164 1139.73 494.97 1139.73C493.09 1139.73 491.649 1140.11 490.646 1140.86C489.644 1141.55 489.142 1142.52 489.142 1143.78C489.142 1145.28 489.926 1146.41 491.492 1147.16C493.122 1147.91 495.628 1148.66 499.012 1149.42C502.898 1150.42 506.062 1151.42 508.506 1152.42C510.95 1153.36 513.081 1154.93 514.898 1157.12C516.778 1159.25 517.75 1162.14 517.812 1165.77C517.812 1168.84 516.935 1171.6 515.18 1174.04C513.488 1176.43 511.013 1178.31 507.754 1179.68C504.558 1181.06 500.83 1181.75 496.568 1181.75Z" fill="white"/>
<path d="M188.16 283.304V317H179.952V303.128H167.184V317H158.976V283.304H167.184V296.504H179.952V283.304H188.16ZM218.325 283.304V289.88H209.397V317H201.189V289.88H192.261V283.304H218.325ZM260.605 283.304V317H252.397V296.792L244.861 317H238.237L230.653 296.744V317H222.445V283.304H232.141L241.597 306.632L250.957 283.304H260.605ZM274.715 310.664H285.467V317H266.507V283.304H274.715V310.664Z" fill="#EEEEEE"/>
<rect x="127" y="283" width="13" height="34" fill="#E20707"/>
<path d="M174.184 1278.3V1312H165.976V1278.3H174.184ZM196.452 1284.93C199.588 1284.93 202.084 1285.95 203.94 1288C205.828 1290.02 206.772 1292.8 206.772 1296.35V1312H198.612V1297.46C198.612 1295.66 198.148 1294.27 197.22 1293.28C196.292 1292.29 195.044 1291.79 193.476 1291.79C191.908 1291.79 190.66 1292.29 189.732 1293.28C188.804 1294.27 188.34 1295.66 188.34 1297.46V1312H180.132V1285.22H188.34V1288.77C189.172 1287.58 190.292 1286.66 191.7 1285.98C193.108 1285.28 194.692 1284.93 196.452 1284.93ZM222.652 1284.83C224.54 1284.83 226.188 1285.22 227.596 1285.98C229.036 1286.75 230.14 1287.76 230.908 1289.01V1285.22H239.116V1311.95C239.116 1314.42 238.62 1316.64 237.628 1318.62C236.668 1320.64 235.18 1322.24 233.164 1323.42C231.18 1324.61 228.7 1325.2 225.724 1325.2C221.756 1325.2 218.54 1324.26 216.076 1322.37C213.612 1320.51 212.204 1317.98 211.852 1314.78H219.964C220.22 1315.81 220.828 1316.61 221.788 1317.18C222.748 1317.79 223.932 1318.1 225.34 1318.1C227.036 1318.1 228.38 1317.6 229.372 1316.61C230.396 1315.65 230.908 1314.1 230.908 1311.95V1308.16C230.108 1309.41 229.004 1310.43 227.596 1311.23C226.188 1312 224.54 1312.38 222.652 1312.38C220.444 1312.38 218.444 1311.82 216.652 1310.7C214.86 1309.55 213.436 1307.94 212.38 1305.86C211.356 1303.74 210.844 1301.31 210.844 1298.56C210.844 1295.81 211.356 1293.39 212.38 1291.31C213.436 1289.23 214.86 1287.63 216.652 1286.51C218.444 1285.39 220.444 1284.83 222.652 1284.83ZM230.908 1298.61C230.908 1296.56 230.332 1294.94 229.18 1293.76C228.06 1292.58 226.684 1291.98 225.052 1291.98C223.42 1291.98 222.028 1292.58 220.876 1293.76C219.756 1294.91 219.196 1296.51 219.196 1298.56C219.196 1300.61 219.756 1302.24 220.876 1303.46C222.028 1304.64 223.42 1305.23 225.052 1305.23C226.684 1305.23 228.06 1304.64 229.18 1303.46C230.332 1302.27 230.908 1300.66 230.908 1298.61ZM253.262 1276.48V1312H245.054V1276.48H253.262ZM284.458 1298.18C284.458 1298.94 284.41 1299.74 284.314 1300.58H265.738C265.866 1302.24 266.394 1303.52 267.322 1304.42C268.282 1305.28 269.45 1305.71 270.826 1305.71C272.874 1305.71 274.298 1304.85 275.098 1303.12H283.834C283.386 1304.88 282.57 1306.46 281.386 1307.87C280.234 1309.28 278.778 1310.38 277.018 1311.18C275.258 1311.98 273.29 1312.38 271.114 1312.38C268.49 1312.38 266.154 1311.82 264.106 1310.7C262.058 1309.58 260.458 1307.98 259.306 1305.9C258.154 1303.82 257.578 1301.39 257.578 1298.61C257.578 1295.82 258.138 1293.39 259.258 1291.31C260.41 1289.23 262.01 1287.63 264.058 1286.51C266.106 1285.39 268.458 1284.83 271.114 1284.83C273.706 1284.83 276.01 1285.38 278.026 1286.46C280.042 1287.55 281.61 1289.1 282.73 1291.12C283.882 1293.14 284.458 1295.49 284.458 1298.18ZM276.058 1296.02C276.058 1294.61 275.578 1293.49 274.618 1292.66C273.658 1291.82 272.458 1291.41 271.018 1291.41C269.642 1291.41 268.474 1291.81 267.514 1292.61C266.586 1293.41 266.01 1294.54 265.786 1296.02H276.058ZM271.018 1279.26L263.578 1283.2V1277.54L271.018 1273.74L278.458 1277.54V1283.2L271.018 1279.26ZM299.685 1312.38C297.349 1312.38 295.269 1311.98 293.445 1311.18C291.621 1310.38 290.181 1309.3 289.125 1307.92C288.069 1306.51 287.477 1304.94 287.349 1303.22H295.461C295.557 1304.14 295.989 1304.9 296.757 1305.47C297.525 1306.05 298.469 1306.34 299.589 1306.34C300.613 1306.34 301.397 1306.14 301.941 1305.76C302.517 1305.34 302.805 1304.82 302.805 1304.18C302.805 1303.41 302.405 1302.85 301.605 1302.5C300.805 1302.11 299.509 1301.7 297.717 1301.25C295.797 1300.8 294.197 1300.34 292.917 1299.86C291.637 1299.34 290.533 1298.56 289.605 1297.5C288.677 1296.42 288.213 1294.96 288.213 1293.14C288.213 1291.6 288.629 1290.21 289.461 1288.96C290.325 1287.68 291.573 1286.67 293.205 1285.94C294.869 1285.2 296.837 1284.83 299.109 1284.83C302.469 1284.83 305.109 1285.66 307.029 1287.33C308.981 1288.99 310.101 1291.2 310.389 1293.95H302.805C302.677 1293.02 302.261 1292.29 301.557 1291.74C300.885 1291.2 299.989 1290.93 298.869 1290.93C297.909 1290.93 297.173 1291.12 296.661 1291.5C296.149 1291.86 295.893 1292.35 295.893 1292.99C295.893 1293.76 296.293 1294.34 297.093 1294.72C297.925 1295.1 299.205 1295.49 300.933 1295.87C302.917 1296.38 304.533 1296.9 305.781 1297.41C307.029 1297.89 308.117 1298.69 309.045 1299.81C310.005 1300.9 310.501 1302.37 310.533 1304.22C310.533 1305.79 310.085 1307.2 309.189 1308.45C308.325 1309.66 307.061 1310.62 305.397 1311.33C303.765 1312.03 301.861 1312.38 299.685 1312.38ZM324.094 1298.56C324.094 1295.81 324.606 1293.39 325.63 1291.31C326.686 1289.23 328.11 1287.63 329.902 1286.51C331.694 1285.39 333.694 1284.83 335.902 1284.83C337.79 1284.83 339.438 1285.22 340.846 1285.98C342.286 1286.75 343.39 1287.76 344.158 1289.01V1285.22H352.366V1312H344.158V1308.21C343.358 1309.46 342.238 1310.46 340.798 1311.23C339.39 1312 337.742 1312.38 335.854 1312.38C333.678 1312.38 331.694 1311.82 329.902 1310.7C328.11 1309.55 326.686 1307.94 325.63 1305.86C324.606 1303.74 324.094 1301.31 324.094 1298.56ZM344.158 1298.61C344.158 1296.56 343.582 1294.94 342.43 1293.76C341.31 1292.58 339.934 1291.98 338.302 1291.98C336.67 1291.98 335.278 1292.58 334.126 1293.76C333.006 1294.91 332.446 1296.51 332.446 1298.56C332.446 1300.61 333.006 1302.24 334.126 1303.46C335.278 1304.64 336.67 1305.23 338.302 1305.23C339.934 1305.23 341.31 1304.64 342.43 1303.46C343.582 1302.27 344.158 1300.66 344.158 1298.61ZM370.352 1304.32L376.16 1285.22H384.896L375.392 1312H365.264L355.76 1285.22H364.544L370.352 1304.32ZM386.719 1298.56C386.719 1295.81 387.231 1293.39 388.255 1291.31C389.311 1289.23 390.735 1287.63 392.527 1286.51C394.319 1285.39 396.319 1284.83 398.527 1284.83C400.415 1284.83 402.063 1285.22 403.471 1285.98C404.911 1286.75 406.015 1287.76 406.783 1289.01V1285.22H414.991V1312H406.783V1308.21C405.983 1309.46 404.863 1310.46 403.423 1311.23C402.015 1312 400.367 1312.38 398.479 1312.38C396.303 1312.38 394.319 1311.82 392.527 1310.7C390.735 1309.55 389.311 1307.94 388.255 1305.86C387.231 1303.74 386.719 1301.31 386.719 1298.56ZM406.783 1298.61C406.783 1296.56 406.207 1294.94 405.055 1293.76C403.935 1292.58 402.559 1291.98 400.927 1291.98C399.295 1291.98 397.903 1292.58 396.751 1293.76C395.631 1294.91 395.071 1296.51 395.071 1298.56C395.071 1300.61 395.631 1302.24 396.751 1303.46C397.903 1304.64 399.295 1305.23 400.927 1305.23C402.559 1305.23 403.935 1304.64 405.055 1303.46C406.207 1302.27 406.783 1300.66 406.783 1298.61ZM437.249 1284.93C440.385 1284.93 442.881 1285.95 444.737 1288C446.625 1290.02 447.569 1292.8 447.569 1296.35V1312H439.409V1297.46C439.409 1295.66 438.945 1294.27 438.017 1293.28C437.089 1292.29 435.841 1291.79 434.273 1291.79C432.705 1291.79 431.457 1292.29 430.529 1293.28C429.601 1294.27 429.137 1295.66 429.137 1297.46V1312H420.929V1285.22H429.137V1288.77C429.969 1287.58 431.089 1286.66 432.497 1285.98C433.905 1285.28 435.489 1284.93 437.249 1284.93ZM464.937 1305.38C467.049 1305.38 468.473 1304.35 469.209 1302.3H477.945C477.337 1305.02 476.121 1307.25 474.297 1308.98C472.473 1310.7 470.201 1311.78 467.481 1312.19V1313.97C469.145 1313.97 470.601 1314.42 471.849 1315.31C473.097 1316.24 473.721 1317.62 473.721 1319.44C473.721 1321.26 473.065 1322.64 471.753 1323.57C470.441 1324.53 468.873 1325.01 467.049 1325.01H459.657V1320.5H465.945C466.585 1320.5 467.065 1320.4 467.385 1320.21C467.705 1320.02 467.865 1319.7 467.865 1319.25C467.865 1318.8 467.705 1318.48 467.385 1318.29C467.065 1318.13 466.585 1318.05 465.945 1318.05H462.537V1312.19C459.241 1311.68 456.601 1310.22 454.617 1307.82C452.633 1305.39 451.641 1302.32 451.641 1298.61C451.641 1295.82 452.201 1293.39 453.321 1291.31C454.473 1289.23 456.057 1287.63 458.073 1286.51C460.121 1285.39 462.457 1284.83 465.081 1284.83C468.441 1284.83 471.241 1285.71 473.481 1287.47C475.753 1289.23 477.241 1291.71 477.945 1294.91H469.209C468.473 1292.86 467.049 1291.84 464.937 1291.84C463.433 1291.84 462.233 1292.43 461.337 1293.62C460.441 1294.77 459.993 1296.43 459.993 1298.61C459.993 1300.78 460.441 1302.46 461.337 1303.65C462.233 1304.8 463.433 1305.38 464.937 1305.38ZM480.703 1298.56C480.703 1295.81 481.215 1293.39 482.239 1291.31C483.295 1289.23 484.719 1287.63 486.511 1286.51C488.303 1285.39 490.303 1284.83 492.511 1284.83C494.399 1284.83 496.047 1285.22 497.455 1285.98C498.895 1286.75 499.999 1287.76 500.767 1289.01V1285.22H508.975V1312H500.767V1308.21C499.967 1309.46 498.847 1310.46 497.407 1311.23C495.999 1312 494.351 1312.38 492.463 1312.38C490.287 1312.38 488.303 1311.82 486.511 1310.7C484.719 1309.55 483.295 1307.94 482.239 1305.86C481.215 1303.74 480.703 1301.31 480.703 1298.56ZM500.767 1298.61C500.767 1296.56 500.191 1294.94 499.039 1293.76C497.919 1292.58 496.543 1291.98 494.911 1291.98C493.279 1291.98 491.887 1292.58 490.735 1293.76C489.615 1294.91 489.055 1296.51 489.055 1298.56C489.055 1300.61 489.615 1302.24 490.735 1303.46C491.887 1304.64 493.279 1305.23 494.911 1305.23C496.543 1305.23 497.919 1304.64 499.039 1303.46C500.191 1302.27 500.767 1300.66 500.767 1298.61ZM513.282 1298.56C513.282 1295.81 513.794 1293.39 514.818 1291.31C515.874 1289.23 517.298 1287.63 519.09 1286.51C520.882 1285.39 522.882 1284.83 525.09 1284.83C526.85 1284.83 528.45 1285.2 529.89 1285.94C531.362 1286.67 532.514 1287.66 533.346 1288.91V1276.48H541.554V1312H533.346V1308.16C532.578 1309.44 531.474 1310.46 530.034 1311.23C528.626 1312 526.978 1312.38 525.09 1312.38C522.882 1312.38 520.882 1311.82 519.09 1310.7C517.298 1309.55 515.874 1307.94 514.818 1305.86C513.794 1303.74 513.282 1301.31 513.282 1298.56ZM533.346 1298.61C533.346 1296.56 532.77 1294.94 531.618 1293.76C530.498 1292.58 529.122 1291.98 527.49 1291.98C525.858 1291.98 524.466 1292.58 523.314 1293.76C522.194 1294.91 521.634 1296.51 521.634 1298.56C521.634 1300.61 522.194 1302.24 523.314 1303.46C524.466 1304.64 525.858 1305.23 527.49 1305.23C529.122 1305.23 530.498 1304.64 531.618 1303.46C532.77 1302.27 533.346 1300.66 533.346 1298.61ZM559.684 1312.38C557.06 1312.38 554.692 1311.82 552.58 1310.7C550.5 1309.58 548.852 1307.98 547.636 1305.9C546.452 1303.82 545.86 1301.39 545.86 1298.61C545.86 1295.86 546.468 1293.44 547.684 1291.36C548.9 1289.25 550.564 1287.63 552.676 1286.51C554.788 1285.39 557.156 1284.83 559.78 1284.83C562.404 1284.83 564.772 1285.39 566.884 1286.51C568.996 1287.63 570.66 1289.25 571.876 1291.36C573.092 1293.44 573.7 1295.86 573.7 1298.61C573.7 1301.36 573.076 1303.79 571.828 1305.9C570.612 1307.98 568.932 1309.58 566.788 1310.7C564.676 1311.82 562.308 1312.38 559.684 1312.38ZM559.684 1305.28C561.252 1305.28 562.58 1304.7 563.668 1303.55C564.788 1302.4 565.348 1300.75 565.348 1298.61C565.348 1296.46 564.804 1294.82 563.716 1293.66C562.66 1292.51 561.348 1291.94 559.78 1291.94C558.18 1291.94 556.852 1292.51 555.796 1293.66C554.74 1294.78 554.212 1296.43 554.212 1298.61C554.212 1300.75 554.724 1302.4 555.748 1303.55C556.804 1304.7 558.116 1305.28 559.684 1305.28Z" fill="#EEEEEE"/>
<rect x="127" y="1278" width="13" height="34" fill="#E20707"/>
<path d="M157.584 408.104C157.584 404.776 158.304 401.816 159.744 399.224C161.184 396.6 163.184 394.568 165.744 393.128C168.336 391.656 171.264 390.92 174.528 390.92C178.528 390.92 181.952 391.976 184.8 394.088C187.648 396.2 189.552 399.08 190.512 402.728H181.488C180.816 401.32 179.856 400.248 178.608 399.512C177.392 398.776 176 398.408 174.432 398.408C171.904 398.408 169.856 399.288 168.288 401.048C166.72 402.808 165.936 405.16 165.936 408.104C165.936 411.048 166.72 413.4 168.288 415.16C169.856 416.92 171.904 417.8 174.432 417.8C176 417.8 177.392 417.432 178.608 416.696C179.856 415.96 180.816 414.888 181.488 413.48H190.512C189.552 417.128 187.648 420.008 184.8 422.12C181.952 424.2 178.528 425.24 174.528 425.24C171.264 425.24 168.336 424.52 165.744 423.08C163.184 421.608 161.184 419.576 159.744 416.984C158.304 414.392 157.584 411.432 157.584 408.104ZM207.731 425.336C205.267 425.336 203.059 424.936 201.107 424.136C199.155 423.336 197.587 422.152 196.403 420.584C195.251 419.016 194.643 417.128 194.579 414.92H203.315C203.443 416.168 203.875 417.128 204.611 417.8C205.347 418.44 206.307 418.76 207.491 418.76C208.707 418.76 209.667 418.488 210.371 417.944C211.075 417.368 211.427 416.584 211.427 415.592C211.427 414.76 211.139 414.072 210.563 413.528C210.019 412.984 209.331 412.536 208.499 412.184C207.699 411.832 206.547 411.432 205.043 410.984C202.867 410.312 201.091 409.64 199.715 408.968C198.339 408.296 197.155 407.304 196.163 405.992C195.171 404.68 194.675 402.968 194.675 400.856C194.675 397.72 195.811 395.272 198.083 393.512C200.355 391.72 203.315 390.824 206.963 390.824C210.675 390.824 213.667 391.72 215.939 393.512C218.211 395.272 219.427 397.736 219.587 400.904H210.707C210.643 399.816 210.243 398.968 209.507 398.36C208.771 397.72 207.827 397.4 206.674 397.4C205.683 397.4 204.883 397.672 204.275 398.216C203.667 398.728 203.363 399.48 203.363 400.472C203.363 401.56 203.875 402.408 204.898 403.016C205.923 403.624 207.523 404.28 209.699 404.984C211.875 405.72 213.635 406.424 214.979 407.096C216.355 407.768 217.539 408.744 218.531 410.024C219.523 411.304 220.019 412.952 220.019 414.968C220.019 416.888 219.523 418.632 218.531 420.2C217.571 421.768 216.163 423.016 214.307 423.944C212.451 424.872 210.259 425.336 207.731 425.336ZM237.262 425.336C234.798 425.336 232.59 424.936 230.638 424.136C228.686 423.336 227.118 422.152 225.934 420.584C224.782 419.016 224.174 417.128 224.11 414.92H232.846C232.974 416.168 233.406 417.128 234.142 417.8C234.878 418.44 235.838 418.76 237.022 418.76C238.238 418.76 239.198 418.488 239.902 417.944C240.606 417.368 240.958 416.584 240.958 415.592C240.958 414.76 240.67 414.072 240.094 413.528C239.55 412.984 238.862 412.536 238.03 412.184C237.23 411.832 236.078 411.432 234.574 410.984C232.398 410.312 230.622 409.64 229.246 408.968C227.87 408.296 226.686 407.304 225.694 405.992C224.702 404.68 224.206 402.968 224.206 400.856C224.206 397.72 225.342 395.272 227.614 393.512C229.886 391.72 232.846 390.824 236.494 390.824C240.206 390.824 243.198 391.72 245.47 393.512C247.742 395.272 248.958 397.736 249.118 400.904H240.238C240.174 399.816 239.774 398.968 239.038 398.36C238.302 397.72 237.358 397.4 236.206 397.4C235.214 397.4 234.414 397.672 233.806 398.216C233.198 398.728 232.894 399.48 232.894 400.472C232.894 401.56 233.406 402.408 234.43 403.016C235.454 403.624 237.054 404.28 239.23 404.984C241.406 405.72 243.166 406.424 244.51 407.096C245.886 407.768 247.07 408.744 248.062 410.024C249.054 411.304 249.55 412.952 249.55 414.968C249.55 416.888 249.054 418.632 248.062 420.2C247.102 421.768 245.694 423.016 243.838 423.944C241.982 424.872 239.79 425.336 237.262 425.336Z" fill="#EEEEEE"/>
<rect x="127" y="391" width="13" height="34" fill="#E20707"/>
<path d="M180.096 499.304V522.248C180.096 525.8 179.088 528.536 177.072 530.456C175.088 532.376 172.4 533.336 169.008 533.336C165.456 533.336 162.608 532.328 160.464 530.312C158.32 528.296 157.248 525.432 157.248 521.72H165.408C165.408 523.128 165.696 524.2 166.272 524.936C166.848 525.64 167.68 525.992 168.768 525.992C169.76 525.992 170.528 525.672 171.072 525.032C171.616 524.392 171.888 523.464 171.888 522.248V499.304H180.096ZM185.094 519.56C185.094 516.808 185.606 514.392 186.63 512.312C187.686 510.232 189.11 508.632 190.902 507.512C192.694 506.392 194.694 505.832 196.902 505.832C198.79 505.832 200.438 506.216 201.846 506.984C203.286 507.752 204.39 508.76 205.158 510.008V506.216H213.366V533H205.158V529.208C204.358 530.456 203.238 531.464 201.798 532.232C200.39 533 198.742 533.384 196.854 533.384C194.678 533.384 192.694 532.824 190.902 531.704C189.11 530.552 187.686 528.936 186.63 526.856C185.606 524.744 185.094 522.312 185.094 519.56ZM205.158 519.608C205.158 517.56 204.582 515.944 203.43 514.76C202.31 513.576 200.934 512.984 199.302 512.984C197.67 512.984 196.278 513.576 195.126 514.76C194.006 515.912 193.446 517.512 193.446 519.56C193.446 521.608 194.006 523.24 195.126 524.456C196.278 525.64 197.67 526.232 199.302 526.232C200.934 526.232 202.31 525.64 203.43 524.456C204.582 523.272 205.158 521.656 205.158 519.608ZM231.352 525.32L237.16 506.216H245.896L236.392 533H226.264L216.76 506.216H225.544L231.352 525.32ZM247.719 519.56C247.719 516.808 248.231 514.392 249.255 512.312C250.311 510.232 251.735 508.632 253.527 507.512C255.319 506.392 257.319 505.832 259.527 505.832C261.415 505.832 263.063 506.216 264.471 506.984C265.911 507.752 267.015 508.76 267.783 510.008V506.216H275.991V533H267.783V529.208C266.983 530.456 265.863 531.464 264.423 532.232C263.015 533 261.367 533.384 259.479 533.384C257.303 533.384 255.319 532.824 253.527 531.704C251.735 530.552 250.311 528.936 249.255 526.856C248.231 524.744 247.719 522.312 247.719 519.56ZM267.783 519.608C267.783 517.56 267.207 515.944 266.055 514.76C264.935 513.576 263.559 512.984 261.927 512.984C260.295 512.984 258.903 513.576 257.751 514.76C256.631 515.912 256.071 517.512 256.071 519.56C256.071 521.608 256.631 523.24 257.751 524.456C258.903 525.64 260.295 526.232 261.927 526.232C263.559 526.232 264.935 525.64 266.055 524.456C267.207 523.272 267.783 521.656 267.783 519.608ZM294.121 533.336C291.657 533.336 289.449 532.936 287.497 532.136C285.545 531.336 283.977 530.152 282.793 528.584C281.641 527.016 281.033 525.128 280.969 522.92H289.705C289.833 524.168 290.265 525.128 291.001 525.8C291.737 526.44 292.697 526.76 293.881 526.76C295.097 526.76 296.057 526.488 296.761 525.944C297.465 525.368 297.817 524.584 297.817 523.592C297.817 522.76 297.529 522.072 296.953 521.528C296.409 520.984 295.721 520.536 294.889 520.184C294.089 519.832 292.937 519.432 291.433 518.984C289.257 518.312 287.481 517.64 286.105 516.968C284.729 516.296 283.545 515.304 282.553 513.992C281.561 512.68 281.065 510.968 281.065 508.856C281.065 505.72 282.201 503.272 284.473 501.512C286.745 499.72 289.705 498.824 293.353 498.824C297.065 498.824 300.057 499.72 302.329 501.512C304.601 503.272 305.817 505.736 305.977 508.904H297.097C297.033 507.816 296.633 506.968 295.897 506.36C295.161 505.72 294.217 505.4 293.065 505.4C292.073 505.4 291.273 505.672 290.665 506.216C290.057 506.728 289.753 507.48 289.753 508.472C289.753 509.56 290.265 510.408 291.289 511.016C292.313 511.624 293.913 512.28 296.089 512.984C298.265 513.72 300.025 514.424 301.369 515.096C302.745 515.768 303.929 516.744 304.921 518.024C305.913 519.304 306.409 520.952 306.409 522.968C306.409 524.888 305.913 526.632 304.921 528.2C303.961 529.768 302.553 531.016 300.697 531.944C298.841 532.872 296.649 533.336 294.121 533.336ZM309.828 519.608C309.828 516.824 310.388 514.392 311.508 512.312C312.66 510.232 314.244 508.632 316.26 507.512C318.308 506.392 320.644 505.832 323.268 505.832C326.628 505.832 329.428 506.712 331.668 508.472C333.94 510.232 335.428 512.712 336.132 515.912H327.396C326.66 513.864 325.236 512.84 323.124 512.84C321.62 512.84 320.42 513.432 319.524 514.616C318.628 515.768 318.18 517.432 318.18 519.608C318.18 521.784 318.628 523.464 319.524 524.648C320.42 525.8 321.62 526.376 323.124 526.376C325.236 526.376 326.66 525.352 327.396 523.304H336.132C335.428 526.44 333.94 528.904 331.668 530.696C329.396 532.488 326.596 533.384 323.268 533.384C320.644 533.384 318.308 532.824 316.26 531.704C314.244 530.584 312.66 528.984 311.508 526.904C310.388 524.824 309.828 522.392 309.828 519.608ZM348.731 510.68C349.691 509.208 350.891 508.056 352.331 507.224C353.771 506.36 355.371 505.928 357.131 505.928V514.616H354.875C352.827 514.616 351.291 515.064 350.267 515.96C349.243 516.824 348.731 518.36 348.731 520.568V533H340.523V506.216H348.731V510.68ZM365.182 503.432C363.742 503.432 362.558 503.016 361.63 502.184C360.734 501.32 360.286 500.264 360.286 499.016C360.286 497.736 360.734 496.68 361.63 495.848C362.558 494.984 363.742 494.552 365.182 494.552C366.59 494.552 367.742 494.984 368.638 495.848C369.566 496.68 370.03 497.736 370.03 499.016C370.03 500.264 369.566 501.32 368.638 502.184C367.742 503.016 366.59 503.432 365.182 503.432ZM369.262 506.216V533H361.054V506.216H369.262ZM383.418 510.008C384.218 508.76 385.322 507.752 386.73 506.984C388.138 506.216 389.786 505.832 391.674 505.832C393.882 505.832 395.882 506.392 397.674 507.512C399.466 508.632 400.874 510.232 401.898 512.312C402.954 514.392 403.482 516.808 403.482 519.56C403.482 522.312 402.954 524.744 401.898 526.856C400.874 528.936 399.466 530.552 397.674 531.704C395.882 532.824 393.882 533.384 391.674 533.384C389.818 533.384 388.17 533 386.73 532.232C385.322 531.464 384.218 530.472 383.418 529.256V545.768H375.21V506.216H383.418V510.008ZM395.13 519.56C395.13 517.512 394.554 515.912 393.402 514.76C392.282 513.576 390.89 512.984 389.226 512.984C387.594 512.984 386.202 513.576 385.05 514.76C383.93 515.944 383.37 517.56 383.37 519.608C383.37 521.656 383.93 523.272 385.05 524.456C386.202 525.64 387.594 526.232 389.226 526.232C390.858 526.232 392.25 525.64 393.402 524.456C394.554 523.24 395.13 521.608 395.13 519.56ZM422.717 526.04V533H418.541C415.565 533 413.245 532.28 411.581 530.84C409.917 529.368 409.085 526.984 409.085 523.688V513.032H405.821V506.216H409.085V499.688H417.293V506.216H422.669V513.032H417.293V523.784C417.293 524.584 417.485 525.16 417.869 525.512C418.253 525.864 418.893 526.04 419.789 526.04H422.717Z" fill="#EEEEEE"/>
<rect x="127" y="499" width="13" height="34" fill="#E20707"/>
<path d="M176.16 641L169.152 628.28H167.184V641H158.976V607.304H172.752C175.408 607.304 177.664 607.768 179.52 608.696C181.408 609.624 182.816 610.904 183.744 612.536C184.672 614.136 185.136 615.928 185.136 617.912C185.136 620.152 184.496 622.152 183.216 623.912C181.968 625.672 180.112 626.92 177.648 627.656L185.424 641H176.16ZM167.184 622.472H172.272C173.776 622.472 174.896 622.104 175.632 621.368C176.4 620.632 176.784 619.592 176.784 618.248C176.784 616.968 176.4 615.96 175.632 615.224C174.896 614.488 173.776 614.12 172.272 614.12H167.184V622.472ZM215.536 627.176C215.536 627.944 215.489 628.744 215.393 629.576H196.817C196.945 631.24 197.473 632.52 198.401 633.416C199.361 634.28 200.529 634.712 201.905 634.712C203.953 634.712 205.377 633.848 206.177 632.12H214.913C214.465 633.88 213.649 635.464 212.465 636.872C211.313 638.28 209.857 639.384 208.097 640.184C206.337 640.984 204.369 641.384 202.193 641.384C199.569 641.384 197.233 640.824 195.185 639.704C193.137 638.584 191.537 636.984 190.385 634.904C189.233 632.824 188.657 630.392 188.657 627.608C188.657 624.824 189.217 622.392 190.337 620.312C191.489 618.232 193.089 616.632 195.137 615.512C197.185 614.392 199.537 613.832 202.193 613.832C204.785 613.832 207.089 614.376 209.105 615.464C211.121 616.552 212.689 618.104 213.809 620.12C214.961 622.136 215.536 624.488 215.536 627.176ZM207.137 625.016C207.137 623.608 206.657 622.488 205.697 621.656C204.737 620.824 203.537 620.408 202.097 620.408C200.721 620.408 199.553 620.808 198.593 621.608C197.665 622.408 197.089 623.544 196.865 625.016H207.137ZM218.235 627.56C218.235 624.808 218.747 622.392 219.771 620.312C220.827 618.232 222.251 616.632 224.043 615.512C225.835 614.392 227.835 613.832 230.043 613.832C231.931 613.832 233.579 614.216 234.987 614.984C236.427 615.752 237.531 616.76 238.299 618.008V614.216H246.507V641H238.299V637.208C237.499 638.456 236.379 639.464 234.939 640.232C233.531 641 231.883 641.384 229.995 641.384C227.819 641.384 225.835 640.824 224.043 639.704C222.251 638.552 220.827 636.936 219.771 634.856C218.747 632.744 218.235 630.312 218.235 627.56ZM238.299 627.608C238.299 625.56 237.723 623.944 236.571 622.76C235.451 621.576 234.075 620.984 232.443 620.984C230.811 620.984 229.419 621.576 228.267 622.76C227.147 623.912 226.587 625.512 226.587 627.56C226.587 629.608 227.147 631.24 228.267 632.456C229.419 633.64 230.811 634.232 232.443 634.232C234.075 634.232 235.451 633.64 236.571 632.456C237.723 631.272 238.299 629.656 238.299 627.608ZM250.813 627.608C250.813 624.824 251.373 622.392 252.493 620.312C253.645 618.232 255.229 616.632 257.245 615.512C259.293 614.392 261.629 613.832 264.253 613.832C267.613 613.832 270.413 614.712 272.653 616.472C274.925 618.232 276.413 620.712 277.117 623.912H268.381C267.645 621.864 266.221 620.84 264.109 620.84C262.605 620.84 261.405 621.432 260.509 622.616C259.613 623.768 259.165 625.432 259.165 627.608C259.165 629.784 259.613 631.464 260.509 632.648C261.405 633.8 262.605 634.376 264.109 634.376C266.221 634.376 267.645 633.352 268.381 631.304H277.117C276.413 634.44 274.925 636.904 272.653 638.696C270.381 640.488 267.581 641.384 264.253 641.384C261.629 641.384 259.293 640.824 257.245 639.704C255.229 638.584 253.645 636.984 252.493 634.904C251.373 632.824 250.813 630.392 250.813 627.608ZM296.435 634.04V641H292.259C289.283 641 286.963 640.28 285.299 638.84C283.635 637.368 282.803 634.984 282.803 631.688V621.032H279.539V614.216H282.803V607.688H291.011V614.216H296.387V621.032H291.011V631.784C291.011 632.584 291.203 633.16 291.587 633.512C291.971 633.864 292.611 634.04 293.507 634.04H296.435Z" fill="#EEEEEE"/>
<rect x="127" y="607" width="13" height="34" fill="#E20707"/>
<path d="M176.16 749L169.152 736.28H167.184V749H158.976V715.304H172.752C175.408 715.304 177.664 715.768 179.52 716.696C181.408 717.624 182.816 718.904 183.744 720.536C184.672 722.136 185.136 723.928 185.136 725.912C185.136 728.152 184.496 730.152 183.216 731.912C181.968 733.672 180.112 734.92 177.648 735.656L185.424 749H176.16ZM167.184 730.472H172.272C173.776 730.472 174.896 730.104 175.632 729.368C176.4 728.632 176.784 727.592 176.784 726.248C176.784 724.968 176.4 723.96 175.632 723.224C174.896 722.488 173.776 722.12 172.272 722.12H167.184V730.472ZM215.536 735.176C215.536 735.944 215.489 736.744 215.393 737.576H196.817C196.945 739.24 197.473 740.52 198.401 741.416C199.361 742.28 200.529 742.712 201.905 742.712C203.953 742.712 205.377 741.848 206.177 740.12H214.913C214.465 741.88 213.649 743.464 212.465 744.872C211.313 746.28 209.857 747.384 208.097 748.184C206.337 748.984 204.369 749.384 202.193 749.384C199.569 749.384 197.233 748.824 195.185 747.704C193.137 746.584 191.537 744.984 190.385 742.904C189.233 740.824 188.657 738.392 188.657 735.608C188.657 732.824 189.217 730.392 190.337 728.312C191.489 726.232 193.089 724.632 195.137 723.512C197.185 722.392 199.537 721.832 202.193 721.832C204.785 721.832 207.089 722.376 209.105 723.464C211.121 724.552 212.689 726.104 213.809 728.12C214.961 730.136 215.536 732.488 215.536 735.176ZM207.137 733.016C207.137 731.608 206.657 730.488 205.697 729.656C204.737 728.824 203.537 728.408 202.097 728.408C200.721 728.408 199.553 728.808 198.593 729.608C197.665 730.408 197.089 731.544 196.865 733.016H207.137ZM218.235 735.56C218.235 732.808 218.747 730.392 219.771 728.312C220.827 726.232 222.251 724.632 224.043 723.512C225.835 722.392 227.835 721.832 230.043 721.832C231.803 721.832 233.403 722.2 234.843 722.936C236.315 723.672 237.467 724.664 238.299 725.912V713.48H246.507V749H238.299V745.16C237.531 746.44 236.427 747.464 234.987 748.232C233.579 749 231.931 749.384 230.043 749.384C227.835 749.384 225.835 748.824 224.043 747.704C222.251 746.552 220.827 744.936 219.771 742.856C218.747 740.744 218.235 738.312 218.235 735.56ZM238.299 735.608C238.299 733.56 237.723 731.944 236.571 730.76C235.451 729.576 234.075 728.984 232.443 728.984C230.811 728.984 229.419 729.576 228.267 730.76C227.147 731.912 226.587 733.512 226.587 735.56C226.587 737.608 227.147 739.24 228.267 740.456C229.419 741.64 230.811 742.232 232.443 742.232C234.075 742.232 235.451 741.64 236.571 740.456C237.723 739.272 238.299 737.656 238.299 735.608ZM278.893 722.216V749H270.685V745.352C269.853 746.536 268.717 747.496 267.277 748.232C265.869 748.936 264.301 749.288 262.573 749.288C260.525 749.288 258.717 748.84 257.149 747.944C255.581 747.016 254.365 745.688 253.501 743.96C252.637 742.232 252.205 740.2 252.205 737.864V722.216H260.365V736.76C260.365 738.552 260.829 739.944 261.757 740.936C262.685 741.928 263.933 742.424 265.501 742.424C267.101 742.424 268.365 741.928 269.293 740.936C270.221 739.944 270.685 738.552 270.685 736.76V722.216H278.893ZM300.629 749L295.493 741.56L291.173 749H282.293L291.125 735.32L282.053 722.216H291.269L296.405 729.608L300.725 722.216H309.605L300.629 735.704L309.845 749H300.629Z" fill="#EEEEEE"/>
<rect x="127" y="715" width="13" height="34" fill="#E20707"/>
<path d="M167.04 823.304V843.464C167.04 845.48 167.536 847.032 168.528 848.12C169.52 849.208 170.976 849.752 172.896 849.752C174.816 849.752 176.288 849.208 177.312 848.12C178.336 847.032 178.848 845.48 178.848 843.464V823.304H187.056V843.416C187.056 846.424 186.416 848.968 185.136 851.048C183.856 853.128 182.128 854.696 179.952 855.752C177.808 856.808 175.408 857.336 172.752 857.336C170.096 857.336 167.712 856.824 165.6 855.8C163.52 854.744 161.872 853.176 160.656 851.096C159.44 848.984 158.832 846.424 158.832 843.416V823.304H167.04ZM201.028 823.304V857H192.82V823.304H201.028ZM225.264 811.4L212.4 865.976H204.48L217.344 811.4H225.264ZM236.79 823.304V843.464C236.79 845.48 237.286 847.032 238.278 848.12C239.27 849.208 240.726 849.752 242.646 849.752C244.566 849.752 246.038 849.208 247.062 848.12C248.086 847.032 248.598 845.48 248.598 843.464V823.304H256.806V843.416C256.806 846.424 256.166 848.968 254.886 851.048C253.606 853.128 251.878 854.696 249.702 855.752C247.558 856.808 245.158 857.336 242.502 857.336C239.846 857.336 237.462 856.824 235.35 855.8C233.27 854.744 231.622 853.176 230.406 851.096C229.19 848.984 228.582 846.424 228.582 843.416V823.304H236.79ZM283.21 857L276.346 846.68L270.298 857H260.986L271.786 839.864L260.746 823.304H270.298L277.066 833.48L283.018 823.304H292.33L281.626 840.296L292.762 857H283.21ZM319.678 823.304C323.23 823.304 326.334 824.008 328.99 825.416C331.646 826.824 333.694 828.808 335.134 831.368C336.606 833.896 337.342 836.824 337.342 840.152C337.342 843.448 336.606 846.376 335.134 848.936C333.694 851.496 331.63 853.48 328.942 854.888C326.286 856.296 323.198 857 319.678 857H307.054V823.304H319.678ZM319.15 849.896C322.254 849.896 324.67 849.048 326.398 847.352C328.126 845.656 328.99 843.256 328.99 840.152C328.99 837.048 328.126 834.632 326.398 832.904C324.67 831.176 322.254 830.312 319.15 830.312H315.262V849.896H319.15ZM367.177 843.176C367.177 843.944 367.129 844.744 367.033 845.576H348.457C348.585 847.24 349.113 848.52 350.041 849.416C351.001 850.28 352.169 850.712 353.545 850.712C355.593 850.712 357.017 849.848 357.817 848.12H366.553C366.105 849.88 365.289 851.464 364.105 852.872C362.953 854.28 361.497 855.384 359.737 856.184C357.977 856.984 356.009 857.384 353.833 857.384C351.209 857.384 348.873 856.824 346.825 855.704C344.777 854.584 343.177 852.984 342.025 850.904C340.873 848.824 340.297 846.392 340.297 843.608C340.297 840.824 340.857 838.392 341.977 836.312C343.129 834.232 344.729 832.632 346.777 831.512C348.825 830.392 351.177 829.832 353.833 829.832C356.425 829.832 358.729 830.376 360.745 831.464C362.761 832.552 364.329 834.104 365.449 836.12C366.601 838.136 367.177 840.488 367.177 843.176ZM358.777 841.016C358.777 839.608 358.297 838.488 357.337 837.656C356.377 836.824 355.177 836.408 353.737 836.408C352.361 836.408 351.193 836.808 350.233 837.608C349.305 838.408 348.729 839.544 348.505 841.016H358.777ZM382.403 857.384C380.067 857.384 377.987 856.984 376.163 856.184C374.339 855.384 372.899 854.296 371.843 852.92C370.787 851.512 370.195 849.944 370.067 848.216H378.179C378.275 849.144 378.707 849.896 379.475 850.472C380.243 851.048 381.187 851.336 382.307 851.336C383.331 851.336 384.115 851.144 384.659 850.76C385.235 850.344 385.523 849.816 385.523 849.176C385.523 848.408 385.123 847.848 384.323 847.496C383.523 847.112 382.227 846.696 380.435 846.248C378.515 845.8 376.915 845.336 375.635 844.856C374.355 844.344 373.251 843.56 372.323 842.504C371.395 841.416 370.931 839.96 370.931 838.136C370.931 836.6 371.347 835.208 372.179 833.96C373.043 832.68 374.291 831.672 375.923 830.936C377.587 830.2 379.555 829.832 381.827 829.832C385.187 829.832 387.827 830.664 389.747 832.328C391.699 833.992 392.819 836.2 393.107 838.952H385.523C385.395 838.024 384.979 837.288 384.275 836.744C383.603 836.2 382.707 835.928 381.587 835.928C380.627 835.928 379.891 836.12 379.379 836.504C378.867 836.856 378.611 837.352 378.611 837.992C378.611 838.76 379.011 839.336 379.811 839.72C380.643 840.104 381.923 840.488 383.651 840.872C385.635 841.384 387.251 841.896 388.499 842.408C389.747 842.888 390.835 843.688 391.763 844.808C392.723 845.896 393.219 847.368 393.251 849.224C393.251 850.792 392.803 852.2 391.907 853.448C391.043 854.664 389.779 855.624 388.115 856.328C386.483 857.032 384.579 857.384 382.403 857.384ZM402.401 827.432C400.961 827.432 399.777 827.016 398.849 826.184C397.953 825.32 397.505 824.264 397.505 823.016C397.505 821.736 397.953 820.68 398.849 819.848C399.777 818.984 400.961 818.552 402.401 818.552C403.809 818.552 404.961 818.984 405.857 819.848C406.785 820.68 407.249 821.736 407.249 823.016C407.249 824.264 406.785 825.32 405.857 826.184C404.961 827.016 403.809 827.432 402.401 827.432ZM406.481 830.216V857H398.273V830.216H406.481ZM422.605 829.832C424.493 829.832 426.141 830.216 427.549 830.984C428.989 831.752 430.093 832.76 430.861 834.008V830.216H439.069V856.952C439.069 859.416 438.573 861.64 437.581 863.624C436.621 865.64 435.133 867.24 433.117 868.424C431.133 869.608 428.653 870.2 425.677 870.2C421.709 870.2 418.493 869.256 416.029 867.368C413.565 865.512 412.157 862.984 411.805 859.784H419.917C420.173 860.808 420.781 861.608 421.741 862.184C422.701 862.792 423.885 863.096 425.293 863.096C426.989 863.096 428.333 862.6 429.325 861.608C430.349 860.648 430.861 859.096 430.861 856.952V853.16C430.061 854.408 428.957 855.432 427.549 856.232C426.141 857 424.493 857.384 422.605 857.384C420.397 857.384 418.397 856.824 416.605 855.704C414.813 854.552 413.389 852.936 412.333 850.856C411.309 848.744 410.797 846.312 410.797 843.56C410.797 840.808 411.309 838.392 412.333 836.312C413.389 834.232 414.813 832.632 416.605 831.512C418.397 830.392 420.397 829.832 422.605 829.832ZM430.861 843.608C430.861 841.56 430.285 839.944 429.133 838.76C428.013 837.576 426.637 836.984 425.005 836.984C423.373 836.984 421.981 837.576 420.829 838.76C419.709 839.912 419.149 841.512 419.149 843.56C419.149 845.608 419.709 847.24 420.829 848.456C421.981 849.64 423.373 850.232 425.005 850.232C426.637 850.232 428.013 849.64 429.133 848.456C430.285 847.272 430.861 845.656 430.861 843.608ZM461.327 829.928C464.463 829.928 466.959 830.952 468.815 833C470.703 835.016 471.647 837.8 471.647 841.352V857H463.487V842.456C463.487 840.664 463.023 839.272 462.095 838.28C461.167 837.288 459.919 836.792 458.351 836.792C456.783 836.792 455.535 837.288 454.607 838.28C453.679 839.272 453.215 840.664 453.215 842.456V857H445.007V830.216H453.215V833.768C454.047 832.584 455.167 831.656 456.575 830.984C457.983 830.28 459.567 829.928 461.327 829.928Z" fill="#EEEEEE"/>
<rect x="127" y="823" width="13" height="34" fill="#E20707"/>
<path d="M549.344 293.96C548.736 292.84 547.856 291.992 546.704 291.416C545.584 290.808 544.256 290.504 542.72 290.504C540.064 290.504 537.936 291.384 536.336 293.144C534.736 294.872 533.936 297.192 533.936 300.104C533.936 303.208 534.768 305.64 536.432 307.4C538.128 309.128 540.448 309.992 543.392 309.992C545.408 309.992 547.104 309.48 548.48 308.456C549.888 307.432 550.912 305.96 551.552 304.04H541.136V297.992H558.992V305.624C558.384 307.672 557.344 309.576 555.872 311.336C554.432 313.096 552.592 314.52 550.352 315.608C548.112 316.696 545.584 317.24 542.768 317.24C539.44 317.24 536.464 316.52 533.84 315.08C531.248 313.608 529.216 311.576 527.744 308.984C526.304 306.392 525.584 303.432 525.584 300.104C525.584 296.776 526.304 293.816 527.744 291.224C529.216 288.6 531.248 286.568 533.84 285.128C536.432 283.656 539.392 282.92 542.72 282.92C546.752 282.92 550.144 283.896 552.896 285.848C555.68 287.8 557.52 290.504 558.416 293.96H549.344ZM567.667 287.432C566.227 287.432 565.043 287.016 564.115 286.184C563.219 285.32 562.771 284.264 562.771 283.016C562.771 281.736 563.219 280.68 564.115 279.848C565.043 278.984 566.227 278.552 567.667 278.552C569.075 278.552 570.227 278.984 571.123 279.848C572.051 280.68 572.515 281.736 572.515 283.016C572.515 284.264 572.051 285.32 571.123 286.184C570.227 287.016 569.075 287.432 567.667 287.432ZM571.747 290.216V317H563.539V290.216H571.747ZM592.623 310.04V317H588.447C585.471 317 583.151 316.28 581.487 314.84C579.823 313.368 578.991 310.984 578.991 307.688V297.032H575.727V290.216H578.991V283.688H587.199V290.216H592.575V297.032H587.199V307.784C587.199 308.584 587.391 309.16 587.775 309.512C588.159 309.864 588.799 310.04 589.695 310.04H592.623Z" fill="#EEEEEE"/>
<rect x="495" y="283" width="13" height="34" fill="#E20707"/>
<path d="M565.136 391.304V425H556.928V404.792L549.392 425H542.768L535.184 404.744V425H526.976V391.304H536.672L546.128 414.632L555.488 391.304H565.136ZM583.231 425.384C580.607 425.384 578.239 424.824 576.127 423.704C574.047 422.584 572.399 420.984 571.183 418.904C569.999 416.824 569.407 414.392 569.407 411.608C569.407 408.856 570.015 406.44 571.23 404.36C572.447 402.248 574.111 400.632 576.223 399.512C578.335 398.392 580.703 397.832 583.327 397.832C585.951 397.832 588.319 398.392 590.431 399.512C592.543 400.632 594.207 402.248 595.423 404.36C596.639 406.44 597.247 408.856 597.247 411.608C597.247 414.36 596.623 416.792 595.375 418.904C594.159 420.984 592.479 422.584 590.335 423.704C588.223 424.824 585.855 425.384 583.231 425.384ZM583.231 418.28C584.799 418.28 586.127 417.704 587.215 416.552C588.335 415.4 588.895 413.752 588.895 411.608C588.895 409.464 588.351 407.816 587.263 406.664C586.207 405.512 584.895 404.936 583.327 404.936C581.727 404.936 580.399 405.512 579.343 406.664C578.287 407.784 577.759 409.432 577.759 411.608C577.759 413.752 578.271 415.4 579.295 416.552C580.351 417.704 581.663 418.28 583.231 418.28ZM617.921 397.928C621.057 397.928 623.553 398.952 625.409 401C627.297 403.016 628.241 405.8 628.241 409.352V425H620.081V410.456C620.081 408.664 619.617 407.272 618.689 406.28C617.761 405.288 616.513 404.792 614.945 404.792C613.377 404.792 612.129 405.288 611.201 406.28C610.273 407.272 609.809 408.664 609.809 410.456V425H601.601V398.216H609.809V401.768C610.641 400.584 611.761 399.656 613.169 398.984C614.577 398.28 616.161 397.928 617.921 397.928ZM644.121 397.832C646.009 397.832 647.657 398.216 649.065 398.984C650.505 399.752 651.609 400.76 652.377 402.008V398.216H660.585V424.952C660.585 427.416 660.089 429.64 659.097 431.624C658.137 433.64 656.649 435.24 654.633 436.424C652.649 437.608 650.169 438.2 647.193 438.2C643.225 438.2 640.009 437.256 637.545 435.368C635.081 433.512 633.673 430.984 633.321 427.784H641.433C641.689 428.808 642.297 429.608 643.257 430.184C644.217 430.792 645.401 431.096 646.809 431.096C648.505 431.096 649.849 430.6 650.841 429.608C651.865 428.648 652.377 427.096 652.377 424.952V421.16C651.577 422.408 650.473 423.432 649.065 424.232C647.657 425 646.009 425.384 644.121 425.384C641.913 425.384 639.913 424.824 638.121 423.704C636.329 422.552 634.905 420.936 633.849 418.856C632.825 416.744 632.313 414.312 632.313 411.56C632.313 408.808 632.825 406.392 633.849 404.312C634.905 402.232 636.329 400.632 638.121 399.512C639.913 398.392 641.913 397.832 644.121 397.832ZM652.377 411.608C652.377 409.56 651.801 407.944 650.649 406.76C649.529 405.576 648.153 404.984 646.521 404.984C644.889 404.984 643.497 405.576 642.345 406.76C641.225 407.912 640.665 409.512 640.665 411.56C640.665 413.608 641.225 415.24 642.345 416.456C643.497 417.64 644.889 418.232 646.521 418.232C648.153 418.232 649.529 417.64 650.649 416.456C651.801 415.272 652.377 413.656 652.377 411.608ZM678.715 425.384C676.091 425.384 673.723 424.824 671.611 423.704C669.531 422.584 667.883 420.984 666.667 418.904C665.483 416.824 664.891 414.392 664.891 411.608C664.891 408.856 665.499 406.44 666.715 404.36C667.931 402.248 669.595 400.632 671.707 399.512C673.819 398.392 676.187 397.832 678.811 397.832C681.435 397.832 683.803 398.392 685.915 399.512C688.027 400.632 689.691 402.248 690.907 404.36C692.123 406.44 692.731 408.856 692.731 411.608C692.731 414.36 692.107 416.792 690.859 418.904C689.643 420.984 687.963 422.584 685.819 423.704C683.707 424.824 681.339 425.384 678.715 425.384ZM678.715 418.28C680.283 418.28 681.611 417.704 682.699 416.552C683.819 415.4 684.379 413.752 684.379 411.608C684.379 409.464 683.835 407.816 682.747 406.664C681.691 405.512 680.379 404.936 678.811 404.936C677.211 404.936 675.883 405.512 674.827 406.664C673.771 407.784 673.243 409.432 673.243 411.608C673.243 413.752 673.755 415.4 674.779 416.552C675.835 417.704 677.147 418.28 678.715 418.28ZM709.709 391.304C713.261 391.304 716.365 392.008 719.021 393.416C721.677 394.824 723.725 396.808 725.165 399.368C726.637 401.896 727.373 404.824 727.373 408.152C727.373 411.448 726.637 414.376 725.165 416.936C723.725 419.496 721.661 421.48 718.973 422.888C716.317 424.296 713.229 425 709.709 425H697.085V391.304H709.709ZM709.181 417.896C712.285 417.896 714.701 417.048 716.429 415.352C718.157 413.656 719.021 411.256 719.021 408.152C719.021 405.048 718.157 402.632 716.429 400.904C714.701 399.176 712.285 398.312 709.181 398.312H705.293V417.896H709.181ZM752.36 407.72C754.312 408.136 755.88 409.112 757.064 410.648C758.248 412.152 758.84 413.88 758.84 415.832C758.84 418.648 757.848 420.888 755.864 422.552C753.912 424.184 751.176 425 747.656 425H731.96V391.304H747.128C750.552 391.304 753.224 392.088 755.144 393.656C757.096 395.224 758.072 397.352 758.072 400.04C758.072 402.024 757.544 403.672 756.488 404.984C755.464 406.296 754.088 407.208 752.36 407.72ZM740.168 404.936H745.544C746.888 404.936 747.912 404.648 748.616 404.072C749.352 403.464 749.72 402.584 749.72 401.432C749.72 400.28 749.352 399.4 748.616 398.792C747.912 398.184 746.888 397.88 745.544 397.88H740.168V404.936ZM746.216 418.376C747.592 418.376 748.648 418.072 749.384 417.464C750.152 416.824 750.536 415.912 750.536 414.728C750.536 413.544 750.136 412.616 749.336 411.944C748.568 411.272 747.496 410.936 746.12 410.936H740.168V418.376H746.216Z" fill="#EEEEEE"/>
<rect x="495" y="391" width="13" height="34" fill="#E20707"/>
<rect x="65" y="976" width="1070" height="2" fill="#E20707"/>
</svg>
