<svg width="46" height="46" viewBox="0 0 46 46" fill="none" xmlns="http://www.w3.org/2000/svg">
<path d="M12.7778 0C5.73211 0 0 5.73211 0 12.7778V33.2222C0 40.2679 5.73211 46 12.7778 46H33.2222C40.2679 46 46 40.2679 46 33.2222V12.7778C46 5.73211 40.2679 0 33.2222 0H12.7778ZM12.7778 5.11111H33.2222C37.4491 5.11111 40.8889 8.55089 40.8889 12.7778V33.2222C40.8889 37.4491 37.4491 40.8889 33.2222 40.8889H12.7778C8.55089 40.8889 5.11111 37.4491 5.11111 33.2222V12.7778C5.11111 8.55089 8.55089 5.11111 12.7778 5.11111ZM35.7778 7.66667C35.1 7.66667 34.45 7.93591 33.9707 8.41517C33.4915 8.89443 33.2222 9.54445 33.2222 10.2222C33.2222 10.9 33.4915 11.55 33.9707 12.0293C34.45 12.5085 35.1 12.7778 35.7778 12.7778C36.4556 12.7778 37.1056 12.5085 37.5848 12.0293C38.0641 11.55 38.3333 10.9 38.3333 10.2222C38.3333 9.54445 38.0641 8.89443 37.5848 8.41517C37.1056 7.93591 36.4556 7.66667 35.7778 7.66667ZM23 10.2222C15.9543 10.2222 10.2222 15.9543 10.2222 23C10.2222 30.0457 15.9543 35.7778 23 35.7778C30.0457 35.7778 35.7778 30.0457 35.7778 23C35.7778 15.9543 30.0457 10.2222 23 10.2222ZM23 15.3333C27.2269 15.3333 30.6667 18.7731 30.6667 23C30.6667 27.2269 27.2269 30.6667 23 30.6667C18.7731 30.6667 15.3333 27.2269 15.3333 23C15.3333 18.7731 18.7731 15.3333 23 15.3333Z" fill="#E20707"/>
</svg>
