<svg width="46" height="46" viewBox="0 0 46 46" fill="none" xmlns="http://www.w3.org/2000/svg">
<path d="M41.8182 0H4.18182C1.87136 0 0 1.87136 0 4.18182V41.8182C0 44.1286 1.87136 46 4.18182 46H41.8182C44.1286 46 46 44.1286 46 41.8182V4.18182C46 1.87136 44.1286 0 41.8182 0ZM14.5402 37.6364H8.372V17.7895H14.5402V37.6364ZM11.3934 14.9521C9.40491 14.9521 7.797 13.34 7.797 11.3557C7.797 9.37145 9.407 7.76145 11.3934 7.76145C13.3755 7.76145 14.9876 9.37354 14.9876 11.3557C14.9876 13.34 13.3755 14.9521 11.3934 14.9521ZM37.6447 37.6364H31.4807V27.9847C31.4807 25.6826 31.4389 22.7219 28.2754 22.7219C25.0658 22.7219 24.5724 25.2289 24.5724 27.8175V37.6364H18.4084V17.7895H24.3256V20.5014H24.4093C25.2331 18.9415 27.2445 17.296 30.245 17.296C36.4905 17.296 37.6447 21.4067 37.6447 26.7511V37.6364V37.6364Z" fill="#E20707"/>
</svg>
